<svg width="335" height="271" viewBox="0 0 335 271" fill="none" xmlns="http://www.w3.org/2000/svg">
<mask id="mask0" mask-type="alpha" maskUnits="userSpaceOnUse" x="0" y="0" width="335" height="271">
<path d="M22.3363 262.112C15.3355 263.612 -18.1649 220.112 16.3363 170.112C49.3354 135.112 82.8354 157.112 97.3354 173.612C132.335 213.439 160.335 200.612 172.335 197.612C213.335 176.112 212.335 121.612 199.335 108.612C179.335 91.1116 151.835 93.6116 128.835 84.1117C87.8354 56.1116 122.335 20.6117 134.335 15.6117C171.335 -15.3883 210.335 8.61167 209.335 35.1117C209.335 82.6117 217.335 108.612 222.835 113.112C240.835 130.612 264.835 137.112 280.835 137.112C341.335 154.112 340.835 207.612 324.835 232.612L320.835 240.112C305.835 266.612 261.335 292.612 199.335 235.112C187.835 222.112 144.835 205.112 107.335 232.612C94.8354 240.112 54.8354 274.612 22.3363 262.112Z" fill="#C4C4C4" stroke="black"/>
</mask>
<g mask="url(#mask0)">
<path d="M23.5 261.794L10 254L23.5 246.206V261.794Z" stroke="black"/>
<path d="M37.5 253.794L24 246L37.5 238.206V253.794Z" stroke="black"/>
<path d="M37.5 269.794L24 262L37.5 254.206V269.794Z" stroke="black"/>
<path d="M51.5 261.794L38 254L51.5 246.206V261.794Z" stroke="black"/>
<path d="M93.5 253.794L80 246L93.5 238.206V253.794Z" stroke="black"/>
<path d="M23.5 245.794L10 238L23.5 230.206V245.794Z" stroke="black"/>
<path d="M9.5 253.794L-4 246L9.5 238.206V253.794Z" stroke="black"/>
<path d="M191.5 85.7942L178 78L191.5 70.2058V85.7942Z" stroke="black"/>
<path d="M205.5 77.7942L192 70L205.5 62.2058V77.7942Z" stroke="black"/>
<path d="M205.5 93.7942L192 86L205.5 78.2058V93.7942Z" stroke="black"/>
<path d="M219.5 85.7942L206 78L219.5 70.2058V85.7942Z" stroke="black"/>
<path d="M191.5 69.7942L178 62L191.5 54.2058V69.7942Z" stroke="black"/>
<path d="M177.5 77.7942L164 70L177.5 62.2058V77.7942Z" stroke="black"/>
<path d="M9.5 237.794L-4 230L9.5 222.206V237.794Z" stroke="black"/>
<path d="M9.5 221.794L-4 214L9.5 206.206V221.794Z" stroke="black"/>
<path d="M9.5 205.794L-4 198L9.5 190.206V205.794Z" stroke="black"/>
<path d="M9.5 189.794L-4 182L9.5 174.206V189.794Z" stroke="black"/>
<path d="M23.5 181.794L10 174L23.5 166.206V181.794Z" stroke="black"/>
<path d="M9.5 253.794L-4 246L9.5 238.206V253.794Z" stroke="black"/>
<path d="M23.5 181.794L10 174L23.5 166.206V181.794Z" stroke="black"/>
<path d="M23.5 197.794L10 190L23.5 182.206V197.794Z" stroke="black"/>
<path d="M23.5 213.794L10 206L23.5 198.206V213.794Z" stroke="black"/>
<path d="M23.5 229.794L10 222L23.5 214.206V229.794Z" stroke="black"/>
<path d="M51.5 245.794L38 238L51.5 230.206V245.794Z" stroke="black"/>
<path d="M51.5 229.794L38 222L51.5 214.206V229.794Z" stroke="black"/>
<path d="M37.5 237.794L24 230L37.5 222.206V237.794Z" stroke="black"/>
<path d="M37.5 221.794L24 214L37.5 206.206V221.794Z" stroke="black"/>
<path d="M37.5 205.794L24 198L37.5 190.206V205.794Z" stroke="black"/>
<path d="M37.5 189.794L24 182L37.5 174.206V189.794Z" stroke="black"/>
<path d="M37.5 173.794L24 166L37.5 158.206V173.794Z" stroke="black"/>
<path d="M23.5 165.794L10 158L23.5 150.206V165.794Z" stroke="black"/>
<path d="M37.5 157.794L24 150L37.5 142.206V157.794Z" stroke="black"/>
<path d="M51.5 165.794L38 158L51.5 150.206V165.794Z" stroke="black"/>
<path d="M37.5 237.794L24 230L37.5 222.206V237.794Z" stroke="black"/>
<path d="M51.5 165.794L38 158L51.5 150.206V165.794Z" stroke="black"/>
<path d="M51.5 181.794L38 174L51.5 166.206V181.794Z" stroke="black"/>
<path d="M51.5 197.794L38 190L51.5 182.206V197.794Z" stroke="black"/>
<path d="M51.5 213.794L38 206L51.5 198.206V213.794Z" stroke="black"/>
<path d="M79.5 229.794L66 222L79.5 214.206V229.794Z" stroke="black"/>
<path d="M79.5 213.794L66 206L79.5 198.206V213.794Z" stroke="black"/>
<path d="M65.5 221.794L52 214L65.5 206.206V221.794Z" stroke="black"/>
<path d="M65.5 205.794L52 198L65.5 190.206V205.794Z" stroke="black"/>
<path d="M65.5 189.794L52 182L65.5 174.206V189.794Z" stroke="black"/>
<path d="M65.5 173.794L52 166L65.5 158.206V173.794Z" stroke="black"/>
<path d="M65.5 157.794L52 150L65.5 142.206V157.794Z" stroke="black"/>
<path d="M65.5 221.794L52 214L65.5 206.206V221.794Z" stroke="black"/>
<path d="M79.5 165.794L66 158L79.5 150.206V165.794Z" stroke="black"/>
<path d="M79.5 181.794L66 174L79.5 166.206V181.794Z" stroke="black"/>
<path d="M79.5 197.794L66 190L79.5 182.206V197.794Z" stroke="black"/>
<path d="M107.5 245.794L94 238L107.5 230.206V245.794Z" stroke="black"/>
<path d="M107.5 229.794L94 222L107.5 214.206V229.794Z" stroke="black"/>
<path d="M93.5 237.794L80 230L93.5 222.206V237.794Z" stroke="black"/>
<path d="M93.5 221.794L80 214L93.5 206.206V221.794Z" stroke="black"/>
<path d="M93.5 205.794L80 198L93.5 190.206V205.794Z" stroke="black"/>
<path d="M93.5 189.794L80 182L93.5 174.206V189.794Z" stroke="black"/>
<path d="M93.5 173.794L80 166L93.5 158.206V173.794Z" stroke="black"/>
<path d="M93.5 237.794L80 230L93.5 222.206V237.794Z" stroke="black"/>
<path d="M107.5 181.794L94 174L107.5 166.206V181.794Z" stroke="black"/>
<path d="M107.5 197.794L94 190L107.5 182.206V197.794Z" stroke="black"/>
<path d="M107.5 213.794L94 206L107.5 198.206V213.794Z" stroke="black"/>
<path d="M121.5 237.794L108 230L121.5 222.206V237.794Z" stroke="black"/>
<path d="M121.5 221.794L108 214L121.5 206.206V221.794Z" stroke="black"/>
<path d="M121.5 205.794L108 198L121.5 190.206V205.794Z" stroke="black"/>
<path d="M135.5 213.794L122 206L135.5 198.206V213.794Z" stroke="black"/>
<path d="M135.5 229.794L122 222L135.5 214.206V229.794Z" stroke="black"/>
<path d="M65.5 269.794L52 262L65.5 254.206V269.794Z" stroke="black"/>
<path d="M65.5 253.794L52 246L65.5 238.206V253.794Z" stroke="black"/>
<path d="M65.5 237.794L52 230L65.5 222.206V237.794Z" stroke="black"/>
<path d="M79.5 229.794L66 222L79.5 214.206V229.794Z" stroke="black"/>
<path d="M79.5 229.794L66 222L79.5 214.206V229.794Z" stroke="black"/>
<path d="M79.5 245.794L66 238L79.5 230.206V245.794Z" stroke="black"/>
<path d="M79.5 261.794L66 254L79.5 246.206V261.794Z" stroke="black"/>
<path d="M149.5 221.794L136 214L149.5 206.206V221.794Z" stroke="black"/>
<path d="M149.5 205.794L136 198L149.5 190.206V205.794Z" stroke="black"/>
<path d="M163.5 213.794L150 206L163.5 198.206V213.794Z" stroke="black"/>
<path d="M163.5 229.794L150 222L163.5 214.206V229.794Z" stroke="black"/>
<path d="M233.5 269.794L220 262L233.5 254.206V269.794Z" stroke="black"/>
<path d="M177.5 221.794L164 214L177.5 206.206V221.794Z" stroke="black"/>
<path d="M177.5 205.794L164 198L177.5 190.206V205.794Z" stroke="black"/>
<path d="M191.5 197.794L178 190L191.5 182.206V197.794Z" stroke="black"/>
<path d="M191.5 213.794L178 206L191.5 198.206V213.794Z" stroke="black"/>
<path d="M191.5 229.794L178 222L191.5 214.206V229.794Z" stroke="black"/>
<path d="M219.5 261.794L206 254L219.5 246.206V261.794Z" stroke="black"/>
<path d="M219.5 245.794L206 238L219.5 230.206V245.794Z" stroke="black"/>
<path d="M205.5 253.794L192 246L205.5 238.206V253.794Z" stroke="black"/>
<path d="M205.5 237.794L192 230L205.5 222.206V237.794Z" stroke="black"/>
<path d="M205.5 221.794L192 214L205.5 206.206V221.794Z" stroke="black"/>
<path d="M205.5 205.794L192 198L205.5 190.206V205.794Z" stroke="black"/>
<path d="M205.5 189.794L192 182L205.5 174.206V189.794Z" stroke="black"/>
<path d="M219.5 181.794L206 174L219.5 166.206V181.794Z" stroke="black"/>
<path d="M205.5 253.794L192 246L205.5 238.206V253.794Z" stroke="black"/>
<path d="M219.5 181.794L206 174L219.5 166.206V181.794Z" stroke="black"/>
<path d="M219.5 197.794L206 190L219.5 182.206V197.794Z" stroke="black"/>
<path d="M219.5 213.794L206 206L219.5 198.206V213.794Z" stroke="black"/>
<path d="M219.5 229.794L206 222L219.5 214.206V229.794Z" stroke="black"/>
<path d="M247.5 261.794L234 254L247.5 246.206V261.794Z" stroke="black"/>
<path d="M261.5 269.794L248 262L261.5 254.206V269.794Z" stroke="black"/>
<path d="M275.5 277.794L262 270L275.5 262.206V277.794Z" stroke="black"/>
<path d="M289.5 269.794L276 262L289.5 254.206V269.794Z" stroke="black"/>
<path d="M247.5 245.794L234 238L247.5 230.206V245.794Z" stroke="black"/>
<path d="M233.5 253.794L220 246L233.5 238.206V253.794Z" stroke="black"/>
<path d="M233.5 237.794L220 230L233.5 222.206V237.794Z" stroke="black"/>
<path d="M233.5 221.794L220 214L233.5 206.206V221.794Z" stroke="black"/>
<path d="M233.5 205.794L220 198L233.5 190.206V205.794Z" stroke="black"/>
<path d="M233.5 189.794L220 182L233.5 174.206V189.794Z" stroke="black"/>
<path d="M247.5 181.794L234 174L247.5 166.206V181.794Z" stroke="black"/>
<path d="M233.5 253.794L220 246L233.5 238.206V253.794Z" stroke="black"/>
<path d="M247.5 181.794L234 174L247.5 166.206V181.794Z" stroke="black"/>
<path d="M247.5 197.794L234 190L247.5 182.206V197.794Z" stroke="black"/>
<path d="M247.5 213.794L234 206L247.5 198.206V213.794Z" stroke="black"/>
<path d="M247.5 229.794L234 222L247.5 214.206V229.794Z" stroke="black"/>
<path d="M275.5 261.794L262 254L275.5 246.206V261.794Z" stroke="black"/>
<path d="M275.5 245.794L262 238L275.5 230.206V245.794Z" stroke="black"/>
<path d="M261.5 253.794L248 246L261.5 238.206V253.794Z" stroke="black"/>
<path d="M261.5 237.794L248 230L261.5 222.206V237.794Z" stroke="black"/>
<path d="M261.5 221.794L248 214L261.5 206.206V221.794Z" stroke="black"/>
<path d="M261.5 205.794L248 198L261.5 190.206V205.794Z" stroke="black"/>
<path d="M261.5 189.794L248 182L261.5 174.206V189.794Z" stroke="black"/>
<path d="M275.5 181.794L262 174L275.5 166.206V181.794Z" stroke="black"/>
<path d="M261.5 253.794L248 246L261.5 238.206V253.794Z" stroke="black"/>
<path d="M275.5 181.794L262 174L275.5 166.206V181.794Z" stroke="black"/>
<path d="M275.5 197.794L262 190L275.5 182.206V197.794Z" stroke="black"/>
<path d="M275.5 213.794L262 206L275.5 198.206V213.794Z" stroke="black"/>
<path d="M275.5 229.794L262 222L275.5 214.206V229.794Z" stroke="black"/>
<path d="M303.5 261.794L290 254L303.5 246.206V261.794Z" stroke="black"/>
<path d="M303.5 245.794L290 238L303.5 230.206V245.794Z" stroke="black"/>
<path d="M289.5 253.794L276 246L289.5 238.206V253.794Z" stroke="black"/>
<path d="M289.5 237.794L276 230L289.5 222.206V237.794Z" stroke="black"/>
<path d="M289.5 221.794L276 214L289.5 206.206V221.794Z" stroke="black"/>
<path d="M289.5 205.794L276 198L289.5 190.206V205.794Z" stroke="black"/>
<path d="M289.5 189.794L276 182L289.5 174.206V189.794Z" stroke="black"/>
<path d="M303.5 181.794L290 174L303.5 166.206V181.794Z" stroke="black"/>
<path d="M289.5 253.794L276 246L289.5 238.206V253.794Z" stroke="black"/>
<path d="M303.5 181.794L290 174L303.5 166.206V181.794Z" stroke="black"/>
<path d="M303.5 213.794L290 206L303.5 198.206V213.794Z" stroke="black"/>
<path d="M303.5 229.794L290 222L303.5 214.206V229.794Z" stroke="black"/>
<path d="M247.5 277.794L234 270L247.5 262.206V277.794Z" stroke="black"/>
<path d="M331.5 245.794L318 238L331.5 230.206V245.794Z" stroke="black"/>
<path d="M317.5 253.794L304 246L317.5 238.206V253.794Z" stroke="black"/>
<path d="M317.5 237.794L304 230L317.5 222.206V237.794Z" stroke="black"/>
<path d="M317.5 221.794L304 214L317.5 206.206V221.794Z" stroke="black"/>
<path d="M317.5 205.794L304 198L317.5 190.206V205.794Z" stroke="black"/>
<path d="M317.5 189.794L304 182L317.5 174.206V189.794Z" stroke="black"/>
<path d="M331.5 181.794L318 174L331.5 166.206V181.794Z" stroke="black"/>
<path d="M317.5 253.794L304 246L317.5 238.206V253.794Z" stroke="black"/>
<path d="M331.5 181.794L318 174L331.5 166.206V181.794Z" stroke="black"/>
<path d="M331.5 197.794L318 190L331.5 182.206V197.794Z" stroke="black"/>
<path d="M331.5 213.794L318 206L331.5 198.206V213.794Z" stroke="black"/>
<path d="M331.5 229.794L318 222L331.5 214.206V229.794Z" stroke="black"/>
<path d="M219.5 181.794L206 174L219.5 166.206V181.794Z" stroke="black"/>
<path d="M219.5 165.794L206 158L219.5 150.206V165.794Z" stroke="black"/>
<path d="M205.5 173.794L192 166L205.5 158.206V173.794Z" stroke="black"/>
<path d="M205.5 157.794L192 150L205.5 142.206V157.794Z" stroke="black"/>
<path d="M205.5 141.794L192 134L205.5 126.206V141.794Z" stroke="black"/>
<path d="M205.5 125.794L192 118L205.5 110.206V125.794Z" stroke="black"/>
<path d="M205.5 109.794L192 102L205.5 94.2058V109.794Z" stroke="black"/>
<path d="M219.5 101.794L206 94L219.5 86.2058V101.794Z" stroke="black"/>
<path d="M205.5 173.794L192 166L205.5 158.206V173.794Z" stroke="black"/>
<path d="M219.5 101.794L206 94L219.5 86.2058V101.794Z" stroke="black"/>
<path d="M191.5 53.7942L178 46L191.5 38.2058V53.7942Z" stroke="black"/>
<path d="M205.5 45.7942L192 38L205.5 30.2058V45.7942Z" stroke="black"/>
<path d="M205.5 61.7942L192 54L205.5 46.2058V61.7942Z" stroke="black"/>
<path d="M219.5 53.7942L206 46L219.5 38.2058V53.7942Z" stroke="black"/>
<path d="M191.5 37.7942L178 30L191.5 22.2058V37.7942Z" stroke="black"/>
<path d="M177.5 45.7942L164 38L177.5 30.2058V45.7942Z" stroke="black"/>
<path d="M219.5 69.7942L206 62L219.5 54.2058V69.7942Z" stroke="black"/>
<path d="M135.5 53.7942L122 46L135.5 38.2058V53.7942Z" stroke="black"/>
<path d="M149.5 45.7942L136 38L149.5 30.2058V45.7942Z" stroke="black"/>
<path d="M149.5 61.7942L136 54L149.5 46.2058V61.7942Z" stroke="black"/>
<path d="M163.5 53.7942L150 46L163.5 38.2058V53.7942Z" stroke="black"/>
<path d="M135.5 37.7942L122 30L135.5 22.2058V37.7942Z" stroke="black"/>
<path d="M121.5 45.7942L108 38L121.5 30.2058V45.7942Z" stroke="black"/>
<path d="M163.5 69.7942L150 62L163.5 54.2058V69.7942Z" stroke="black"/>
<path d="M191.5 21.7942L178 14L191.5 6.20577V21.7942Z" stroke="black"/>
<path d="M205.5 13.7942L192 6L205.5 -1.79423V13.7942Z" stroke="black"/>
<path d="M205.5 29.7942L192 22L205.5 14.2058V29.7942Z" stroke="black"/>
<path d="M219.5 21.7942L206 14L219.5 6.20577V21.7942Z" stroke="black"/>
<path d="M191.5 5.79423L178 -2L191.5 -9.79423V5.79423Z" stroke="black"/>
<path d="M177.5 13.7942L164 6L177.5 -1.79423V13.7942Z" stroke="black"/>
<path d="M219.5 37.7942L206 30L219.5 22.2058V37.7942Z" stroke="black"/>
<path d="M135.5 21.7942L122 14L135.5 6.20577V21.7942Z" stroke="black"/>
<path d="M121.5 29.7942L108 22L121.5 14.2058V29.7942Z" stroke="black"/>
<path d="M149.5 13.7942L136 6L149.5 -1.79423V13.7942Z" stroke="black"/>
<path d="M163.5 5.79423L150 -2L163.5 -9.79423V5.79423Z" stroke="black"/>
<path d="M149.5 29.7942L136 22L149.5 14.2058V29.7942Z" stroke="black"/>
<path d="M163.5 21.7942L150 14L163.5 6.20577V21.7942Z" stroke="black"/>
<path d="M163.5 37.7942L150 30L163.5 22.2058V37.7942Z" stroke="black"/>
<path d="M177.5 29.7942L164 22L177.5 14.2058V29.7942Z" stroke="black"/>
<path d="M121.5 61.7942L108 54L121.5 46.2058V61.7942Z" stroke="black"/>
<path d="M121.5 77.7942L108 70L121.5 62.2058V77.7942Z" stroke="black"/>
<path d="M135.5 69.7942L122 62L135.5 54.2058V69.7942Z" stroke="black"/>
<path d="M149.5 77.7942L136 70L149.5 62.2058V77.7942Z" stroke="black"/>
<path d="M177.5 61.7942L164 54L177.5 46.2058V61.7942Z" stroke="black"/>
<path d="M135.5 85.7942L122 78L135.5 70.2058V85.7942Z" stroke="black"/>
<path d="M163.5 101.794L150 94L163.5 86.2058V101.794Z" stroke="black"/>
<path d="M177.5 93.7942L164 86L177.5 78.2058V93.7942Z" stroke="black"/>
<path d="M177.5 109.794L164 102L177.5 94.2058V109.794Z" stroke="black"/>
<path d="M191.5 101.794L178 94L191.5 86.2058V101.794Z" stroke="black"/>
<path d="M163.5 85.7942L150 78L163.5 70.2058V85.7942Z" stroke="black"/>
<path d="M149.5 93.7942L136 86L149.5 78.2058V93.7942Z" stroke="black"/>
<path d="M191.5 117.794L178 110L191.5 102.206V117.794Z" stroke="black"/>
<path d="M219.5 117.794L206 110L219.5 102.206V117.794Z" stroke="black"/>
<path d="M219.5 133.794L206 126L219.5 118.206V133.794Z" stroke="black"/>
<path d="M219.5 149.794L206 142L219.5 134.206V149.794Z" stroke="black"/>
<path d="M247.5 181.794L234 174L247.5 166.206V181.794Z" stroke="black"/>
<path d="M247.5 165.794L234 158L247.5 150.206V165.794Z" stroke="black"/>
<path d="M233.5 173.794L220 166L233.5 158.206V173.794Z" stroke="black"/>
<path d="M233.5 157.794L220 150L233.5 142.206V157.794Z" stroke="black"/>
<path d="M233.5 141.794L220 134L233.5 126.206V141.794Z" stroke="black"/>
<path d="M233.5 125.794L220 118L233.5 110.206V125.794Z" stroke="black"/>
<path d="M233.5 173.794L220 166L233.5 158.206V173.794Z" stroke="black"/>
<path d="M247.5 133.794L234 126L247.5 118.206V133.794Z" stroke="black"/>
<path d="M247.5 149.794L234 142L247.5 134.206V149.794Z" stroke="black"/>
<path d="M233.5 157.794L220 150L233.5 142.206V157.794Z" stroke="black"/>
<path d="M233.5 141.794L220 134L233.5 126.206V141.794Z" stroke="black"/>
<path d="M233.5 125.794L220 118L233.5 110.206V125.794Z" stroke="black"/>
<path d="M233.5 173.794L220 166L233.5 158.206V173.794Z" stroke="black"/>
<path d="M247.5 133.794L234 126L247.5 118.206V133.794Z" stroke="black"/>
<path d="M247.5 149.794L234 142L247.5 134.206V149.794Z" stroke="black"/>
<path d="M275.5 181.794L262 174L275.5 166.206V181.794Z" stroke="black"/>
<path d="M275.5 165.794L262 158L275.5 150.206V165.794Z" stroke="black"/>
<path d="M261.5 173.794L248 166L261.5 158.206V173.794Z" stroke="black"/>
<path d="M261.5 157.794L248 150L261.5 142.206V157.794Z" stroke="black"/>
<path d="M261.5 141.794L248 134L261.5 126.206V141.794Z" stroke="black"/>
<path d="M261.5 173.794L248 166L261.5 158.206V173.794Z" stroke="black"/>
<path d="M275.5 149.794L262 142L275.5 134.206V149.794Z" stroke="black"/>
<path d="M303.5 181.794L290 174L303.5 166.206V181.794Z" stroke="black"/>
<path d="M303.5 165.794L290 158L303.5 150.206V165.794Z" stroke="black"/>
<path d="M289.5 173.794L276 166L289.5 158.206V173.794Z" stroke="black"/>
<path d="M289.5 157.794L276 150L289.5 142.206V157.794Z" stroke="black"/>
<path d="M289.5 141.794L276 134L289.5 126.206V141.794Z" stroke="black"/>
<path d="M289.5 173.794L276 166L289.5 158.206V173.794Z" stroke="black"/>
<path d="M303.5 149.794L290 142L303.5 134.206V149.794Z" stroke="black"/>
<path d="M331.5 181.794L318 174L331.5 166.206V181.794Z" stroke="black"/>
<path d="M317.5 173.794L304 166L317.5 158.206V173.794Z" stroke="black"/>
<path d="M317.5 157.794L304 150L317.5 142.206V157.794Z" stroke="black"/>
<path d="M317.5 173.794L304 166L317.5 158.206V173.794Z" stroke="black"/>
<path d="M303.5 197.794L290 190L303.5 182.206V197.794Z" stroke="black"/>
<path d="M22.3363 262.112C15.3355 263.612 -18.1649 220.112 16.3363 170.112C49.3354 135.112 82.8354 157.112 97.3354 173.612C132.335 213.439 160.335 200.612 172.335 197.612C213.335 176.112 212.335 121.612 199.335 108.612C179.335 91.1116 151.835 93.6116 128.835 84.1117C87.8354 56.1116 122.335 20.6117 134.335 15.6117C171.335 -15.3883 210.335 8.61167 209.335 35.1117C209.335 82.6117 217.335 108.612 222.835 113.112C240.835 130.612 264.835 137.112 280.835 137.112C341.335 154.112 340.835 207.612 324.835 232.612L320.835 240.112C305.835 266.612 261.335 292.612 199.335 235.112C187.835 222.112 144.835 205.112 107.335 232.612C94.8354 240.112 54.8354 274.612 22.3363 262.112Z" stroke="black"/>
</g>
</svg>
