<svg width="420" height="86" viewBox="0 0 420 86" fill="none" xmlns="http://www.w3.org/2000/svg">
<mask id="mask0" mask-type="alpha" maskUnits="userSpaceOnUse" x="-1" y="-1" width="108" height="88">
<path d="M7.0676 83.1795C4.85242 83.6555 -5.74771 69.851 5.16909 53.9839C15.6106 42.8769 26.2106 49.8584 30.7987 55.0946C41.8732 67.7334 50.7329 63.6629 54.5299 62.7108C67.503 55.8879 67.1866 38.5927 63.0732 34.4673C56.7448 28.9136 48.0433 29.707 40.7657 26.6923C27.7927 17.8066 38.709 6.54098 42.506 4.95427C54.2135 -4.88337 66.5537 2.73285 66.2373 11.1425C66.2373 26.2163 68.7687 34.4673 70.509 35.8953C76.2045 41.4488 83.7985 43.5116 88.8612 43.5116C108.004 48.9064 107.846 65.8843 102.784 73.8178L101.518 76.1979C96.7717 84.6075 82.6911 92.8584 63.0732 74.6112C59.4343 70.4857 45.8284 65.0909 33.9627 73.8178C30.0076 76.1979 17.3509 87.1463 7.0676 83.1795Z" fill="#C4C4C4" stroke="black"/>
</mask>
<g mask="url(#mask0)">
<path d="M7.43583 83.0785L3.16418 80.6052L7.43583 78.1318V83.0785Z" stroke="black"/>
<path d="M11.8657 80.5398L7.59402 78.0664L11.8657 75.593V80.5398Z" stroke="black"/>
<path d="M11.8657 85.6173L7.59402 83.1439L11.8657 80.6705V85.6173Z" stroke="black"/>
<path d="M16.2955 83.0785L12.0239 80.6052L16.2955 78.1318V83.0785Z" stroke="black"/>
<path d="M29.5851 80.5398L25.3134 78.0664L29.5851 75.593V80.5398Z" stroke="black"/>
<path d="M7.43583 78.001L3.16418 75.5277L7.43583 73.0543V78.001Z" stroke="black"/>
<path d="M3.00597 80.5398L-1.26567 78.0664L3.00597 75.593V80.5398Z" stroke="black"/>
<path d="M60.594 27.2262L56.3224 24.7528L60.594 22.2793V27.2262Z" stroke="black"/>
<path d="M65.0239 24.6875L60.7522 22.214L65.0239 19.7406V24.6875Z" stroke="black"/>
<path d="M65.0239 29.7649L60.7522 27.2915L65.0239 24.8181V29.7649Z" stroke="black"/>
<path d="M69.4537 27.2262L65.1821 24.7528L69.4537 22.2793V27.2262Z" stroke="black"/>
<path d="M60.594 22.1487L56.3224 19.6753L60.594 17.2018V22.1487Z" stroke="black"/>
<path d="M56.1642 24.6875L51.8925 22.214L56.1642 19.7406V24.6875Z" stroke="black"/>
<path d="M3.00597 75.4623L-1.26567 72.9889L3.00597 70.5156V75.4623Z" stroke="black"/>
<path d="M3.00597 70.3848L-1.26567 67.9114L3.00597 65.4381V70.3848Z" stroke="black"/>
<path d="M3.00597 65.3073L-1.26567 62.834L3.00597 60.3606V65.3073Z" stroke="black"/>
<path d="M3.00597 60.2298L-1.26567 57.7565L3.00597 55.2831V60.2298Z" stroke="black"/>
<path d="M7.43583 57.6911L3.16418 55.2177L7.43583 52.7443V57.6911Z" stroke="black"/>
<path d="M3.00597 80.5398L-1.26567 78.0664L3.00597 75.593V80.5398Z" stroke="black"/>
<path d="M7.43583 57.6911L3.16418 55.2177L7.43583 52.7443V57.6911Z" stroke="black"/>
<path d="M7.43583 62.7686L3.16418 60.2952L7.43583 57.8218V62.7686Z" stroke="black"/>
<path d="M7.43583 67.8461L3.16418 65.3727L7.43583 62.8993V67.8461Z" stroke="black"/>
<path d="M7.43583 72.9236L3.16418 70.4502L7.43583 67.9768V72.9236Z" stroke="black"/>
<path d="M16.2955 78.001L12.0239 75.5277L16.2955 73.0543V78.001Z" stroke="black"/>
<path d="M16.2955 72.9236L12.0239 70.4502L16.2955 67.9768V72.9236Z" stroke="black"/>
<path d="M11.8657 75.4623L7.59402 72.9889L11.8657 70.5156V75.4623Z" stroke="black"/>
<path d="M11.8657 70.3848L7.59402 67.9114L11.8657 65.4381V70.3848Z" stroke="black"/>
<path d="M11.8657 65.3073L7.59402 62.834L11.8657 60.3606V65.3073Z" stroke="black"/>
<path d="M11.8657 60.2298L7.59402 57.7565L11.8657 55.2831V60.2298Z" stroke="black"/>
<path d="M11.8657 55.1523L7.59402 52.679L11.8657 50.2056V55.1523Z" stroke="black"/>
<path d="M7.43583 52.6136L3.16418 50.1402L7.43583 47.6669V52.6136Z" stroke="black"/>
<path d="M11.8657 50.0749L7.59402 47.6015L11.8657 45.1281V50.0749Z" stroke="black"/>
<path d="M16.2955 52.6136L12.0239 50.1402L16.2955 47.6669V52.6136Z" stroke="black"/>
<path d="M11.8657 75.4623L7.59402 72.9889L11.8657 70.5156V75.4623Z" stroke="black"/>
<path d="M16.2955 52.6136L12.0239 50.1402L16.2955 47.6669V52.6136Z" stroke="black"/>
<path d="M16.2955 57.6911L12.0239 55.2177L16.2955 52.7443V57.6911Z" stroke="black"/>
<path d="M16.2955 62.7686L12.0239 60.2952L16.2955 57.8218V62.7686Z" stroke="black"/>
<path d="M16.2955 67.8461L12.0239 65.3727L16.2955 62.8993V67.8461Z" stroke="black"/>
<path d="M25.1552 72.9236L20.8836 70.4502L25.1552 67.9768V72.9236Z" stroke="black"/>
<path d="M25.1552 67.8461L20.8836 65.3727L25.1552 62.8993V67.8461Z" stroke="black"/>
<path d="M20.7254 70.3848L16.4537 67.9114L20.7254 65.4381V70.3848Z" stroke="black"/>
<path d="M20.7254 65.3073L16.4537 62.834L20.7254 60.3606V65.3073Z" stroke="black"/>
<path d="M20.7254 60.2298L16.4537 57.7565L20.7254 55.2831V60.2298Z" stroke="black"/>
<path d="M20.7254 55.1523L16.4537 52.679L20.7254 50.2056V55.1523Z" stroke="black"/>
<path d="M20.7254 50.0749L16.4537 47.6015L20.7254 45.1281V50.0749Z" stroke="black"/>
<path d="M20.7254 70.3848L16.4537 67.9114L20.7254 65.4381V70.3848Z" stroke="black"/>
<path d="M25.1552 52.6136L20.8836 50.1402L25.1552 47.6669V52.6136Z" stroke="black"/>
<path d="M25.1552 57.6911L20.8836 55.2177L25.1552 52.7443V57.6911Z" stroke="black"/>
<path d="M25.1552 62.7686L20.8836 60.2952L25.1552 57.8218V62.7686Z" stroke="black"/>
<path d="M34.0149 78.001L29.7433 75.5277L34.0149 73.0543V78.001Z" stroke="black"/>
<path d="M34.0149 72.9236L29.7433 70.4502L34.0149 67.9768V72.9236Z" stroke="black"/>
<path d="M29.5851 75.4623L25.3134 72.9889L29.5851 70.5156V75.4623Z" stroke="black"/>
<path d="M29.5851 70.3848L25.3134 67.9114L29.5851 65.4381V70.3848Z" stroke="black"/>
<path d="M29.5851 65.3073L25.3134 62.834L29.5851 60.3606V65.3073Z" stroke="black"/>
<path d="M29.5851 60.2298L25.3134 57.7565L29.5851 55.2831V60.2298Z" stroke="black"/>
<path d="M29.5851 55.1523L25.3134 52.679L29.5851 50.2056V55.1523Z" stroke="black"/>
<path d="M29.5851 75.4623L25.3134 72.9889L29.5851 70.5156V75.4623Z" stroke="black"/>
<path d="M34.0149 57.6911L29.7433 55.2177L34.0149 52.7443V57.6911Z" stroke="black"/>
<path d="M34.0149 62.7686L29.7433 60.2952L34.0149 57.8218V62.7686Z" stroke="black"/>
<path d="M34.0149 67.8461L29.7433 65.3727L34.0149 62.8993V67.8461Z" stroke="black"/>
<path d="M38.4448 75.4623L34.1731 72.9889L38.4448 70.5156V75.4623Z" stroke="black"/>
<path d="M38.4448 70.3848L34.1731 67.9114L38.4448 65.4381V70.3848Z" stroke="black"/>
<path d="M38.4448 65.3073L34.1731 62.834L38.4448 60.3606V65.3073Z" stroke="black"/>
<path d="M42.8746 67.8461L38.603 65.3727L42.8746 62.8993V67.8461Z" stroke="black"/>
<path d="M42.8746 72.9236L38.603 70.4502L42.8746 67.9768V72.9236Z" stroke="black"/>
<path d="M20.7254 85.6173L16.4537 83.1439L20.7254 80.6705V85.6173Z" stroke="black"/>
<path d="M20.7254 80.5398L16.4537 78.0664L20.7254 75.593V80.5398Z" stroke="black"/>
<path d="M20.7254 75.4623L16.4537 72.9889L20.7254 70.5156V75.4623Z" stroke="black"/>
<path d="M25.1552 72.9236L20.8836 70.4502L25.1552 67.9768V72.9236Z" stroke="black"/>
<path d="M25.1552 72.9236L20.8836 70.4502L25.1552 67.9768V72.9236Z" stroke="black"/>
<path d="M25.1552 78.001L20.8836 75.5277L25.1552 73.0543V78.001Z" stroke="black"/>
<path d="M25.1552 83.0785L20.8836 80.6052L25.1552 78.1318V83.0785Z" stroke="black"/>
<path d="M47.3045 70.3848L43.0328 67.9114L47.3045 65.4381V70.3848Z" stroke="black"/>
<path d="M47.3045 65.3073L43.0328 62.834L47.3045 60.3606V65.3073Z" stroke="black"/>
<path d="M51.7343 67.8461L47.4627 65.3727L51.7343 62.8993V67.8461Z" stroke="black"/>
<path d="M51.7343 72.9236L47.4627 70.4502L51.7343 67.9768V72.9236Z" stroke="black"/>
<path d="M73.8836 85.6173L69.6119 83.1439L73.8836 80.6705V85.6173Z" stroke="black"/>
<path d="M56.1642 70.3848L51.8925 67.9114L56.1642 65.4381V70.3848Z" stroke="black"/>
<path d="M56.1642 65.3073L51.8925 62.834L56.1642 60.3606V65.3073Z" stroke="black"/>
<path d="M60.594 62.7686L56.3224 60.2952L60.594 57.8218V62.7686Z" stroke="black"/>
<path d="M60.594 67.8461L56.3224 65.3727L60.594 62.8993V67.8461Z" stroke="black"/>
<path d="M60.594 72.9236L56.3224 70.4502L60.594 67.9768V72.9236Z" stroke="black"/>
<path d="M69.4537 83.0785L65.1821 80.6052L69.4537 78.1318V83.0785Z" stroke="black"/>
<path d="M69.4537 78.001L65.1821 75.5277L69.4537 73.0543V78.001Z" stroke="black"/>
<path d="M65.0239 80.5398L60.7522 78.0664L65.0239 75.593V80.5398Z" stroke="black"/>
<path d="M65.0239 75.4623L60.7522 72.9889L65.0239 70.5156V75.4623Z" stroke="black"/>
<path d="M65.0239 70.3848L60.7522 67.9114L65.0239 65.4381V70.3848Z" stroke="black"/>
<path d="M65.0239 65.3073L60.7522 62.834L65.0239 60.3606V65.3073Z" stroke="black"/>
<path d="M65.0239 60.2298L60.7522 57.7565L65.0239 55.2831V60.2298Z" stroke="black"/>
<path d="M69.4537 57.6911L65.1821 55.2177L69.4537 52.7443V57.6911Z" stroke="black"/>
<path d="M65.0239 80.5398L60.7522 78.0664L65.0239 75.593V80.5398Z" stroke="black"/>
<path d="M69.4537 57.6911L65.1821 55.2177L69.4537 52.7443V57.6911Z" stroke="black"/>
<path d="M69.4537 62.7686L65.1821 60.2952L69.4537 57.8218V62.7686Z" stroke="black"/>
<path d="M69.4537 67.8461L65.1821 65.3727L69.4537 62.8993V67.8461Z" stroke="black"/>
<path d="M69.4537 72.9236L65.1821 70.4502L69.4537 67.9768V72.9236Z" stroke="black"/>
<path d="M78.3134 83.0785L74.0418 80.6052L78.3134 78.1318V83.0785Z" stroke="black"/>
<path d="M82.7433 85.6173L78.4716 83.1439L82.7433 80.6705V85.6173Z" stroke="black"/>
<path d="M87.1731 88.156L82.9015 85.6826L87.1731 83.2093V88.156Z" stroke="black"/>
<path d="M91.603 85.6173L87.3313 83.1439L91.603 80.6705V85.6173Z" stroke="black"/>
<path d="M78.3134 78.001L74.0418 75.5277L78.3134 73.0543V78.001Z" stroke="black"/>
<path d="M73.8836 80.5398L69.6119 78.0664L73.8836 75.593V80.5398Z" stroke="black"/>
<path d="M73.8836 75.4623L69.6119 72.9889L73.8836 70.5156V75.4623Z" stroke="black"/>
<path d="M73.8836 70.3848L69.6119 67.9114L73.8836 65.4381V70.3848Z" stroke="black"/>
<path d="M73.8836 65.3073L69.6119 62.834L73.8836 60.3606V65.3073Z" stroke="black"/>
<path d="M73.8836 60.2298L69.6119 57.7565L73.8836 55.2831V60.2298Z" stroke="black"/>
<path d="M78.3134 57.6911L74.0418 55.2177L78.3134 52.7443V57.6911Z" stroke="black"/>
<path d="M73.8836 80.5398L69.6119 78.0664L73.8836 75.593V80.5398Z" stroke="black"/>
<path d="M78.3134 57.6911L74.0418 55.2177L78.3134 52.7443V57.6911Z" stroke="black"/>
<path d="M78.3134 62.7686L74.0418 60.2952L78.3134 57.8218V62.7686Z" stroke="black"/>
<path d="M78.3134 67.8461L74.0418 65.3727L78.3134 62.8993V67.8461Z" stroke="black"/>
<path d="M78.3134 72.9236L74.0418 70.4502L78.3134 67.9768V72.9236Z" stroke="black"/>
<path d="M87.1731 83.0785L82.9015 80.6052L87.1731 78.1318V83.0785Z" stroke="black"/>
<path d="M87.1731 78.001L82.9015 75.5277L87.1731 73.0543V78.001Z" stroke="black"/>
<path d="M82.7433 80.5398L78.4716 78.0664L82.7433 75.593V80.5398Z" stroke="black"/>
<path d="M82.7433 75.4623L78.4716 72.9889L82.7433 70.5156V75.4623Z" stroke="black"/>
<path d="M82.7433 70.3848L78.4716 67.9114L82.7433 65.4381V70.3848Z" stroke="black"/>
<path d="M82.7433 65.3073L78.4716 62.834L82.7433 60.3606V65.3073Z" stroke="black"/>
<path d="M82.7433 60.2298L78.4716 57.7565L82.7433 55.2831V60.2298Z" stroke="black"/>
<path d="M87.1731 57.6911L82.9015 55.2177L87.1731 52.7443V57.6911Z" stroke="black"/>
<path d="M82.7433 80.5398L78.4716 78.0664L82.7433 75.593V80.5398Z" stroke="black"/>
<path d="M87.1731 57.6911L82.9015 55.2177L87.1731 52.7443V57.6911Z" stroke="black"/>
<path d="M87.1731 62.7686L82.9015 60.2952L87.1731 57.8218V62.7686Z" stroke="black"/>
<path d="M87.1731 67.8461L82.9015 65.3727L87.1731 62.8993V67.8461Z" stroke="black"/>
<path d="M87.1731 72.9236L82.9015 70.4502L87.1731 67.9768V72.9236Z" stroke="black"/>
<path d="M96.0328 83.0785L91.7612 80.6052L96.0328 78.1318V83.0785Z" stroke="black"/>
<path d="M96.0328 78.001L91.7612 75.5277L96.0328 73.0543V78.001Z" stroke="black"/>
<path d="M91.603 80.5398L87.3313 78.0664L91.603 75.593V80.5398Z" stroke="black"/>
<path d="M91.603 75.4623L87.3313 72.9889L91.603 70.5156V75.4623Z" stroke="black"/>
<path d="M91.603 70.3848L87.3313 67.9114L91.603 65.4381V70.3848Z" stroke="black"/>
<path d="M91.603 65.3073L87.3313 62.834L91.603 60.3606V65.3073Z" stroke="black"/>
<path d="M91.603 60.2298L87.3313 57.7565L91.603 55.2831V60.2298Z" stroke="black"/>
<path d="M96.0328 57.6911L91.7612 55.2177L96.0328 52.7443V57.6911Z" stroke="black"/>
<path d="M91.603 80.5398L87.3313 78.0664L91.603 75.593V80.5398Z" stroke="black"/>
<path d="M96.0328 57.6911L91.7612 55.2177L96.0328 52.7443V57.6911Z" stroke="black"/>
<path d="M96.0328 67.8461L91.7612 65.3727L96.0328 62.8993V67.8461Z" stroke="black"/>
<path d="M96.0328 72.9236L91.7612 70.4502L96.0328 67.9768V72.9236Z" stroke="black"/>
<path d="M78.3134 88.156L74.0418 85.6826L78.3134 83.2093V88.156Z" stroke="black"/>
<path d="M104.893 78.001L100.621 75.5277L104.893 73.0543V78.001Z" stroke="black"/>
<path d="M100.463 80.5398L96.191 78.0664L100.463 75.593V80.5398Z" stroke="black"/>
<path d="M100.463 75.4623L96.191 72.9889L100.463 70.5156V75.4623Z" stroke="black"/>
<path d="M100.463 70.3848L96.191 67.9114L100.463 65.4381V70.3848Z" stroke="black"/>
<path d="M100.463 65.3073L96.191 62.834L100.463 60.3606V65.3073Z" stroke="black"/>
<path d="M100.463 60.2298L96.191 57.7565L100.463 55.2831V60.2298Z" stroke="black"/>
<path d="M104.893 57.6911L100.621 55.2177L104.893 52.7443V57.6911Z" stroke="black"/>
<path d="M100.463 80.5398L96.191 78.0664L100.463 75.593V80.5398Z" stroke="black"/>
<path d="M104.893 57.6911L100.621 55.2177L104.893 52.7443V57.6911Z" stroke="black"/>
<path d="M104.893 62.7686L100.621 60.2952L104.893 57.8218V62.7686Z" stroke="black"/>
<path d="M104.893 67.8461L100.621 65.3727L104.893 62.8993V67.8461Z" stroke="black"/>
<path d="M104.893 72.9236L100.621 70.4502L104.893 67.9768V72.9236Z" stroke="black"/>
<path d="M69.4537 57.6911L65.1821 55.2177L69.4537 52.7443V57.6911Z" stroke="black"/>
<path d="M69.4537 52.6136L65.1821 50.1402L69.4537 47.6669V52.6136Z" stroke="black"/>
<path d="M65.0239 55.1523L60.7522 52.679L65.0239 50.2056V55.1523Z" stroke="black"/>
<path d="M65.0239 50.0749L60.7522 47.6015L65.0239 45.1281V50.0749Z" stroke="black"/>
<path d="M65.0239 44.9974L60.7522 42.524L65.0239 40.0506V44.9974Z" stroke="black"/>
<path d="M65.0239 39.9199L60.7522 37.4465L65.0239 34.9731V39.9199Z" stroke="black"/>
<path d="M65.0239 34.8424L60.7522 32.369L65.0239 29.8956V34.8424Z" stroke="black"/>
<path d="M69.4537 32.3036L65.1821 29.8303L69.4537 27.3568V32.3036Z" stroke="black"/>
<path d="M65.0239 55.1523L60.7522 52.679L65.0239 50.2056V55.1523Z" stroke="black"/>
<path d="M69.4537 32.3036L65.1821 29.8303L69.4537 27.3568V32.3036Z" stroke="black"/>
<path d="M60.594 17.0712L56.3224 14.5978L60.594 12.1244V17.0712Z" stroke="black"/>
<path d="M65.0239 14.5325L60.7522 12.059L65.0239 9.58561V14.5325Z" stroke="black"/>
<path d="M65.0239 19.61L60.7522 17.1365L65.0239 14.6631V19.61Z" stroke="black"/>
<path d="M69.4537 17.0712L65.1821 14.5978L69.4537 12.1244V17.0712Z" stroke="black"/>
<path d="M60.594 11.9937L56.3224 9.5203L60.594 7.04686V11.9937Z" stroke="black"/>
<path d="M56.1642 14.5325L51.8925 12.059L56.1642 9.58561V14.5325Z" stroke="black"/>
<path d="M69.4537 22.1487L65.1821 19.6753L69.4537 17.2018V22.1487Z" stroke="black"/>
<path d="M42.8746 17.0712L38.603 14.5978L42.8746 12.1244V17.0712Z" stroke="black"/>
<path d="M47.3045 14.5325L43.0328 12.059L47.3045 9.58561V14.5325Z" stroke="black"/>
<path d="M47.3045 19.61L43.0328 17.1365L47.3045 14.6631V19.61Z" stroke="black"/>
<path d="M51.7343 17.0712L47.4627 14.5978L51.7343 12.1244V17.0712Z" stroke="black"/>
<path d="M42.8746 11.9937L38.603 9.5203L42.8746 7.04686V11.9937Z" stroke="black"/>
<path d="M38.4448 14.5325L34.1731 12.059L38.4448 9.58561V14.5325Z" stroke="black"/>
<path d="M51.7343 22.1487L47.4627 19.6753L51.7343 17.2018V22.1487Z" stroke="black"/>
<path d="M60.594 6.91624L56.3224 4.44281L60.594 1.96936V6.91624Z" stroke="black"/>
<path d="M65.0239 4.3775L60.7522 1.90406L65.0239 -0.569386V4.3775Z" stroke="black"/>
<path d="M65.0239 9.45499L60.7522 6.98155L65.0239 4.50811V9.45499Z" stroke="black"/>
<path d="M69.4537 6.91624L65.1821 4.44281L69.4537 1.96936V6.91624Z" stroke="black"/>
<path d="M60.594 1.83876L56.3224 -0.634686L60.594 -3.10813V1.83876Z" stroke="black"/>
<path d="M56.1642 4.3775L51.8925 1.90406L56.1642 -0.569386V4.3775Z" stroke="black"/>
<path d="M69.4537 11.9937L65.1821 9.5203L69.4537 7.04686V11.9937Z" stroke="black"/>
<path d="M42.8746 6.91624L38.603 4.44281L42.8746 1.96936V6.91624Z" stroke="black"/>
<path d="M38.4448 9.45499L34.1731 6.98155L38.4448 4.50811V9.45499Z" stroke="black"/>
<path d="M47.3045 4.3775L43.0328 1.90406L47.3045 -0.569386V4.3775Z" stroke="black"/>
<path d="M51.7343 1.83876L47.4627 -0.634686L51.7343 -3.10813V1.83876Z" stroke="black"/>
<path d="M47.3045 9.45499L43.0328 6.98155L47.3045 4.50811V9.45499Z" stroke="black"/>
<path d="M51.7343 6.91624L47.4627 4.44281L51.7343 1.96936V6.91624Z" stroke="black"/>
<path d="M51.7343 11.9937L47.4627 9.5203L51.7343 7.04686V11.9937Z" stroke="black"/>
<path d="M56.1642 9.45499L51.8925 6.98155L56.1642 4.50811V9.45499Z" stroke="black"/>
<path d="M38.4448 19.61L34.1731 17.1365L38.4448 14.6631V19.61Z" stroke="black"/>
<path d="M38.4448 24.6875L34.1731 22.214L38.4448 19.7406V24.6875Z" stroke="black"/>
<path d="M42.8746 22.1487L38.603 19.6753L42.8746 17.2018V22.1487Z" stroke="black"/>
<path d="M47.3045 24.6875L43.0328 22.214L47.3045 19.7406V24.6875Z" stroke="black"/>
<path d="M56.1642 19.61L51.8925 17.1365L56.1642 14.6631V19.61Z" stroke="black"/>
<path d="M42.8746 27.2262L38.603 24.7528L42.8746 22.2793V27.2262Z" stroke="black"/>
<path d="M51.7343 32.3036L47.4627 29.8303L51.7343 27.3568V32.3036Z" stroke="black"/>
<path d="M56.1642 29.7649L51.8925 27.2915L56.1642 24.8181V29.7649Z" stroke="black"/>
<path d="M56.1642 34.8424L51.8925 32.369L56.1642 29.8956V34.8424Z" stroke="black"/>
<path d="M60.594 32.3036L56.3224 29.8303L60.594 27.3568V32.3036Z" stroke="black"/>
<path d="M51.7343 27.2262L47.4627 24.7528L51.7343 22.2793V27.2262Z" stroke="black"/>
<path d="M47.3045 29.7649L43.0328 27.2915L47.3045 24.8181V29.7649Z" stroke="black"/>
<path d="M60.594 37.3811L56.3224 34.9078L60.594 32.4344V37.3811Z" stroke="black"/>
<path d="M69.4537 37.3811L65.1821 34.9078L69.4537 32.4344V37.3811Z" stroke="black"/>
<path d="M69.4537 42.4586L65.1821 39.9852L69.4537 37.5119V42.4586Z" stroke="black"/>
<path d="M69.4537 47.5361L65.1821 45.0627L69.4537 42.5894V47.5361Z" stroke="black"/>
<path d="M78.3134 57.6911L74.0418 55.2177L78.3134 52.7443V57.6911Z" stroke="black"/>
<path d="M78.3134 52.6136L74.0418 50.1402L78.3134 47.6669V52.6136Z" stroke="black"/>
<path d="M73.8836 55.1523L69.6119 52.679L73.8836 50.2056V55.1523Z" stroke="black"/>
<path d="M73.8836 50.0749L69.6119 47.6015L73.8836 45.1281V50.0749Z" stroke="black"/>
<path d="M73.8836 44.9974L69.6119 42.524L73.8836 40.0506V44.9974Z" stroke="black"/>
<path d="M73.8836 39.9199L69.6119 37.4465L73.8836 34.9731V39.9199Z" stroke="black"/>
<path d="M73.8836 55.1523L69.6119 52.679L73.8836 50.2056V55.1523Z" stroke="black"/>
<path d="M78.3134 42.4586L74.0418 39.9852L78.3134 37.5119V42.4586Z" stroke="black"/>
<path d="M78.3134 47.5361L74.0418 45.0627L78.3134 42.5894V47.5361Z" stroke="black"/>
<path d="M73.8836 50.0749L69.6119 47.6015L73.8836 45.1281V50.0749Z" stroke="black"/>
<path d="M73.8836 44.9974L69.6119 42.524L73.8836 40.0506V44.9974Z" stroke="black"/>
<path d="M73.8836 39.9199L69.6119 37.4465L73.8836 34.9731V39.9199Z" stroke="black"/>
<path d="M73.8836 55.1523L69.6119 52.679L73.8836 50.2056V55.1523Z" stroke="black"/>
<path d="M78.3134 42.4586L74.0418 39.9852L78.3134 37.5119V42.4586Z" stroke="black"/>
<path d="M78.3134 47.5361L74.0418 45.0627L78.3134 42.5894V47.5361Z" stroke="black"/>
<path d="M87.1731 57.6911L82.9015 55.2177L87.1731 52.7443V57.6911Z" stroke="black"/>
<path d="M87.1731 52.6136L82.9015 50.1402L87.1731 47.6669V52.6136Z" stroke="black"/>
<path d="M82.7433 55.1523L78.4716 52.679L82.7433 50.2056V55.1523Z" stroke="black"/>
<path d="M82.7433 50.0749L78.4716 47.6015L82.7433 45.1281V50.0749Z" stroke="black"/>
<path d="M82.7433 44.9974L78.4716 42.524L82.7433 40.0506V44.9974Z" stroke="black"/>
<path d="M82.7433 55.1523L78.4716 52.679L82.7433 50.2056V55.1523Z" stroke="black"/>
<path d="M87.1731 47.5361L82.9015 45.0627L87.1731 42.5894V47.5361Z" stroke="black"/>
<path d="M96.0328 57.6911L91.7612 55.2177L96.0328 52.7443V57.6911Z" stroke="black"/>
<path d="M96.0328 52.6136L91.7612 50.1402L96.0328 47.6669V52.6136Z" stroke="black"/>
<path d="M91.603 55.1523L87.3313 52.679L91.603 50.2056V55.1523Z" stroke="black"/>
<path d="M91.603 50.0749L87.3313 47.6015L91.603 45.1281V50.0749Z" stroke="black"/>
<path d="M91.603 44.9974L87.3313 42.524L91.603 40.0506V44.9974Z" stroke="black"/>
<path d="M91.603 55.1523L87.3313 52.679L91.603 50.2056V55.1523Z" stroke="black"/>
<path d="M96.0328 47.5361L91.7612 45.0627L96.0328 42.5894V47.5361Z" stroke="black"/>
<path d="M104.893 57.6911L100.621 55.2177L104.893 52.7443V57.6911Z" stroke="black"/>
<path d="M100.463 55.1523L96.191 52.679L100.463 50.2056V55.1523Z" stroke="black"/>
<path d="M100.463 50.0749L96.191 47.6015L100.463 45.1281V50.0749Z" stroke="black"/>
<path d="M100.463 55.1523L96.191 52.679L100.463 50.2056V55.1523Z" stroke="black"/>
<path d="M96.0328 62.7686L91.7612 60.2952L96.0328 57.8218V62.7686Z" stroke="black"/>
<path d="M7.06761 83.1794C4.85243 83.6555 -5.74769 69.851 5.16911 53.9839C15.6106 42.8769 26.2106 49.8584 30.7987 55.0946C41.8732 67.7334 50.7329 63.6628 54.5299 62.7108C67.503 55.8879 67.1866 38.5927 63.0732 34.4673C56.7448 28.9136 48.0433 29.707 40.7657 26.6923C27.7927 17.8066 38.709 6.54098 42.506 4.95427C54.2135 -4.88337 66.5538 2.73285 66.2373 11.1425C66.2373 26.2163 68.7687 34.4673 70.509 35.8953C76.2045 41.4488 83.7985 43.5115 88.8612 43.5115C108.005 48.9064 107.846 65.8842 102.784 73.8178L101.518 76.1979C96.7717 84.6075 82.6911 92.8584 63.0732 74.6112C59.4344 70.4857 45.8284 65.0909 33.9627 73.8178C30.0076 76.1979 17.3509 87.1462 7.06761 83.1794Z" stroke="black"/>
</g>
<g filter="url(#filter0_d)">
<rect x="310" y="11" width="105" height="65" stroke="black"/>
</g>
<defs>
<filter id="filter0_d" x="305.5" y="10.5" width="114" height="74" filterUnits="userSpaceOnUse" color-interpolation-filters="sRGB">
<feFlood flood-opacity="0" result="BackgroundImageFix"/>
<feColorMatrix in="SourceAlpha" type="matrix" values="0 0 0 0 0 0 0 0 0 0 0 0 0 0 0 0 0 0 127 0"/>
<feOffset dy="4"/>
<feGaussianBlur stdDeviation="2"/>
<feColorMatrix type="matrix" values="0 0 0 0 0 0 0 0 0 0 0 0 0 0 0 0 0 0 0.25 0"/>
<feBlend mode="normal" in2="BackgroundImageFix" result="effect1_dropShadow"/>
<feBlend mode="normal" in="SourceGraphic" in2="effect1_dropShadow" result="shape"/>
</filter>
</defs>
</svg>
