<svg id="Layer_3" enable-background="new 0 0 64 64" height="512" viewBox="0 0 64 64" width="512" xmlns="http://www.w3.org/2000/svg"><g><path d="m46 19v-2h-10.16c-.975-6.773-6.801-12-13.84-12-7.72 0-14 6.28-14 14s6.28 14 14 14 14-6.28 14-14zm-23 2.414 6.741 6.741c-1.852 1.569-4.183 2.582-6.741 2.795zm-2-4.828-6.741-6.741c1.853-1.568 4.183-2.582 6.741-2.794zm-8.155-5.327 6.741 6.741h-9.535c.212-2.558 1.226-4.888 2.794-6.741zm-2.794 8.741h10.949v10.949c-5.819-.483-10.466-5.13-10.949-10.949zm21.104 6.741-8.155-8.155v-11.535c5.481.455 9.917 4.605 10.819 9.949h-.819c-.265 0-.52.105-.707.293l-4 4 1.414 1.414 3.707-3.707h.586c0 2.949-1.074 5.649-2.845 7.741z"/><path d="m38 21h8v2h-8z"/><path d="m61 37c0-6.28-4.851-11.438-11-11.949v-13.051c0-.266-.105-.52-.293-.707l-10-10c-.187-.188-.442-.293-.707-.293h-34c-.552 0-1 .447-1 1v60c0 .553.448 1 1 1h37v-2h-36v-58h32v9c0 .553.448 1 1 1h9v12.051c-6.149.511-11 5.669-11 11.949 0 5.58 3.833 10.268 9 11.605v2.395h-1c-.552 0-1 .447-1 1v11h2v-10h6v10h2v-11c0-.553-.448-1-1-1h-1v-2.395c5.167-1.337 9-6.025 9-11.605zm-21-32.586 6.586 6.586h-6.586zm-1 32.586c0-5.514 4.486-10 10-10s10 4.486 10 10-4.486 10-10 10-10-4.486-10-10zm11 14h-2v-2.051c.331.028.662.051 1 .051s.669-.023 1-.051z"/><path d="m58 37c0-4.963-4.038-9-9-9s-9 4.037-9 9 4.038 9 9 9 9-4.037 9-9zm-16 0c0-3.859 3.14-7 7-7s7 3.141 7 7-3.14 7-7 7-7-3.141-7-7z"/><path d="m8 57h2v2h-2z"/><path d="m12 57h23v2h-23z"/><path d="m8 53h2v2h-2z"/><path d="m12 53h23v2h-23z"/><path d="m8 49h2v2h-2z"/><path d="m12 49h23v2h-23z"/><path d="m8 45h2v2h-2z"/><path d="m12 45h23v2h-23z"/><path d="m8 41h2v2h-2z"/><path d="m12 41h23v2h-23z"/></g></svg>