<?xml version="1.0" standalone="no"?>
<!DOCTYPE svg PUBLIC "-//W3C//DTD SVG 20010904//EN"
 "http://www.w3.org/TR/2001/REC-SVG-20010904/DTD/svg10.dtd">
<svg version="1.0" xmlns="http://www.w3.org/2000/svg"
 width="1000.000000pt" height="1000.000000pt" viewBox="0 0 1000.000000 1000.000000"
 preserveAspectRatio="xMidYMid meet">
<metadata>
Created by potrace 1.16, written by Peter Selinger 2001-2019
</metadata>
<g transform="translate(0.000000,1000.000000) scale(0.100000,-0.100000)"
fill="#fff" stroke="none">
<path d="M6497 9389 c-427 -27 -913 -166 -1356 -389 -560 -280 -1085 -670
-1655 -1230 -929 -912 -1570 -1836 -1949 -2810 -234 -602 -357 -1245 -358
-1875 -2 -975 344 -1647 1096 -2127 344 -219 683 -349 1091 -420 114 -19 165
-22 429 -22 264 0 318 2 450 23 363 55 716 152 1085 298 251 99 595 270 780
387 325 206 585 411 815 641 199 199 309 359 346 504 23 88 24 143 4 235 -24
115 -92 203 -190 248 -39 17 -69 22 -137 23 -84 0 -88 -1 -190 -53 -58 -29
-187 -106 -288 -171 l-183 -118 -45 13 c-55 17 -144 18 -228 2 -62 -11 -63
-12 -80 -56 -28 -74 -76 -113 -194 -157 -58 -21 -134 -52 -170 -69 -118 -55
-224 -39 -309 47 -32 31 -38 33 -71 26 -53 -12 -103 -35 -123 -57 -14 -15 -16
-30 -11 -90 9 -94 0 -130 -43 -194 -87 -129 -169 -188 -332 -236 -86 -25 -143
-35 -222 -39 -138 -7 -192 10 -254 80 -42 48 -42 48 -82 38 -40 -11 -88 -47
-183 -137 l-55 -52 -105 8 c-306 24 -562 113 -767 267 -189 142 -374 398 -458
631 -73 204 -100 381 -99 647 1 390 69 760 218 1190 242 698 706 1493 1261
2160 547 658 1291 1267 1930 1580 320 157 561 225 794 225 139 0 199 -17 254
-73 51 -51 75 -114 87 -230 15 -150 -9 -318 -106 -732 -47 -202 -58 -283 -59
-425 0 -165 16 -232 80 -329 19 -29 35 -54 35 -56 0 -1 -30 -15 -67 -30 -82
-32 -188 -100 -254 -162 -49 -45 -49 -46 -70 -27 -50 45 -45 74 13 74 33 0 63
39 53 70 -13 41 -45 51 -122 40 -38 -5 -89 -18 -114 -30 -24 -11 -51 -20 -59
-20 -8 0 -53 39 -101 86 l-86 86 14 48 c13 46 13 52 -9 106 -30 75 -79 115
-147 122 -72 7 -117 -5 -157 -40 -50 -44 -66 -80 -65 -151 0 -107 68 -175 185
-186 l61 -6 74 -109 73 -109 -15 -33 c-17 -36 -57 -185 -57 -214 0 -23 48 -70
71 -70 26 0 59 48 59 86 0 22 5 34 13 34 7 0 55 -42 105 -94 82 -83 92 -97 92
-130 0 -46 36 -177 66 -242 21 -44 22 -55 13 -83 -7 -20 -10 -67 -7 -120 6
-99 36 -183 92 -260 35 -47 36 -52 36 -134 0 -71 -3 -87 -19 -98 -10 -8 -74
-59 -142 -114 -218 -177 -419 -320 -569 -404 -64 -36 -62 -36 105 -21 205 19
409 78 594 172 30 16 59 28 65 28 6 0 25 -24 41 -52 73 -125 217 -280 310
-332 47 -26 48 -26 272 -26 220 0 225 0 274 25 60 31 179 142 234 219 43 60
60 68 71 34 13 -44 94 -159 151 -216 l58 -57 5 150 c3 83 8 155 12 161 6 8 26
5 70 -13 34 -14 67 -26 72 -28 6 -1 18 -4 26 -7 80 -29 339 -69 445 -68 30 0
30 0 -10 20 -80 39 -370 237 -464 317 l-34 29 18 55 c10 29 22 59 27 65 5 7
16 63 25 126 16 108 16 126 0 284 -17 164 -37 277 -91 514 l-26 114 92 93 c51
51 97 91 103 89 5 -2 9 -17 8 -33 -2 -22 5 -38 23 -57 33 -32 54 -33 82 -3 33
35 27 110 -19 234 l-22 61 73 111 74 111 48 0 c61 0 104 18 144 61 79 85 69
215 -22 284 -33 25 -50 30 -109 33 -62 3 -74 0 -112 -24 -70 -46 -105 -134
-84 -210 l11 -39 -87 -87 c-48 -49 -93 -88 -100 -88 -7 0 -32 9 -56 20 -55 25
-168 43 -200 31 -60 -23 -44 -111 21 -111 51 0 58 -14 26 -54 -16 -20 -33 -36
-37 -36 -5 0 -27 18 -50 39 -73 68 -136 112 -214 148 l-75 35 63 39 c234 143
393 341 448 554 70 274 93 904 43 1135 -67 304 -218 566 -450 780 -243 224
-544 350 -912 380 -129 11 -189 11 -373 -1z m611 -2988 c69 -35 151 -44 253
-26 50 8 104 22 121 31 28 14 35 14 115 -11 110 -35 234 -108 301 -178 28 -31
52 -59 52 -62 0 -7 -29 1 -79 23 -20 9 -38 16 -41 17 -3 0 -9 3 -15 7 -5 3
-37 14 -70 23 -54 15 -88 22 -265 55 -113 20 -534 -8 -575 -40 -5 -4 -32 -13
-60 -19 -27 -7 -63 -19 -80 -26 -39 -19 -115 -45 -115 -41 0 2 16 24 36 48 41
48 119 110 178 140 31 16 187 75 204 78 1 0 20 -9 40 -19z m902 -649 c0 -17
-58 -142 -81 -173 -10 -13 -8 -22 8 -45 29 -41 33 -66 22 -141 -12 -83 -40
-141 -99 -203 -53 -56 -108 -88 -170 -98 l-45 -8 -5 -169 c-3 -94 -9 -178 -14
-188 -5 -10 -20 -23 -33 -28 -13 -5 -150 -9 -303 -9 -258 0 -279 1 -301 19
-23 19 -24 25 -29 197 l-5 179 -45 7 c-118 18 -213 106 -260 242 -28 82 -26
148 4 193 l25 36 -25 38 c-37 59 -76 148 -69 159 4 6 267 10 716 10 673 0 709
-1 709 -18z m-1178 -776 c4 -6 8 -64 8 -129 0 -158 24 -213 110 -257 41 -21
36 -20 100 -20 l49 0 3 -67 3 -68 60 0 60 0 3 68 3 68 67 -3 67 -3 5 -65 5
-65 58 -3 57 -3 0 65 c0 36 4 67 8 70 5 3 33 6 63 7 70 3 125 32 163 87 30 42
31 46 34 183 4 138 5 141 29 150 13 5 29 9 34 9 5 0 9 -65 9 -152 0 -142 -2
-157 -25 -207 -51 -109 -232 -316 -298 -340 -16 -6 -109 -11 -216 -11 l-188 0
-45 30 c-87 58 -226 227 -273 334 -23 52 -25 69 -25 202 l0 146 33 -7 c17 -4
35 -13 39 -19z"/>
<path d="M6874 5609 c-24 -6 -53 -22 -70 -40 -27 -28 -29 -36 -28 -103 2 -88
33 -157 91 -196 31 -21 50 -26 130 -28 108 -4 139 5 183 54 79 91 56 261 -43
307 -39 19 -190 22 -263 6z"/>
<path d="M7455 5602 c-58 -37 -85 -89 -85 -166 0 -66 17 -109 60 -151 l41 -40
109 0 c104 0 110 1 151 30 50 36 76 81 91 163 10 53 9 64 -9 98 -31 60 -76 77
-213 82 -100 3 -119 1 -145 -16z"/>
<path d="M7215 5188 c-68 -59 -125 -218 -104 -292 14 -51 67 -77 106 -53 25
16 102 19 139 6 22 -7 46 -13 54 -14 27 -1 71 29 77 53 15 61 -27 205 -78 271
-55 70 -135 82 -194 29z"/>
<path d="M4179 5258 c-54 -5 -115 -21 -212 -57 -76 -28 -143 -51 -150 -51 -25
0 -142 -43 -177 -66 -76 -48 -144 -140 -185 -249 -23 -59 -24 -74 -21 -241 3
-202 24 -338 92 -599 62 -240 391 -1110 544 -1440 10 -22 44 -96 75 -165 87
-190 203 -415 223 -432 25 -22 77 -27 165 -18 92 11 150 35 207 86 85 76 102
175 54 299 -52 136 -104 318 -104 365 0 17 4 40 10 50 19 35 94 68 219 94 157
33 300 81 435 145 58 28 108 51 111 51 31 0 -47 -142 -103 -188 -80 -66 -90
-131 -42 -263 44 -122 85 -157 168 -144 59 9 222 88 257 125 24 25 27 35 23
72 -3 24 -26 95 -51 158 -32 83 -47 136 -51 190 -4 41 -11 102 -16 135 -5 33
-11 78 -15 100 -40 275 -136 581 -266 851 -21 44 -39 85 -39 92 0 14 -28 42
-44 42 -7 0 -39 -21 -72 -46 -32 -26 -90 -66 -129 -91 -38 -25 -81 -53 -95
-62 -50 -35 -177 -101 -255 -132 -187 -74 -401 -71 -549 9 -116 63 -237 220
-305 396 -107 278 -105 371 9 487 91 91 299 206 525 289 211 78 216 80 213
102 -3 19 -59 47 -171 84 -64 21 -183 31 -278 22z"/>
<path d="M4760 4959 c-118 -13 -259 -58 -377 -121 -28 -15 -112 -65 -185 -112
l-133 -84 -13 -54 c-16 -70 -15 -111 3 -199 33 -155 104 -234 265 -294 64 -24
91 -28 180 -29 228 -1 437 96 652 302 119 114 150 170 150 264 -1 117 -73 232
-175 281 -92 43 -232 61 -367 46z m217 -60 c65 -25 91 -79 58 -125 -18 -27
-112 -60 -338 -119 -160 -42 -181 -46 -209 -34 -32 13 -58 59 -58 103 0 75
154 153 340 173 30 3 57 7 59 9 9 9 121 3 148 -7z"/>
<path d="M3245 3892 c-75 -25 -125 -90 -125 -163 0 -58 26 -199 49 -274 11
-33 31 -100 46 -150 86 -290 154 -475 230 -630 92 -187 152 -238 283 -239 69
-1 75 1 99 28 33 38 28 75 -22 181 -21 44 -46 100 -57 125 -34 78 -339 893
-354 945 -8 28 -24 80 -35 118 l-20 67 -37 -1 c-20 -1 -46 -4 -57 -7z"/>
</g>
</svg>
