<svg width="740.0000000000001" height="740.0000000000001" xmlns="http://www.w3.org/2000/svg" preserveAspectRatio="xMidYMid meet">
 <metadata>Created by potrace 1.16, written by Peter Selinger 2001-2019</metadata>

 <g>
  <title>background</title>
  <rect fill="none" id="canvas_background" height="742" width="742" y="-1" x="-1"/>
 </g>
 <g>
  <title>Layer 1</title>
  <g id="svg_1" fill="#fff" transform="translate(0,1000) scale(0.10000000149011612,-0.10000000149011612) ">
   <path id="svg_2" d="m3462.77781,9882.88888c-212,-21 -279,-29 -402,-50c-570,-97 -1104,-334 -1590,-706c-68,-52 -116,-81 -144,-87c-37,-8 -67,-34 -236,-203c-141,-141 -196,-202 -203,-227c-5,-19 -7,-37 -5,-40c2,-4 -38,-63 -88,-131c-394,-536 -620,-1114 -699,-1785c-17,-144 -17,-606 0,-750c55,-468 171,-856 378,-1266c506,-1001 1484,-1724 2587,-1913c242,-42 350,-51 627,-51c348,0 599,31 902,110c1179,306 2118,1176 2513,2325c134,391 190,734 190,1170c0,348 -31,598 -109,902c-305,1173 -1180,2120 -2324,2512c-376,129 -700,184 -1112,190c-135,2 -263,2 -285,0zm-565,-614l0,-250l-40,0l-40,0l0,180l0,179l-49,-30c-56,-35 -71,-32 -71,14c0,27 7,36 39,54c22,13 55,41 73,63c24,28 41,40 61,40l27,0l0,-250zm1790,113c43,-46 60,-106 60,-211c-1,-88 -15,-149 -46,-189c-70,-92 -197,-82 -254,18c-23,41 -25,54 -25,174c0,120 2,133 25,174c34,60 79,83 149,78c48,-3 59,-9 91,-44zm970,-683l0,-250l-40,0l-40,0l0,180l0,179l-49,-30c-56,-35 -71,-32 -71,14c0,27 7,36 39,54c22,13 55,41 73,63c24,28 41,40 61,40l27,0l0,-250zm-1835,-2240l2470,-2470l-178,-177l-177,-178l-467,467l-468,466l-75,-29c-104,-41 -354,-113 -480,-138c-513,-102 -993,-90 -1494,39c-806,205 -1516,727 -1967,1445c-73,115 -192,344 -240,458c-39,94 -42,80 65,302c190,394 465,759 777,1031c57,49 116,101 133,116l31,27l-380,381l-380,380l175,175c96,96 177,175 180,175c3,0 1117,-1111 2475,-2470zm285,2039c1124,-105 2132,-806 2635,-1834c117,-240 115,-229 80,-312c-123,-293 -316,-605 -535,-864c-91,-107 -312,-328 -369,-368l-27,-20l-407,407l-407,407l25,75c52,151 69,261 68,440c0,131 -4,186 -21,267c-63,293 -193,526 -410,734c-115,111 -230,191 -363,253c-202,94 -368,130 -599,129c-168,0 -285,-18 -430,-68l-75,-25l-297,297c-164,164 -298,301 -298,304c0,3 62,25 138,48c431,130 846,172 1292,130zm-3230,-766c43,-46 60,-106 60,-211c-1,-88 -15,-149 -46,-189c-70,-92 -197,-82 -254,18c-23,41 -25,54 -25,174c0,120 2,133 25,174c34,60 79,83 149,78c48,-3 59,-9 91,-44zm3128,-503c277,-78 503,-304 582,-582c18,-63 40,-268 29,-268c-2,0 -202,199 -444,441l-440,441l100,-6c55,-3 133,-15 173,-26zm2752,-1937c43,-46 60,-106 60,-211c-1,-88 -15,-149 -46,-189c-70,-92 -197,-82 -254,18c-23,41 -25,54 -25,174c0,120 2,133 25,174c34,60 79,83 149,78c48,-3 59,-9 91,-44zm-5790,-463l0,-250l-40,0l-40,0l0,180l0,179l-49,-30c-56,-35 -71,-32 -71,14c0,27 7,36 39,54c22,13 55,41 73,63c24,28 41,40 61,40l27,0l0,-250zm1260,-747c43,-46 60,-106 60,-211c-1,-88 -15,-149 -46,-189c-70,-92 -197,-82 -254,18c-23,41 -25,54 -25,174c0,120 2,133 25,174c34,60 79,83 149,78c48,-3 59,-9 91,-44zm2610,-393l0,-250l-40,0l-40,0l0,180l0,179l-49,-30c-56,-35 -71,-32 -71,14c0,27 7,36 39,54c22,13 55,41 73,63c24,28 41,40 61,40l27,0l0,-250zm-950,-37c43,-46 60,-106 60,-211c-1,-88 -15,-149 -46,-189c-70,-92 -197,-82 -254,18c-23,41 -25,54 -25,174c0,120 2,133 25,174c34,60 79,83 149,78c48,-3 59,-9 91,-44z"/>
   <path id="svg_3" d="m4538.77781,9339.88888c-27,-27 -41,-83 -41,-166c0,-85 14,-138 42,-165c28,-26 51,-25 83,3c58,49 58,274 0,325c-32,27 -59,28 -84,3z"/>
   <path id="svg_4" d="m2498.77781,6955.88888c-157,-378 -144,-792 35,-1150c170,-337 456,-586 814,-707c236,-80 529,-89 771,-24c85,23 253,85 267,99c4,3 -90,102 -208,220l-215,214l-55,-11c-93,-17 -272,-4 -370,27c-99,32 -143,53 -225,108c-160,109 -270,258 -330,447c-31,98 -44,278 -27,370l11,55l-212,213c-117,116 -215,212 -218,212c-4,0 -21,-33 -38,-73z"/>
   <path id="svg_5" d="m728.77781,7689.88888c-27,-27 -41,-83 -41,-166c0,-85 14,-138 42,-165c28,-26 51,-25 83,3c58,49 58,274 0,325c-32,27 -59,28 -84,3z"/>
   <path id="svg_6" d="m6608.77781,5249.88888c-27,-27 -41,-83 -41,-166c0,-85 14,-138 42,-165c28,-26 51,-25 83,3c58,49 58,274 0,325c-32,27 -59,28 -84,3z"/>
   <path id="svg_7" d="m2078.77781,4039.88888c-27,-27 -41,-83 -41,-166c0,-85 14,-138 42,-165c28,-26 51,-25 83,3c58,49 58,274 0,325c-32,27 -59,28 -84,3z"/>
   <path id="svg_8" d="m3738.77781,3609.88888c-27,-27 -41,-83 -41,-166c0,-85 14,-138 42,-165c28,-26 51,-25 83,3c58,49 58,274 0,325c-32,27 -59,28 -84,3z"/>
  </g>
 </g>
</svg>