<?xml version="1.0" standalone="no"?>
<!DOCTYPE svg PUBLIC "-//W3C//DTD SVG 20010904//EN"
 "http://www.w3.org/TR/2001/REC-SVG-20010904/DTD/svg10.dtd">
<svg version="1.0" xmlns="http://www.w3.org/2000/svg"
 width="1000.000000pt" height="1000.000000pt" viewBox="0 0 1000.000000 1000.000000"
 preserveAspectRatio="xMidYMid meet">
<metadata>
Created by potrace 1.16, written by Peter Selinger 2001-2019
</metadata>
<g transform="translate(0.000000,1000.000000) scale(0.100000,-0.100000)"
fill="#fff" stroke="none">
<path d="M4195 6834 c-449 -65 -804 -241 -1101 -546 -260 -265 -422 -572 -496
-938 -20 -101 -23 -144 -23 -355 0 -266 14 -368 77 -564 181 -566 633 -1018
1199 -1199 196 -63 298 -77 564 -77 266 0 368 14 564 77 566 181 1018 633
1199 1199 63 196 77 298 77 564 0 266 -14 368 -77 564 -181 565 -633 1018
-1198 1199 -185 59 -293 75 -535 77 -121 2 -233 1 -250 -1z m400 -549 c141
-38 284 -133 370 -247 95 -127 134 -235 142 -393 10 -201 -50 -364 -189 -510
l-78 -83 87 -41 c387 -186 649 -567 679 -988 l7 -93 -106 0 -105 0 -7 78 c-22
234 -120 447 -285 613 -122 123 -272 211 -445 261 -71 20 -101 23 -255 22
-160 0 -182 -3 -263 -27 -400 -123 -674 -458 -712 -869 l-7 -78 -104 0 -104 0
0 48 c0 26 7 88 15 139 42 262 166 496 357 678 100 95 190 157 311 216 l87 41
-78 83 c-139 146 -199 309 -189 510 16 326 235 583 557 651 80 17 232 12 315
-11z"/>
<path d="M4350 6089 c-114 -15 -198 -59 -283 -148 -179 -187 -180 -467 -2
-660 90 -97 215 -151 350 -151 135 0 260 54 350 151 178 193 177 473 -2 660
-32 34 -76 72 -99 85 -92 54 -207 77 -314 63z"/>
<path d="M7126 6618 c-55 -193 -849 -3028 -853 -3050 -4 -20 2 -37 21 -63 l27
-35 169 0 169 0 10 38 c6 20 203 724 437 1564 l427 1527 -27 35 -27 36 -169 0
-169 0 -15 -52z"/>
<path d="M1168 5717 l-998 -422 0 -210 0 -210 1005 -429 1005 -429 40 27 40
27 -2 202 -3 202 -728 302 c-401 166 -730 303 -732 305 -2 2 327 138 731 303
l733 300 1 202 0 202 -37 26 c-21 14 -42 25 -48 24 -5 0 -459 -190 -1007 -422z"/>
<path d="M7817 6085 l-37 -26 2 -202 3 -201 732 -301 c402 -165 730 -302 728
-303 -2 -2 -331 -140 -732 -306 l-728 -302 -3 -202 -2 -201 40 -27 41 -27 492
210 c270 116 723 309 1005 429 l512 219 0 210 0 210 -992 419 c-546 231 -1000
421 -1008 423 -8 2 -32 -8 -53 -22z"/>
</g>
</svg>
