<?xml version="1.0" standalone="no"?>
<!DOCTYPE svg PUBLIC "-//W3C//DTD SVG 20010904//EN"
 "http://www.w3.org/TR/2001/REC-SVG-20010904/DTD/svg10.dtd">
<svg version="1.0" xmlns="http://www.w3.org/2000/svg"
 width="3958.000000pt" height="3958.000000pt" viewBox="0 0 3958.000000 3958.000000"
 preserveAspectRatio="xMidYMid meet">
<metadata>
Created by potrace 1.16, written by Peter Selinger 2001-2019
</metadata>
<g transform="translate(0.000000,3958.000000) scale(0.100000,-0.100000)"
fill="#000000" stroke="none">
<path d="M18661 32271 c-9 -6 4 -12 40 -21 132 -31 752 -253 896 -320 24 -11
45 -20 48 -20 4 0 25 -9 49 -19 23 -11 65 -29 92 -39 27 -11 98 -43 157 -71
59 -28 110 -51 112 -51 21 0 533 -256 700 -350 69 -39 127 -70 130 -70 2 0 29
-16 59 -35 30 -19 57 -35 60 -35 7 0 314 -186 441 -267 218 -140 369 -246 618
-433 1063 -800 1857 -1757 2337 -2815 40 -88 85 -194 101 -235 15 -41 35 -93
45 -115 19 -45 99 -276 119 -345 7 -25 29 -99 49 -164 32 -107 76 -290 126
-527 30 -141 69 -422 97 -694 24 -242 24 -948 0 -1190 -52 -517 -68 -623 -153
-1045 -97 -476 -220 -912 -409 -1445 -79 -223 -247 -647 -325 -820 -18 -38
-51 -115 -75 -170 -192 -444 -576 -1176 -904 -1724 -64 -107 -123 -206 -131
-220 -262 -449 -908 -1394 -1367 -2001 -347 -457 -892 -1141 -1133 -1420 -26
-30 -115 -134 -198 -230 -421 -493 -686 -789 -1197 -1340 -856 -922 -2084
-2133 -3160 -3115 -71 -66 -166 -153 -210 -195 -44 -41 -118 -109 -166 -150
-47 -41 -153 -136 -235 -210 -134 -121 -241 -216 -484 -429 -41 -36 -97 -87
-125 -112 -27 -25 -115 -101 -194 -170 -138 -118 -276 -238 -331 -285 -85 -75
-540 -464 -566 -484 -29 -23 -236 -198 -397 -335 -39 -33 -114 -96 -168 -140
-53 -44 -169 -141 -258 -215 -89 -74 -173 -142 -187 -150 -28 -18 -31 -36 -6
-41 9 -2 1524 -2 3365 1 3053 5 3350 6 3360 21 7 9 60 67 118 130 186 200 598
663 739 829 61 72 76 89 177 205 38 44 98 114 132 155 34 41 79 95 100 120
140 166 384 461 481 581 63 79 180 225 260 324 178 221 428 541 595 760 75 99
398 530 450 600 28 39 83 113 121 165 87 117 332 461 546 765 145 205 532 780
677 1005 41 63 102 158 136 210 149 228 531 841 597 960 22 38 161 273 210
355 34 55 50 84 113 195 23 41 72 129 110 195 37 66 117 210 177 320 60 110
118 216 129 235 11 19 42 78 69 130 26 52 85 165 130 250 78 151 304 604 380
765 100 211 193 415 260 565 40 91 96 219 125 285 87 196 267 644 340 840 20
55 50 136 67 180 136 358 406 1201 466 1460 5 22 35 137 65 255 30 118 72 292
91 385 20 94 41 188 46 210 36 156 101 535 130 752 5 40 12 82 15 95 6 26 19
138 40 343 69 664 71 1442 5 2030 -29 250 -58 435 -115 725 -37 187 -44 215
-112 470 -140 525 -384 1130 -630 1563 -25 45 -60 106 -76 135 -92 168 -325
521 -481 727 -453 602 -1038 1179 -1686 1665 -47 35 -101 75 -120 90 -109 82
-477 329 -680 456 -128 81 -468 278 -615 356 -159 85 -696 352 -820 408 -66
29 -151 68 -190 85 -183 84 -626 266 -815 335 -58 21 -143 53 -190 70 -390
145 -911 316 -1365 446 l-220 63 -295 0 c-162 1 -301 -3 -309 -8z"/>
<path d="M21351 32271 c-9 -6 7 -15 53 -30 90 -29 368 -142 484 -197 52 -24
96 -44 99 -44 9 0 492 -240 568 -283 44 -24 110 -61 147 -81 404 -221 902
-548 1319 -865 722 -548 1392 -1216 1911 -1906 254 -338 461 -652 664 -1010
44 -77 90 -158 102 -180 33 -58 189 -372 246 -495 300 -647 560 -1466 686
-2155 5 -27 16 -88 25 -135 14 -75 41 -257 75 -500 13 -88 27 -222 40 -375 5
-60 14 -159 19 -220 25 -283 34 -789 22 -1142 -20 -568 -79 -1204 -156 -1673
-8 -52 -19 -120 -24 -150 -34 -207 -88 -500 -116 -625 -8 -38 -20 -92 -25
-120 -5 -27 -14 -68 -20 -90 -5 -22 -21 -94 -36 -160 -28 -129 -168 -684 -189
-750 -7 -22 -25 -85 -40 -140 -36 -132 -71 -254 -99 -340 -13 -38 -33 -104
-45 -145 -54 -179 -288 -868 -351 -1030 -16 -41 -47 -124 -69 -185 -44 -122
-306 -780 -320 -806 -6 -9 -31 -68 -56 -130 -128 -312 -418 -943 -646 -1407
-148 -301 -425 -843 -497 -972 -14 -25 -80 -146 -147 -270 -67 -124 -132 -243
-145 -265 -12 -22 -32 -58 -45 -80 -42 -75 -366 -640 -376 -655 -5 -8 -54 -91
-109 -185 -153 -259 -242 -405 -506 -830 -92 -148 -175 -281 -185 -295 -9 -14
-59 -90 -110 -170 -153 -240 -568 -870 -682 -1035 -148 -215 -412 -596 -464
-670 -237 -340 -567 -797 -803 -1115 -63 -85 -145 -195 -182 -245 -37 -49 -68
-93 -68 -98 0 -4 1515 -6 3366 -5 l3366 3 65 170 c196 519 561 1613 718 2155
7 25 42 144 78 265 35 121 67 229 70 240 31 113 102 361 113 400 15 51 29 102
91 335 20 74 42 158 50 185 35 126 256 1023 299 1215 8 36 19 83 24 105 67
294 93 413 146 670 25 121 49 238 53 260 26 119 52 253 71 355 11 63 38 207
60 320 35 182 60 332 155 915 34 205 130 891 160 1135 27 226 94 875 115 1115
37 431 65 928 81 1430 13 407 7 1543 -10 1800 -6 83 -15 240 -21 350 -11 195
-38 535 -60 745 -29 274 -113 911 -139 1048 -5 26 -14 74 -20 107 -61 332 -93
501 -106 560 -9 39 -20 88 -24 110 -23 109 -94 416 -107 460 -8 28 -34 127
-59 220 -50 191 -62 233 -80 290 -14 48 -22 73 -70 230 -125 409 -354 1012
-520 1370 -20 44 -48 105 -62 135 -227 494 -568 1084 -903 1560 -65 92 -134
186 -285 385 -232 306 -784 902 -1066 1150 -225 198 -299 261 -414 354 -777
628 -1653 1137 -2655 1543 -450 182 -1105 397 -1575 517 -253 64 -226 61 -543
61 -163 0 -303 -4 -311 -9z"/>
<path d="M24045 32270 c-5 -8 32 -30 50 -30 24 0 464 -222 605 -305 30 -18
111 -66 180 -106 307 -179 760 -494 1080 -752 83 -66 352 -296 460 -391 140
-125 688 -666 774 -765 27 -31 82 -92 122 -136 393 -437 879 -1081 1192 -1580
400 -641 685 -1177 990 -1865 128 -289 297 -713 386 -968 95 -271 119 -344
184 -547 75 -232 136 -433 178 -588 86 -317 126 -470 152 -582 12 -49 33 -139
47 -200 35 -146 87 -388 146 -680 22 -112 104 -591 143 -845 27 -172 80 -580
96 -735 5 -49 16 -153 24 -230 46 -418 75 -818 106 -1485 44 -968 5 -2535 -90
-3580 -32 -346 -106 -1078 -120 -1175 -5 -38 -16 -124 -25 -190 -8 -66 -20
-154 -25 -195 -6 -41 -22 -160 -35 -265 -43 -322 -52 -383 -121 -815 -49 -304
-65 -406 -80 -485 -8 -44 -19 -105 -24 -135 -6 -30 -33 -183 -61 -340 -27
-157 -54 -301 -59 -320 -5 -19 -21 -98 -35 -175 -40 -212 -61 -314 -126 -625
-92 -436 -147 -686 -214 -970 -19 -80 -57 -242 -85 -360 -27 -118 -61 -258
-74 -310 -14 -52 -50 -196 -81 -320 -31 -124 -62 -247 -70 -275 -24 -87 -52
-197 -80 -305 -15 -58 -33 -125 -40 -150 -29 -102 -37 -132 -80 -293 -25 -93
-45 -173 -45 -178 0 -5 1156 -9 3029 -9 l3029 0 6 63 c40 454 60 2026 36 2857
-20 705 -57 1507 -90 1945 -50 672 -111 1348 -155 1720 -8 66 -19 162 -25 214
-6 51 -26 222 -46 380 -19 157 -40 322 -45 366 -5 44 -11 87 -14 95 -2 8 -9
51 -14 95 -6 44 -26 188 -46 320 -20 132 -40 269 -45 305 -20 142 -149 897
-180 1050 -10 52 -33 172 -50 265 -17 94 -37 199 -45 235 -8 36 -26 119 -39
185 -33 156 -94 444 -111 520 -103 459 -115 506 -192 810 -36 143 -69 276 -74
295 -4 19 -18 76 -32 125 -13 50 -34 128 -46 175 -27 100 -56 205 -76 275 -8
28 -35 122 -60 210 -25 88 -60 210 -79 270 -19 61 -48 155 -64 210 -101 335
-288 897 -402 1210 -34 94 -72 199 -85 235 -13 36 -39 106 -58 155 -69 181
-150 391 -167 435 -51 125 -171 417 -180 435 -5 11 -14 31 -19 45 -29 80 -289
658 -410 913 -80 167 -291 589 -349 697 -148 278 -256 473 -335 610 -50 85
-109 189 -132 230 -24 41 -78 131 -120 200 -42 69 -89 145 -103 169 -54 88
-306 478 -360 556 -30 44 -73 107 -95 140 -23 33 -97 139 -166 235 -523 732
-1022 1324 -1643 1950 -421 425 -764 729 -1328 1175 -414 328 -1034 743 -1550
1038 -103 58 -130 74 -295 163 -389 212 -958 477 -1384 645 l-124 49 -303 0
c-191 0 -305 -4 -309 -10z"/>
<path d="M14890 28407 c-3 -2 -84 -8 -180 -11 -409 -16 -1090 -88 -1420 -150
-41 -8 -129 -24 -195 -36 -369 -67 -898 -198 -1322 -328 -157 -48 -188 -89
-153 -205 10 -34 50 -181 90 -327 40 -146 104 -377 142 -515 38 -137 92 -331
119 -430 56 -205 57 -208 219 -795 66 -239 132 -475 145 -525 121 -440 115
-424 167 -446 27 -11 52 -9 172 10 78 13 155 25 171 27 17 3 55 9 85 14 30 5
102 14 160 20 58 6 119 13 135 15 68 9 303 26 495 35 173 9 708 6 790 -4 14
-2 75 -7 135 -10 277 -18 693 -73 1000 -135 300 -60 424 -91 833 -210 104 -30
128 -30 179 -2 29 15 34 31 77 226 8 33 30 128 49 210 20 83 47 200 62 260 29
123 64 275 95 410 12 50 30 128 41 175 11 47 27 114 35 150 8 36 26 110 40
165 13 55 28 120 33 145 12 56 75 328 101 435 10 44 28 121 40 170 11 50 31
135 44 190 13 55 36 152 50 215 28 122 29 127 75 320 17 69 39 166 51 215 12
50 32 135 45 190 54 227 55 263 10 305 -19 18 -55 28 -192 52 -435 75 -963
136 -1319 154 -60 3 -125 7 -144 10 -50 6 -954 17 -960 11z"/>
<path d="M18664 27881 c-18 -11 -36 -25 -40 -33 -10 -15 -61 -148 -74 -193 -5
-16 -36 -109 -70 -205 -34 -96 -72 -206 -85 -245 -13 -38 -51 -149 -85 -245
-34 -96 -85 -246 -115 -332 -29 -86 -56 -162 -60 -168 -4 -7 -11 -26 -16 -44
-4 -17 -38 -116 -74 -221 -37 -104 -75 -215 -85 -245 -10 -30 -46 -134 -80
-230 -34 -96 -87 -251 -119 -345 -33 -93 -66 -190 -75 -215 -9 -25 -41 -117
-71 -205 -30 -88 -75 -218 -100 -290 -26 -71 -57 -161 -70 -200 -13 -38 -40
-117 -60 -174 -43 -122 -47 -160 -19 -198 23 -32 13 -26 304 -167 357 -173
680 -360 1010 -585 152 -104 514 -377 650 -490 281 -236 676 -619 880 -854 66
-76 87 -94 96 -85 6 7 308 436 670 953 362 517 943 1347 1292 1845 485 691
636 913 639 941 9 66 5 70 -262 271 -564 423 -1214 826 -1869 1157 -407 206
-756 361 -1166 518 -320 123 -855 303 -899 303 -9 0 -30 -9 -47 -19z"/>
<path d="M6889 27650 c-89 -15 -180 -80 -220 -157 -20 -39 -24 -63 -24 -129 0
-72 4 -87 34 -145 31 -60 278 -508 506 -919 98 -176 603 -1091 1235 -2235 161
-291 340 -615 398 -720 58 -104 141 -255 185 -335 44 -80 149 -271 235 -425
216 -390 334 -604 522 -945 90 -162 231 -419 315 -570 84 -151 356 -644 605
-1095 249 -451 496 -899 550 -995 53 -96 195 -353 315 -570 120 -217 261 -474
315 -570 53 -96 158 -285 232 -420 360 -653 469 -849 561 -1015 55 -99 137
-248 183 -332 163 -299 288 -456 496 -624 245 -197 546 -326 869 -374 163 -25
430 -16 588 19 117 26 222 57 278 82 17 8 34 14 38 14 9 0 201 95 230 113 168
107 323 233 410 334 242 278 382 574 438 925 18 111 22 358 7 474 -40 318
-171 631 -370 882 -45 57 -125 147 -1706 1902 -566 630 -1401 1557 -1854 2060
-453 503 -903 1003 -1000 1110 -96 107 -358 398 -581 645 -222 248 -854 950
-1404 1560 -550 611 -1262 1401 -1581 1756 -520 578 -588 649 -636 672 -64 30
-107 37 -169 27z m7676 -9895 c121 -14 273 -76 384 -158 373 -274 461 -800
200 -1184 -117 -172 -296 -295 -509 -350 -177 -46 -419 -19 -583 63 -215 109
-375 298 -445 526 -43 137 -47 325 -11 461 32 125 98 256 172 342 145 170 365
285 582 305 81 7 103 7 210 -5z"/>
<path d="M10420 27363 c-181 -86 -483 -236 -595 -296 -202 -108 -234 -126
-320 -177 -44 -26 -123 -73 -175 -104 -200 -119 -435 -270 -445 -285 -5 -8
2057 -2311 2089 -2333 5 -3 22 0 37 7 14 8 44 20 65 28 22 8 82 30 134 50 52
19 176 63 274 96 102 34 189 70 202 82 13 12 28 37 35 56 12 37 68 -111 -518
1363 -146 366 -335 841 -420 1055 -85 215 -162 405 -170 423 -31 65 -101 78
-193 35z"/>
<path d="M7104 25007 c-137 -139 -309 -329 -409 -451 -50 -60 -117 -141 -151
-180 -72 -84 -420 -545 -440 -584 -20 -38 -17 -85 6 -115 19 -25 183 -153
1120 -878 195 -151 457 -354 582 -451 126 -98 241 -179 257 -183 38 -8 93 17
127 59 14 17 104 110 200 207 l175 176 -287 519 c-272 492 -505 913 -867 1569
-88 160 -174 316 -191 347 l-32 57 -90 -92z"/>
<path d="M5515 22782 c-57 -13 -75 -40 -259 -410 -101 -202 -171 -351 -221
-472 -13 -30 -43 -104 -68 -165 -25 -60 -61 -148 -81 -195 -80 -194 -259 -727
-327 -975 -6 -22 -15 -51 -20 -65 -15 -46 -117 -473 -148 -620 -30 -143 -95
-508 -105 -585 -3 -22 -16 -125 -30 -230 -56 -430 -81 -837 -81 -1335 0 -432
-18 -405 270 -414 105 -3 440 -8 745 -11 305 -4 603 -8 663 -10 161 -6 199 17
211 126 3 30 13 117 21 194 9 77 17 151 20 165 3 14 7 39 9 55 2 17 7 50 11
75 31 210 114 613 166 807 10 40 28 108 40 150 85 321 197 640 369 1053 74
178 264 568 354 725 126 222 220 374 353 575 219 328 219 315 -7 451 -69 42
-240 146 -380 231 -140 85 -381 232 -535 325 -154 94 -374 228 -490 298 -115
70 -254 154 -308 187 -102 62 -139 77 -172 70z"/>
<path d="M5740 16465 c-63 -7 -149 -16 -190 -19 -41 -4 -93 -9 -115 -11 -22
-2 -71 -7 -110 -10 -38 -4 -83 -8 -100 -10 -16 -2 -104 -11 -195 -20 -91 -8
-278 -26 -417 -40 -138 -13 -260 -28 -271 -34 -23 -12 -46 -46 -55 -79 -3 -13
1 -60 9 -105 8 -45 21 -122 30 -172 93 -538 193 -948 356 -1459 341 -1070 869
-2113 1528 -3020 104 -144 114 -153 165 -161 38 -6 48 -1 240 127 468 313 611
412 633 437 32 36 26 98 -18 171 -120 202 -353 677 -479 979 -318 759 -521
1490 -635 2296 -19 132 -38 276 -42 320 -3 44 -8 87 -9 95 -2 8 -6 65 -10 125
-4 61 -9 121 -11 135 -1 14 -6 104 -10 200 -10 280 -16 285 -294 255z"/>
<path d="M7683 11137 c-17 -12 -97 -78 -178 -147 -81 -69 -170 -144 -199 -168
-190 -157 -250 -209 -262 -227 -8 -11 -14 -39 -14 -63 0 -50 6 -57 245 -300
811 -828 1819 -1555 2894 -2089 277 -137 335 -158 379 -134 28 15 220 291 232
333 19 64 -5 89 -220 226 -1029 655 -1987 1543 -2664 2470 -91 124 -142 148
-213 99z"/>
</g>
</svg>
