<?xml version="1.0" standalone="no"?>
<!DOCTYPE svg PUBLIC "-//W3C//DTD SVG 20010904//EN"
 "http://www.w3.org/TR/2001/REC-SVG-20010904/DTD/svg10.dtd">
<svg version="1.0" xmlns="http://www.w3.org/2000/svg"
 width="1000.000000pt" height="1000.000000pt" viewBox="0 0 1000.000000 1000.000000"
 preserveAspectRatio="xMidYMid meet">

<g transform="translate(0.000000,1000.000000) scale(0.100000,-0.100000)"
fill="#fff" stroke="none">
<path d="M7538 9299 c3 -68 0 -96 -17 -147 -43 -127 -114 -208 -337 -387 -239
-193 -309 -283 -307 -396 1 -68 26 -127 90 -218 50 -70 251 -276 261 -267 3 3
-29 57 -71 120 -122 183 -132 206 -132 306 0 74 4 92 29 139 30 58 126 160
241 254 160 132 274 299 297 438 10 57 9 76 -6 133 -10 37 -26 76 -36 88 -16
20 -16 17 -12 -63z"/>
<path d="M7700 8767 c-229 -92 -384 -212 -429 -330 -39 -107 -20 -210 59 -318
79 -108 94 -139 93 -190 0 -32 -9 -63 -26 -93 -14 -26 -23 -46 -19 -46 12 0
99 74 126 107 37 44 56 95 56 148 0 52 -14 84 -76 171 -79 110 -93 179 -53
261 29 59 135 154 272 243 104 67 132 90 110 90 -5 0 -55 -19 -113 -43z"/>
<path d="M7963 7869 c-53 -15 -45 -24 21 -24 53 0 69 -5 104 -28 48 -34 72
-79 72 -138 0 -89 -78 -188 -223 -282 -42 -28 -75 -52 -73 -54 10 -10 188 66
251 108 139 93 190 208 140 312 -43 91 -176 139 -292 106z"/>
<path d="M3763 7836 c-105 -34 -229 -148 -256 -233 -11 -35 -17 -120 -21 -318
-12 -539 -55 -1036 -142 -1634 -176 -1217 -431 -1785 -850 -1896 -68 -18 -228
-21 -300 -5 -250 55 -481 197 -790 487 -203 190 -258 223 -382 223 -206 0
-339 -106 -361 -287 -11 -91 2 -154 49 -251 124 -250 652 -637 1070 -785 186
-66 303 -88 501 -94 209 -7 324 9 483 64 120 42 156 59 261 128 423 275 716
844 904 1756 140 676 282 2001 270 2504 -4 131 -6 143 -31 186 -32 55 -91 110
-150 140 -54 28 -191 36 -255 15z"/>
<path d="M6775 7843 c-156 -34 -304 -90 -333 -125 -28 -34 46 -67 207 -90 132
-20 623 -16 781 6 176 24 269 44 313 69 44 24 49 41 10 33 -65 -13 -279 -37
-423 -47 -185 -13 -599 -7 -652 10 -90 28 -54 64 122 122 82 27 83 28 40 27
-25 0 -54 -2 -65 -5z"/>
<path d="M4587 7780 c-67 -12 -132 -46 -166 -87 -32 -39 -59 -119 -45 -132 5
-5 35 -11 67 -14 l57 -6 20 39 c25 49 67 64 162 58 62 -3 73 -7 94 -31 13 -16
24 -39 24 -52 0 -26 -26 -34 -179 -55 -96 -13 -119 -19 -161 -40 -131 -66
-149 -253 -31 -334 80 -56 229 -56 330 0 24 13 46 24 50 24 4 0 12 -13 18 -30
11 -29 14 -30 70 -30 76 0 84 9 67 68 -9 30 -16 122 -20 261 -5 195 -8 220
-28 261 -17 36 -32 50 -76 72 -62 31 -170 43 -253 28z m198 -464 c-36 -75
-196 -115 -259 -65 -54 42 -15 93 82 105 31 3 86 12 122 18 59 10 65 10 68 -6
2 -9 -4 -33 -13 -52z"/>
<path d="M5977 7780 c-104 -19 -180 -77 -207 -160 -18 -53 -9 -70 37 -70 21 0
48 -3 60 -6 18 -5 25 1 42 34 26 51 66 66 163 60 62 -3 73 -7 94 -31 13 -16
24 -39 24 -52 0 -26 -26 -34 -179 -55 -96 -13 -119 -19 -161 -40 -131 -66
-149 -253 -31 -334 80 -56 229 -56 330 0 24 13 46 24 50 24 4 0 12 -13 18 -30
11 -29 14 -30 70 -30 76 0 84 9 67 68 -10 31 -16 121 -20 262 -5 194 -8 219
-28 260 -17 36 -32 50 -76 72 -62 31 -170 43 -253 28z m200 -463 c-31 -74
-197 -116 -261 -66 -54 42 -15 93 82 105 31 3 86 12 122 18 75 13 83 6 57 -57z"/>
<path d="M5057 7765 c-4 -8 41 -140 99 -293 58 -152 115 -301 126 -329 l19
-53 63 0 63 0 122 325 c67 179 121 333 119 343 -3 14 -15 17 -68 17 l-65 0
-84 -232 c-47 -128 -87 -230 -90 -228 -2 3 -41 108 -85 233 l-81 227 -66 3
c-53 2 -68 0 -72 -13z"/>
<path d="M6750 7513 c-58 -25 -90 -53 -90 -77 0 -136 603 -168 1023 -55 l38
10 -52 35 -52 35 -131 -21 c-72 -12 -194 -24 -271 -27 -152 -6 -372 10 -414
30 -29 14 -39 50 -21 73 15 17 15 17 -30 -3z"/>
<path d="M6805 7201 c-116 -52 -69 -124 111 -172 100 -26 323 -36 447 -20 81
11 211 44 282 71 l30 12 -75 38 -75 38 -70 -14 c-98 -20 -342 -28 -457 -16
-115 13 -154 28 -151 60 2 12 2 22 0 22 -1 0 -20 -9 -42 -19z"/>
<path d="M6430 6996 c-133 -40 -226 -101 -218 -143 11 -62 339 -111 804 -120
284 -6 440 2 654 33 202 28 407 91 462 141 22 19 23 56 4 72 -12 10 -15 7 -18
-16 -4 -39 -53 -68 -156 -92 -331 -77 -1045 -95 -1382 -35 -104 18 -175 40
-190 60 -26 30 38 69 172 103 l73 19 -65 1 c-40 0 -94 -9 -140 -23z"/>
<path d="M8255 6829 c-14 -21 -148 -77 -250 -103 -125 -32 -301 -61 -470 -77
-173 -17 -586 -17 -758 0 -146 14 -184 11 -95 -9 215 -46 720 -60 1008 -27
245 29 426 78 509 137 41 30 78 76 68 86 -3 3 -8 0 -12 -7z"/>
<path d="M7123 6475 c-554 -102 -1299 -592 -1750 -1152 -219 -273 -418 -632
-511 -924 -61 -190 -76 -286 -76 -489 -1 -163 2 -194 22 -263 72 -249 235
-411 468 -463 115 -25 342 -15 484 21 383 99 806 357 1143 697 96 97 146 141
143 126 -3 -13 -12 -102 -21 -198 -59 -648 -175 -1175 -330 -1506 -129 -276
-312 -448 -530 -500 -96 -22 -352 -14 -480 15 -303 70 -568 193 -950 442 -222
144 -293 179 -362 179 -73 0 -126 -30 -161 -90 -24 -40 -27 -55 -27 -135 1
-81 4 -97 33 -157 66 -135 201 -279 423 -448 333 -254 644 -406 964 -470 152
-31 423 -39 552 -16 250 43 503 165 704 337 165 143 329 369 460 634 133 272
200 511 268 960 32 213 48 349 111 920 90 822 135 1030 355 1655 59 165 62
230 21 353 -55 162 -94 221 -209 308 -99 75 -214 132 -321 159 -94 24 -306 26
-423 5z m125 -654 c65 -35 91 -215 54 -372 -39 -160 -145 -379 -300 -619 -253
-390 -559 -669 -949 -864 -169 -85 -271 -117 -384 -123 l-96 -6 -41 38 c-52
47 -66 93 -57 189 21 207 143 472 358 775 244 345 494 598 772 783 280 186
526 262 643 199z"/>
</g>
</svg>
