<?xml version="1.0" standalone="no"?>
<!DOCTYPE svg PUBLIC "-//W3C//DTD SVG 20010904//EN"
 "http://www.w3.org/TR/2001/REC-SVG-20010904/DTD/svg10.dtd">
<svg version="1.0" xmlns="http://www.w3.org/2000/svg"
 width="1500.000000pt" height="1500.000000pt" viewBox="0 0 1500.000000 1500.000000"
 preserveAspectRatio="xMidYMid meet">
<metadata>
Created by potrace 1.16, written by Peter Selinger 2001-2019
</metadata>
<g transform="translate(0.000000,1500.000000) scale(0.100000,-0.100000)"
fill="#fff" stroke="none">
<path d="M7018 13914 c-3 -3 -64 -9 -134 -15 -71 -5 -163 -13 -204 -19 -41 -5
-113 -15 -160 -21 -77 -10 -119 -16 -315 -50 -104 -18 -434 -94 -535 -124
-462 -135 -779 -257 -1170 -451 -1092 -544 -2004 -1378 -2637 -2414 -126 -207
-319 -574 -388 -740 -15 -36 -40 -93 -56 -128 -16 -35 -29 -67 -29 -72 0 -5
-12 -37 -26 -72 -40 -97 -41 -99 -68 -173 -70 -195 -155 -499 -209 -745 -68
-308 -93 -481 -137 -920 -13 -134 -13 -765 0 -890 44 -418 44 -426 81 -640 31
-179 34 -194 59 -305 164 -743 472 -1462 907 -2119 527 -794 1232 -1466 2065
-1967 307 -184 789 -414 1096 -523 175 -63 212 -75 292 -100 47 -14 114 -35
150 -46 36 -12 83 -25 105 -30 22 -5 103 -24 180 -43 77 -19 167 -40 200 -46
33 -7 78 -16 100 -21 45 -10 179 -31 330 -54 487 -72 1098 -81 1615 -25 143
15 447 60 535 79 22 5 67 14 100 20 33 7 85 18 115 26 30 7 87 20 125 29 39 9
84 20 100 25 17 5 57 16 90 25 33 9 71 20 85 25 14 4 66 20 115 35 113 34 189
61 390 137 1102 418 2103 1168 2827 2118 173 227 340 481 487 740 75 131 237
455 270 537 10 26 33 78 50 116 17 37 31 70 31 73 0 3 6 20 14 37 119 271 270
791 335 1152 6 33 17 96 25 140 23 126 53 360 69 530 6 66 11 298 11 515 1
372 -7 538 -34 735 -6 39 -15 108 -21 155 -31 241 -113 622 -190 890 -144 495
-374 1021 -646 1473 -256 429 -557 817 -913 1181 -530 541 -1063 932 -1725
1266 -357 180 -599 278 -1025 415 -285 91 -584 157 -1020 225 -30 5 -129 16
-220 24 -91 9 -201 21 -246 26 -84 10 -837 14 -846 4z m642 -1534 c226 -17
306 -36 316 -76 6 -24 -8 -177 -26 -269 -5 -27 -14 -84 -20 -125 -13 -90 -35
-209 -62 -345 -57 -286 -60 -321 -25 -352 16 -16 41 -23 92 -28 63 -6 73 -5
98 15 41 32 50 60 103 305 21 97 29 133 59 260 14 61 28 119 31 130 13 57 64
245 76 280 19 58 44 67 163 61 141 -7 321 -55 463 -122 118 -57 119 -33 -14
-369 -63 -159 -127 -319 -141 -355 -14 -36 -29 -74 -33 -85 -4 -11 -18 -45
-30 -75 -31 -79 -106 -215 -150 -274 -46 -63 -135 -148 -177 -170 -81 -41
-126 -50 -258 -50 -71 -1 -168 5 -215 12 -237 36 -291 46 -360 69 -137 45
-231 116 -267 202 -44 105 -46 122 -46 486 0 350 10 520 40 690 26 146 43 174
116 186 64 10 120 10 267 -1z m-897 -79 c105 -50 146 -119 147 -247 0 -127
-42 -243 -133 -358 l-31 -39 33 -26 c118 -91 183 -170 241 -295 55 -119 84
-249 85 -375 0 -136 1 -135 -196 -161 -79 -11 -170 -24 -203 -30 -76 -15 -83
-8 -101 101 -42 252 -80 344 -186 447 -70 68 -79 58 -58 -67 19 -112 47 -241
79 -361 16 -63 30 -127 30 -142 0 -41 -29 -63 -101 -78 -35 -7 -113 -23 -173
-36 -60 -13 -126 -24 -148 -24 -42 0 -46 5 -73 105 -12 47 -88 310 -120 420
-8 28 -42 149 -75 270 -84 309 -87 319 -115 425 -14 52 -29 109 -34 125 -5 17
-15 54 -22 83 -12 48 -11 54 7 71 10 11 73 37 139 59 66 22 158 54 205 70 82
29 135 42 320 76 127 24 134 25 281 22 129 -3 138 -5 202 -35z m-1429 -344
c23 -49 66 -203 66 -240 0 -36 -44 -81 -91 -95 -57 -17 -249 -88 -331 -122
-48 -20 -78 -39 -78 -48 0 -16 122 -206 139 -216 6 -4 42 10 82 29 93 48 249
115 264 115 26 0 62 -41 84 -96 13 -33 32 -79 43 -103 33 -74 31 -77 -144
-165 -93 -46 -158 -85 -158 -93 0 -19 112 -173 125 -173 6 0 19 6 30 13 33 23
267 141 313 159 48 19 62 17 79 -11 32 -51 112 -220 118 -249 12 -56 -10 -74
-198 -166 -94 -46 -219 -113 -277 -148 -136 -82 -263 -148 -287 -148 -31 0
-64 36 -284 305 -149 183 -258 329 -368 495 -277 415 -278 419 -223 477 50 53
387 250 607 354 203 96 237 110 325 140 113 37 140 35 164 -14z m4288 -102
c260 -46 524 -190 676 -369 89 -106 154 -294 137 -402 -9 -65 -33 -72 -150
-44 -98 24 -321 111 -359 141 -13 10 -33 45 -45 77 -26 69 -59 108 -115 133
-87 40 -161 14 -159 -55 1 -28 21 -67 93 -174 185 -276 261 -486 231 -634 -16
-82 -59 -175 -101 -216 -18 -18 -55 -44 -83 -58 -43 -22 -63 -26 -142 -26
-114 0 -189 19 -320 83 -219 106 -361 251 -428 438 -43 118 -49 143 -50 190
-1 80 1 81 193 56 165 -21 230 -35 239 -54 5 -9 16 -45 25 -80 24 -95 50 -145
87 -173 47 -35 83 -42 104 -21 50 50 -62 277 -262 527 -35 45 -80 115 -101
156 -36 73 -37 78 -37 185 0 124 9 150 75 213 104 102 290 142 492 107z
m-5644 -707 c64 -16 110 -46 170 -114 123 -138 190 -356 162 -526 -20 -120
-72 -218 -188 -357 -34 -40 -62 -77 -62 -82 0 -7 174 -161 324 -287 66 -55 86
-80 86 -103 0 -10 -31 -54 -68 -96 -38 -43 -106 -125 -151 -183 -97 -123 -115
-140 -145 -140 -36 0 -185 102 -491 336 -492 375 -745 583 -745 610 0 27 28
69 124 189 95 117 343 392 388 429 13 11 50 44 83 74 132 121 293 224 388 247
69 17 71 17 125 3z m6855 -4 c117 -60 587 -515 754 -729 64 -82 103 -150 103
-178 0 -29 -47 -69 -166 -140 -96 -58 -133 -48 -207 52 -22 31 -92 120 -155
199 -81 102 -119 142 -132 140 -16 -3 -170 -181 -170 -196 0 -4 48 -59 106
-122 152 -164 165 -184 152 -221 -14 -40 -179 -179 -212 -179 -15 0 -36 14
-56 38 -75 87 -214 222 -229 222 -9 0 -43 -36 -75 -81 l-58 -80 129 -132 c123
-126 193 -209 193 -230 0 -13 -147 -164 -194 -198 -68 -50 -70 -49 -275 159
-102 103 -246 243 -318 310 -107 100 -133 129 -133 150 0 30 39 100 145 262
38 58 104 161 147 230 103 163 511 683 569 724 29 20 42 20 82 0z m-5797
-2549 c342 -18 543 -161 615 -437 24 -93 25 -292 3 -480 -21 -177 -21 -405 0
-481 20 -74 59 -150 107 -211 25 -30 39 -59 39 -77 0 -36 -32 -119 -73 -188
-28 -46 -42 -58 -107 -90 -41 -21 -89 -46 -107 -57 -29 -17 -34 -17 -65 -2
-59 28 -158 109 -198 162 -79 105 -83 220 -14 421 139 401 138 400 100 400
-15 0 -45 -52 -135 -230 -64 -126 -129 -250 -145 -274 -42 -65 -114 -140 -171
-177 -147 -94 -315 -83 -594 38 -118 52 -149 73 -119 82 257 79 373 142 654
358 89 67 224 168 299 223 216 158 235 174 235 200 0 13 -5 27 -10 30 -16 10
-119 -47 -255 -140 -218 -149 -249 -170 -385 -266 -175 -123 -253 -171 -370
-230 -233 -116 -463 -128 -667 -33 -66 30 -54 48 37 57 160 17 472 131 682
249 37 21 84 47 105 59 21 12 72 40 113 64 287 161 423 226 602 286 138 47
181 99 81 99 -33 0 -86 -16 -182 -54 -159 -64 -371 -152 -456 -191 -33 -15
-80 -36 -105 -47 -25 -11 -88 -41 -140 -65 -85 -40 -245 -114 -355 -163 -298
-133 -456 -172 -609 -149 -76 11 -165 36 -180 50 -6 5 -18 9 -27 9 -20 0 -34
29 -20 43 5 5 47 13 93 18 208 19 365 57 588 139 47 17 108 39 135 49 28 10
75 30 105 44 30 14 83 37 117 51 35 14 86 37 115 50 209 95 514 202 700 247
73 17 143 36 156 42 23 11 30 41 12 52 -24 15 -100 7 -175 -17 -44 -14 -127
-40 -185 -58 -58 -18 -109 -37 -115 -41 -5 -5 -17 -9 -27 -9 -18 0 -327 -102
-813 -268 -229 -78 -311 -102 -500 -143 -82 -18 -132 -22 -280 -22 -176 -1
-182 0 -274 31 -105 36 -141 55 -141 77 0 8 3 15 8 15 405 5 600 42 1120 215
555 185 801 247 1116 284 93 11 124 26 112 56 -10 27 -251 9 -406 -30 -108
-27 -236 -57 -275 -64 -22 -5 -76 -17 -120 -29 -110 -29 -556 -136 -630 -152
-22 -4 -128 -27 -235 -50 -749 -159 -1029 -172 -1317 -61 -109 42 -203 100
-203 124 0 17 5 18 43 14 372 -49 906 -19 1327 73 46 10 232 45 395 75 50 9
110 20 135 25 44 10 414 74 520 91 30 4 100 16 155 24 55 9 141 20 190 23 83
7 90 9 93 30 2 13 -3 25 -13 28 -22 9 -499 -27 -695 -52 -165 -21 -567 -73
-690 -90 -685 -94 -1146 -144 -1331 -144 -196 0 -416 30 -567 77 -67 21 -86
31 -93 51 -13 33 5 52 49 52 25 0 44 8 62 25 26 24 29 25 71 14 60 -17 628
-17 819 -1 271 24 498 55 950 128 118 19 285 46 370 60 85 13 191 31 235 38
106 19 177 30 380 61 94 14 212 33 263 41 96 16 302 33 337 28 11 -2 70 -6
131 -9z m4791 5 c165 -13 589 -78 1063 -165 47 -8 117 -20 155 -25 39 -6 77
-12 85 -15 21 -6 238 -40 480 -74 438 -63 707 -85 1040 -85 402 -1 512 21 862
167 21 9 31 8 40 -1 10 -10 -4 -28 -68 -90 -207 -200 -478 -273 -1009 -272
-262 1 -570 23 -810 60 -38 6 -106 15 -150 20 -44 5 -111 14 -150 20 -38 5
-203 28 -365 50 -162 22 -324 45 -360 50 -36 5 -121 16 -190 25 -69 8 -156 21
-195 27 -70 12 -380 14 -416 3 -11 -4 -19 -12 -19 -19 0 -9 28 -15 98 -19 90
-6 212 -25 507 -77 332 -58 565 -101 605 -109 25 -6 74 -15 110 -21 36 -7 110
-20 165 -31 416 -82 840 -115 1150 -90 77 6 157 14 178 17 33 6 37 4 37 -14 0
-36 -166 -115 -330 -159 -101 -26 -114 -27 -360 -27 -279 -1 -373 11 -695 84
-22 5 -258 63 -525 129 -944 233 -886 221 -1118 241 -121 11 -162 6 -162 -16
0 -20 29 -29 160 -48 151 -22 338 -60 425 -86 39 -11 95 -28 125 -36 85 -25
616 -190 740 -231 93 -30 359 -94 480 -114 69 -11 190 -24 270 -27 132 -6 145
-9 145 -25 0 -21 -73 -54 -180 -84 -77 -22 -346 -24 -455 -4 -182 33 -427 105
-770 227 -69 24 -379 131 -737 254 -181 63 -302 87 -340 68 -56 -27 -36 -40
162 -106 200 -66 536 -184 645 -226 135 -51 359 -140 395 -157 31 -14 211 -78
295 -104 147 -46 301 -80 415 -90 133 -12 139 -29 28 -76 -76 -33 -81 -34
-218 -33 -123 0 -153 3 -245 28 -110 30 -266 86 -360 128 -30 14 -82 37 -115
52 -33 15 -82 38 -110 51 -65 31 -192 89 -335 155 -63 29 -151 69 -195 90
-279 133 -427 183 -454 155 -12 -12 -12 -19 -2 -38 9 -17 35 -30 104 -52 138
-43 315 -127 567 -268 375 -211 505 -274 690 -334 81 -26 248 -63 285 -63 22
0 40 -24 30 -40 -8 -12 -132 -57 -193 -69 -100 -20 -283 -7 -372 27 -105 40
-210 101 -406 234 -663 451 -754 506 -754 452 0 -27 18 -50 72 -91 289 -218
628 -468 693 -511 97 -65 256 -143 348 -171 38 -11 73 -23 77 -26 21 -13 -8
-36 -100 -79 -127 -60 -194 -81 -308 -97 -108 -15 -182 -5 -270 37 -118 57
-161 115 -325 437 -87 170 -132 242 -155 252 -37 14 -22 -43 113 -424 67 -190
56 -302 -41 -410 -51 -56 -155 -130 -196 -138 -38 -7 -152 48 -205 99 -57 56
-106 165 -106 237 -1 47 7 71 45 146 89 175 95 238 70 655 -14 230 -6 394 23
497 47 164 198 304 390 362 120 37 290 47 502 31z m-2404 -790 c14 -11 39 -44
55 -73 67 -122 180 -309 245 -407 139 -210 231 -306 351 -368 68 -35 76 -36
191 -40 102 -3 129 -1 182 17 75 25 73 25 73 3 0 -17 -131 -112 -298 -214 -42
-27 -95 -59 -117 -73 -64 -42 -313 -160 -396 -189 -289 -100 -561 -99 -854 4
-94 34 -267 117 -408 196 -144 82 -367 233 -367 249 0 19 -1 19 89 -6 62 -17
95 -21 176 -17 86 4 109 9 166 36 118 56 166 106 330 337 136 192 213 313 268
420 72 139 80 145 195 145 79 0 97 -3 119 -20z m-343 -16 c0 -8 -22 -47 -49
-87 -26 -40 -77 -117 -112 -172 -93 -146 -247 -360 -303 -422 -34 -37 -71 -65
-125 -91 -75 -37 -77 -37 -196 -36 -108 0 -127 3 -192 29 -39 16 -82 36 -94
46 -21 16 -22 20 -10 42 33 62 153 210 237 292 206 203 450 336 734 400 100
23 110 23 110 -1z m706 -39 c229 -77 455 -223 629 -406 70 -74 175 -222 175
-246 0 -16 -77 -55 -149 -77 -121 -36 -298 -11 -394 54 -74 50 -163 155 -289
341 -86 127 -211 356 -202 370 11 19 114 3 230 -36z m935 -905 c15 -41 34 -96
44 -123 9 -26 15 -53 12 -61 -3 -8 -37 -18 -84 -25 -98 -15 -254 -89 -336
-159 -178 -151 -265 -328 -537 -1087 -114 -320 -124 -348 -160 -452 -51 -144
-35 -137 -329 -141 -297 -4 -283 -9 -329 126 -17 48 -58 166 -92 262 -34 96
-74 213 -90 260 -15 47 -47 137 -70 200 -23 63 -48 135 -57 160 -42 124 -165
359 -250 479 -141 197 -355 320 -559 321 -37 0 -66 5 -72 13 -15 19 79 282
101 281 8 -1 76 -42 149 -91 279 -188 610 -364 829 -441 137 -48 245 -65 414
-65 322 0 476 66 1184 507 68 42 135 86 149 97 40 31 55 21 83 -61z m86 -302
c4 -7 8 -77 8 -155 -1 -112 -4 -146 -15 -157 -20 -20 -170 -74 -250 -91 -36
-7 -110 -16 -165 -20 -55 -3 -115 -8 -133 -11 -49 -8 -49 15 -1 98 94 161 243
276 424 329 72 21 119 23 132 7z m-2861 -29 c108 -20 220 -72 304 -143 83 -69
200 -232 184 -257 -5 -8 -43 -10 -133 -6 -128 6 -200 21 -351 73 -187 64 -214
112 -164 292 l15 52 42 0 c24 0 70 -5 103 -11z m-60 -407 c106 -44 349 -82
524 -82 74 0 109 -23 134 -86 11 -27 32 -77 47 -111 47 -103 79 -182 79 -193
0 -31 -255 2 -374 49 -124 50 -378 183 -420 221 -48 43 -86 125 -86 185 0 54
4 55 96 17z m2920 -39 c-15 -127 -66 -184 -238 -267 -190 -90 -316 -127 -492
-142 l-79 -7 6 29 c7 41 119 300 139 324 16 18 30 20 132 20 73 0 150 7 213
19 94 19 273 67 282 77 2 2 13 4 24 4 18 0 19 -5 13 -57z m-2796 -341 c233
-117 292 -136 530 -168 69 -9 138 -24 153 -33 24 -14 36 -40 88 -196 33 -98
57 -185 54 -192 -5 -14 -25 -13 -175 14 -394 70 -668 272 -770 567 -17 50 -17
66 -1 66 3 0 58 -26 121 -58z m2710 35 c0 -6 -22 -57 -49 -112 -102 -208 -285
-368 -506 -443 -117 -39 -314 -63 -333 -40 -12 15 96 349 123 378 12 13 39 19
109 23 51 4 115 11 142 17 107 25 282 88 378 136 106 53 136 62 136 41z
m-2343 -611 c64 -26 245 -75 352 -95 71 -14 127 -38 153 -67 36 -42 61 -135
38 -149 -19 -12 -264 69 -315 105 -5 4 -36 22 -68 39 -81 45 -225 149 -238
172 -13 26 3 25 78 -5z m1890 -2 c4 -11 -3 -23 -18 -36 -45 -36 -134 -95 -184
-123 -27 -15 -68 -38 -91 -51 -55 -33 -236 -96 -246 -86 -4 4 5 45 20 91 19
59 34 88 52 100 14 9 79 30 145 45 66 16 158 39 205 51 106 28 109 29 117 9z
m-5281 -159 c67 -30 167 -127 204 -200 49 -97 24 -275 -40 -275 -26 0 -106 45
-147 83 -18 16 -23 31 -23 70 0 33 -6 57 -17 69 -18 20 -72 25 -75 6 -1 -7 -2
-96 -2 -198 -1 -198 -3 -210 -58 -281 -77 -101 -203 -86 -319 38 -83 89 -129
191 -129 288 0 80 42 195 71 195 15 0 169 -131 169 -143 0 -6 -5 -36 -12 -68
-10 -50 -9 -60 5 -83 54 -81 80 32 57 238 -9 75 -8 97 6 138 19 58 64 114 108
133 52 22 138 18 202 -10z m9208 -19 c177 -86 316 -261 324 -408 4 -66 0 -85
-36 -168 -24 -54 -125 -191 -176 -238 -38 -35 -49 -41 -65 -32 -11 5 -82 67
-158 137 -76 71 -203 186 -281 257 -78 71 -142 136 -142 143 0 50 197 274 270
306 110 48 168 49 264 3z m-540 -455 c70 -71 70 -78 -20 -159 -35 -33 -64 -64
-64 -70 0 -13 82 -82 97 -82 6 0 32 25 58 55 25 30 55 55 64 55 26 0 121 -78
121 -100 0 -10 -20 -42 -45 -71 -25 -29 -45 -60 -45 -68 0 -15 59 -61 78 -61
4 0 35 34 67 76 33 42 67 80 76 84 11 6 34 -3 76 -30 70 -44 87 -68 74 -102
-23 -57 -296 -358 -326 -358 -31 0 -272 208 -436 377 -141 144 -163 174 -155
200 10 27 289 313 306 313 9 0 42 -26 74 -59z m-8167 -63 c110 -52 203 -186
203 -293 0 -141 -171 -344 -379 -450 -66 -34 -83 -38 -145 -38 -46 0 -85 6
-111 18 -53 23 -165 138 -195 200 -57 117 -19 254 104 374 195 193 376 258
523 189z m7761 -280 c15 -20 104 -290 147 -448 9 -36 21 -76 26 -90 4 -14 15
-54 24 -90 9 -36 20 -81 26 -101 15 -61 11 -102 -16 -142 -31 -45 -159 -137
-191 -137 -31 0 -390 288 -582 466 -61 57 -63 60 -47 81 25 36 174 143 198
143 14 0 45 -21 77 -53 183 -178 261 -250 265 -245 5 4 -72 194 -139 341 -14
32 -26 66 -26 77 0 29 188 208 221 210 4 0 11 -6 17 -12z m-7311 -144 c69 -52
113 -96 113 -112 0 -18 -29 -50 -317 -354 -40 -42 -73 -84 -72 -94 0 -11 25
-38 55 -62 30 -24 54 -50 54 -59 0 -8 -19 -42 -42 -74 -50 -68 -67 -72 -131
-33 -105 66 -271 191 -280 211 -8 19 -5 30 19 65 38 56 523 548 540 548 7 0
34 -16 61 -36z m282 -252 c52 -37 97 -77 102 -89 8 -22 9 -21 -122 -269 -38
-73 -69 -135 -69 -138 0 -17 30 5 176 129 179 151 187 155 271 108 73 -40 150
-90 158 -102 12 -20 -5 -45 -48 -75 -401 -278 -605 -406 -657 -413 -69 -10
-230 90 -246 152 -5 20 8 61 47 150 5 11 17 43 28 71 19 49 33 82 87 202 13
29 24 54 24 57 0 2 15 36 34 77 18 40 44 96 56 123 22 49 47 85 59 85 3 0 48
-31 100 -68z m6333 -129 c9 -10 58 -92 110 -183 53 -91 106 -183 119 -205 33
-58 70 -105 81 -105 5 0 36 18 67 40 32 22 64 38 72 35 19 -8 99 -119 99 -138
0 -31 -291 -267 -330 -267 -10 0 -30 15 -44 33 -39 51 -138 214 -193 317 -28
52 -81 149 -117 215 -36 66 -66 129 -66 141 0 15 24 37 82 77 45 32 87 57 93
57 7 0 19 -8 27 -17z m-302 -273 c97 -49 222 -246 270 -425 52 -195 6 -309
-160 -387 -83 -40 -136 -49 -195 -35 -67 17 -102 37 -151 89 -54 56 -84 106
-127 209 -115 277 -79 448 112 541 85 41 180 44 251 8z m-5254 -71 c167 -86
194 -103 194 -126 0 -17 -45 -100 -68 -125 -23 -27 -51 -22 -120 22 -34 22
-69 40 -76 40 -15 0 -60 -105 -51 -120 3 -5 31 -22 61 -37 77 -37 81 -50 44
-123 -17 -34 -37 -63 -45 -67 -9 -3 -40 7 -70 21 -31 14 -62 26 -69 26 -14 0
-53 -86 -44 -95 3 -3 45 -23 94 -44 l89 -38 -2 -40 c-1 -22 -12 -63 -25 -89
-27 -58 -53 -66 -120 -36 -24 11 -86 38 -138 61 -129 56 -204 102 -208 128 -8
52 188 457 324 671 21 33 41 52 53 52 10 0 90 -37 177 -81z m4620 -204 c58
-17 134 -78 134 -106 0 -26 -72 -103 -115 -123 -31 -15 -37 -15 -75 0 -41 17
-42 17 -67 -9 -25 -24 -25 -27 -11 -49 12 -17 33 -28 75 -37 215 -49 312 -103
364 -203 24 -47 24 -89 0 -136 -53 -103 -206 -180 -336 -170 -98 8 -235 85
-235 132 0 9 34 41 76 72 l76 57 63 -34 c55 -29 66 -32 89 -21 66 30 8 62
-242 132 -120 34 -182 107 -182 214 0 129 99 238 255 281 66 18 73 18 131 0z
m-3682 -154 c115 -34 215 -66 223 -72 16 -14 17 -55 1 -115 -18 -66 -38 -76
-112 -57 -32 8 -62 11 -66 6 -6 -7 -22 -58 -60 -198 -4 -16 -15 -57 -25 -90
-9 -33 -20 -73 -25 -90 -38 -142 -53 -191 -63 -198 -15 -10 -114 0 -182 17
-46 12 -50 16 -49 42 2 31 3 35 64 234 23 74 46 149 50 165 5 17 17 55 26 85
9 30 17 68 18 84 1 28 -2 30 -67 47 -67 17 -97 33 -97 51 0 5 16 43 35 85 l35
75 42 -5 c24 -3 137 -32 252 -66z m3178 12 c9 -10 18 -29 21 -43 3 -14 24 -86
46 -160 77 -250 131 -480 131 -550 0 -21 -6 -43 -14 -49 -17 -14 -120 -48
-173 -57 l-40 -6 -79 94 c-44 52 -98 119 -121 148 -48 59 -53 51 -28 -40 38
-141 55 -222 50 -230 -11 -17 -60 -39 -136 -59 -80 -21 -105 -17 -114 22 -13
60 -47 239 -55 292 -4 33 -17 121 -28 195 -33 218 -36 284 -15 302 24 20 171
48 199 38 29 -11 52 -36 142 -155 53 -69 78 -95 80 -82 2 9 -8 63 -22 120 -32
131 -36 160 -27 175 5 9 138 60 162 62 3 0 13 -8 21 -17z m-2746 -148 c53 -14
99 -25 101 -25 7 0 -3 -80 -15 -135 -42 -182 -51 -230 -43 -238 5 -5 21 -7 36
-5 31 3 33 9 69 168 32 140 39 165 50 179 8 11 30 12 101 7 134 -9 135 -10
135 -64 0 -24 -4 -72 -10 -106 -16 -99 -38 -245 -50 -331 -6 -44 -18 -123 -26
-175 -9 -52 -17 -101 -17 -109 -1 -8 -14 -23 -29 -34 -26 -19 -32 -20 -124 -8
-53 6 -105 16 -116 22 -22 12 -22 20 8 178 19 95 15 103 -46 99 -34 -3 -35 -4
-52 -73 -9 -38 -17 -84 -17 -100 -1 -46 -26 -75 -64 -75 -41 1 -203 44 -222
60 -19 15 -19 34 -1 91 7 24 19 64 26 89 7 25 18 65 25 90 7 25 18 65 25 90 7
25 18 65 25 90 7 25 18 65 25 90 68 247 69 250 96 250 8 0 57 -11 110 -25z
m2063 -63 c9 -16 17 -77 41 -292 5 -47 14 -109 20 -139 22 -115 3 -245 -46
-308 -51 -67 -109 -90 -285 -113 -87 -12 -186 -2 -234 22 -40 21 -75 62 -89
107 -22 71 -37 555 -20 648 5 28 14 38 40 49 45 19 178 19 193 0 14 -16 28
-167 40 -405 6 -142 10 -165 26 -177 22 -16 64 -9 83 14 16 21 16 26 -9 304
-12 131 -19 244 -15 253 11 30 86 55 168 55 64 0 79 -3 87 -18z m-1268 -22
c116 -9 136 -14 152 -32 9 -11 15 -28 13 -37 -2 -9 -7 -42 -11 -74 -9 -75 -20
-81 -121 -62 -42 8 -81 12 -85 9 -5 -3 -9 -34 -9 -69 0 -72 3 -75 83 -75 75 0
78 -4 75 -96 l-3 -79 -80 -5 -80 -5 -3 -32 c-6 -64 7 -73 112 -73 65 0 97 -4
105 -13 6 -8 14 -46 17 -85 11 -112 10 -112 -196 -112 -191 0 -275 13 -292 44
-14 27 -4 366 16 536 9 69 18 150 22 180 10 85 15 90 87 90 35 0 124 -5 198
-10z"/>
<path d="M6228 12019 c-14 -6 -29 -16 -32 -24 -4 -12 19 -171 40 -267 11 -54
53 -28 99 62 12 24 18 59 19 108 1 71 0 75 -32 103 -34 31 -50 34 -94 18z"/>
<path d="M3630 10606 c-52 -34 -140 -116 -140 -130 0 -24 228 -226 255 -226
22 0 30 44 29 165 0 85 -5 118 -19 145 -38 76 -65 86 -125 46z"/>
<path d="M11975 4720 c-23 -25 -33 -13 149 -164 74 -62 134 -105 142 -102 18
7 9 58 -19 106 -50 86 -170 180 -230 180 -13 0 -32 -9 -42 -20z"/>
<path d="M3313 4224 c-41 -21 -158 -127 -195 -178 -31 -43 -36 -87 -12 -107
14 -11 24 -9 70 15 68 36 218 166 240 208 34 66 -24 101 -103 62z"/>
<path d="M10064 3135 c-14 -21 -14 -32 -4 -77 25 -110 124 -279 170 -291 26
-7 50 17 50 49 0 63 -98 278 -146 322 -32 28 -50 28 -70 -3z"/>
</g>
</svg>
