<?xml version="1.0" standalone="no"?>
<!DOCTYPE svg PUBLIC "-//W3C//DTD SVG 20010904//EN"
 "http://www.w3.org/TR/2001/REC-SVG-20010904/DTD/svg10.dtd">
<svg version="1.0" xmlns="http://www.w3.org/2000/svg"
 width="1000.000000pt" height="1000.000000pt" viewBox="0 0 1000.000000 1000.000000"
 preserveAspectRatio="xMidYMid meet">
<metadata>
Created by potrace 1.16, written by Peter Selinger 2001-2019
</metadata>
<g transform="translate(0.000000,1000.000000) scale(0.100000,-0.100000)"
fill="#fff" stroke="none">
<path d="M4717 9084 c-3 -4 -30 -7 -59 -9 -106 -4 -229 -18 -234 -27 -3 -4
-19 -8 -37 -8 -41 0 -218 -30 -238 -40 -9 -4 -41 -11 -73 -15 -31 -4 -59 -11
-62 -16 -3 -5 -18 -9 -34 -9 -16 0 -31 -4 -34 -9 -3 -4 -28 -11 -55 -15 -28
-4 -53 -11 -56 -16 -3 -6 -19 -10 -35 -10 -16 0 -32 -4 -35 -10 -3 -5 -16 -10
-29 -10 -12 0 -31 -7 -42 -15 -10 -8 -29 -15 -41 -15 -12 0 -24 -4 -27 -9 -3
-5 -22 -12 -42 -15 -19 -4 -51 -16 -70 -26 -19 -11 -35 -19 -37 -17 -5 5 -97
-38 -97 -45 0 -4 -3 -7 -7 -6 -9 1 -30 -6 -80 -28 -17 -8 -34 -14 -38 -14 -4
0 -19 -8 -33 -19 -15 -10 -38 -22 -52 -26 -14 -4 -36 -15 -50 -25 -14 -10 -36
-21 -50 -25 -14 -4 -38 -18 -53 -31 -16 -13 -33 -24 -38 -24 -12 0 -87 -47
-117 -74 -13 -12 -27 -20 -30 -19 -4 1 -27 -12 -52 -28 -25 -16 -54 -34 -65
-41 -11 -7 -41 -30 -67 -50 -26 -21 -51 -38 -56 -38 -4 0 -19 -11 -32 -25 -13
-14 -28 -25 -32 -25 -12 0 -124 -90 -207 -167 -37 -35 -72 -63 -77 -63 -13 0
-234 -223 -234 -235 0 -6 -29 -40 -65 -75 -36 -35 -65 -69 -65 -75 -1 -5 -30
-41 -65 -80 -36 -38 -65 -75 -65 -81 0 -6 -11 -21 -25 -34 -14 -13 -25 -28
-25 -32 0 -5 -18 -31 -40 -57 -22 -26 -40 -51 -40 -55 0 -5 -11 -22 -25 -40
-38 -47 -50 -65 -86 -131 -11 -22 -24 -42 -28 -45 -4 -3 -15 -23 -25 -45 -10
-22 -26 -49 -36 -60 -10 -11 -21 -31 -25 -45 -4 -14 -15 -36 -25 -50 -10 -14
-21 -36 -25 -50 -4 -14 -16 -37 -26 -52 -11 -14 -19 -29 -19 -33 0 -4 -6 -21
-14 -38 -17 -39 -28 -71 -26 -76 1 -2 -2 -7 -7 -10 -9 -6 -43 -74 -48 -95 -3
-14 -14 -43 -31 -83 -8 -17 -14 -38 -14 -46 0 -9 -4 -19 -10 -22 -5 -3 -10
-17 -10 -30 0 -13 -4 -26 -9 -29 -5 -4 -12 -24 -16 -46 -4 -22 -11 -42 -16
-46 -5 -3 -9 -16 -9 -29 0 -13 -4 -27 -10 -30 -5 -3 -12 -28 -16 -56 -4 -27
-11 -52 -15 -55 -5 -3 -9 -18 -9 -34 0 -16 -4 -31 -9 -34 -5 -3 -12 -31 -16
-62 -4 -32 -11 -64 -15 -73 -10 -20 -40 -197 -40 -238 0 -18 -4 -34 -8 -37 -9
-6 -24 -128 -28 -229 -1 -32 -5 -61 -8 -64 -8 -8 -8 -558 0 -566 3 -3 7 -32 9
-64 4 -115 18 -244 27 -249 4 -3 8 -17 8 -31 0 -36 30 -204 40 -224 5 -9 11
-41 15 -73 4 -31 11 -59 16 -62 5 -3 9 -18 9 -34 0 -16 4 -31 9 -34 4 -3 11
-28 15 -55 4 -28 11 -53 16 -56 6 -3 10 -17 10 -30 0 -13 4 -26 9 -29 5 -4 12
-24 16 -46 4 -22 11 -42 16 -46 5 -3 9 -16 9 -29 0 -13 5 -27 10 -30 6 -3 10
-13 10 -22 0 -8 6 -29 14 -46 17 -40 28 -69 31 -83 5 -21 39 -89 48 -95 5 -3
9 -10 9 -15 1 -13 8 -34 24 -71 8 -17 14 -34 14 -38 0 -4 8 -19 19 -33 10 -15
22 -38 26 -52 4 -14 15 -36 25 -50 10 -14 21 -36 25 -50 4 -14 15 -34 25 -45
10 -11 26 -38 36 -60 10 -22 21 -42 25 -45 4 -3 17 -23 28 -45 36 -66 48 -84
86 -131 14 -18 25 -35 25 -40 0 -4 18 -29 40 -55 22 -26 40 -52 40 -57 0 -4
11 -19 25 -32 14 -13 25 -28 25 -34 0 -6 29 -42 65 -81 35 -38 64 -75 65 -80
0 -6 34 -44 75 -85 41 -41 75 -79 75 -85 0 -13 172 -185 185 -185 6 0 40 -29
75 -65 35 -36 69 -65 74 -65 5 0 41 -29 81 -65 40 -36 77 -65 82 -65 5 0 20
-11 33 -25 13 -14 28 -25 32 -25 5 0 31 -18 57 -40 26 -22 51 -40 55 -40 5 0
22 -11 40 -25 47 -38 65 -50 131 -86 22 -11 42 -24 45 -28 3 -4 23 -15 45 -25
22 -10 49 -26 60 -36 11 -10 31 -21 45 -25 14 -4 36 -15 50 -25 14 -10 36 -21
50 -25 14 -4 37 -16 52 -26 14 -11 29 -19 33 -19 4 0 21 -6 38 -14 50 -22 71
-29 80 -28 4 1 7 -1 7 -6 0 -7 17 -15 105 -49 22 -9 54 -22 72 -29 17 -8 38
-14 46 -14 9 0 19 -4 22 -10 3 -5 17 -10 30 -10 13 0 26 -4 29 -9 4 -5 24 -12
46 -16 22 -4 42 -11 46 -16 3 -5 16 -9 29 -9 13 0 26 -4 29 -9 3 -4 28 -11 55
-15 28 -4 53 -11 56 -16 3 -6 19 -10 35 -10 16 0 31 -4 34 -9 3 -5 31 -12 62
-16 32 -4 64 -10 73 -15 22 -11 190 -40 234 -40 20 0 38 -4 41 -8 5 -9 128
-23 234 -27 29 -2 56 -5 59 -9 8 -8 558 -8 566 0 3 4 30 7 59 9 106 4 229 18
234 27 3 4 21 8 41 8 44 0 212 29 234 40 9 5 41 11 73 15 31 4 59 11 62 16 3
5 18 9 34 9 16 0 32 4 35 10 3 5 28 12 56 16 27 4 52 11 55 15 3 5 16 9 29 9
13 0 26 4 29 9 4 5 24 12 46 16 22 4 42 11 46 16 3 5 16 9 29 9 13 0 27 4 30
10 3 5 13 10 22 10 8 0 29 6 46 14 40 17 69 28 83 31 21 5 89 39 95 48 3 5 9
8 13 8 8 -1 35 9 73 25 17 8 34 14 38 14 4 0 19 8 33 19 15 10 38 22 52 26 14
4 36 15 50 25 14 10 36 21 50 25 14 4 34 15 45 25 11 10 38 26 60 36 22 10 42
21 45 25 3 4 23 17 45 28 66 36 84 48 131 86 18 14 35 25 40 25 4 0 29 18 55
40 26 22 52 40 57 40 4 0 19 11 32 25 13 14 28 25 33 25 5 0 42 29 82 65 40
36 76 65 81 65 5 0 39 29 74 65 35 36 69 65 75 65 13 0 185 172 185 185 0 6
34 44 75 85 41 41 75 79 75 84 0 5 29 41 65 81 36 40 65 77 65 82 0 5 11 20
25 33 14 13 25 28 25 32 0 5 18 31 40 57 22 26 40 51 40 55 0 5 11 22 25 40
38 47 50 65 86 131 11 22 24 42 28 45 4 3 15 23 25 45 10 22 26 49 36 60 10
11 21 31 25 45 4 14 15 36 25 50 10 14 21 36 25 50 4 14 16 37 26 52 11 14 19
29 19 33 0 4 6 21 14 38 16 37 23 58 24 71 0 5 4 12 9 15 9 6 43 74 48 95 3
14 14 43 31 83 8 17 14 38 14 46 0 9 5 19 10 22 5 3 10 17 10 30 0 13 4 26 9
29 5 4 12 24 16 46 4 22 11 42 16 46 5 3 9 16 9 29 0 13 4 27 10 30 5 3 12 28
16 56 4 27 11 52 15 55 5 3 9 18 9 34 0 16 4 31 9 34 5 3 12 31 16 62 4 32 10
64 15 73 10 20 40 188 40 224 0 14 4 28 9 31 4 3 11 45 15 93 3 49 10 129 15
178 13 120 13 524 0 655 -5 58 -12 135 -16 173 -3 37 -10 70 -14 73 -5 3 -9
19 -9 37 0 41 -30 218 -40 238 -4 9 -11 41 -15 73 -4 31 -11 59 -16 62 -5 3
-9 18 -9 34 0 16 -4 31 -9 34 -4 3 -11 28 -15 55 -4 28 -11 53 -16 56 -6 3
-10 17 -10 30 0 13 -4 26 -9 29 -5 4 -12 24 -16 46 -4 22 -11 42 -16 46 -5 3
-9 16 -9 29 0 13 -4 27 -10 30 -5 3 -10 13 -10 22 0 8 -6 29 -14 46 -17 40
-28 69 -31 83 -5 21 -39 89 -48 95 -5 3 -8 8 -7 10 2 5 -9 37 -26 76 -8 17
-14 34 -14 38 0 4 -8 19 -19 33 -10 15 -22 38 -26 52 -4 14 -15 36 -25 50 -10
14 -21 36 -25 50 -4 14 -18 38 -31 53 -13 16 -24 33 -24 38 0 7 -30 60 -78
134 -6 11 -15 27 -19 35 -4 8 -11 20 -15 25 -4 6 -19 24 -33 41 -14 18 -25 35
-25 40 0 4 -18 29 -40 55 -22 26 -40 52 -40 57 0 4 -11 19 -25 32 -14 13 -25
28 -25 34 0 6 -29 43 -65 81 -35 39 -64 75 -65 80 0 6 -34 44 -75 85 -41 41
-75 79 -75 85 0 13 -202 215 -216 215 -5 0 -32 23 -59 50 -27 28 -54 50 -60
50 -5 1 -41 30 -80 65 -38 36 -75 65 -81 65 -6 0 -21 11 -34 25 -13 14 -28 25
-32 25 -5 0 -31 18 -57 40 -26 22 -51 40 -55 40 -5 0 -22 11 -40 25 -17 14
-35 29 -41 33 -13 10 -38 20 -47 18 -3 0 -17 8 -30 20 -28 24 -87 61 -148 92
-25 13 -63 34 -85 48 -22 13 -51 29 -65 34 -14 6 -34 15 -45 22 -34 19 -49 27
-85 41 -60 25 -75 30 -82 29 -5 -1 -8 1 -8 6 0 4 -12 12 -27 18 -32 13 -67 26
-70 25 -2 -1 -18 8 -37 19 -19 10 -51 22 -70 26 -20 3 -39 10 -42 15 -3 5 -16
9 -29 9 -13 0 -26 4 -29 9 -4 5 -24 12 -46 16 -22 4 -42 11 -46 16 -3 5 -16 9
-29 9 -13 0 -27 4 -30 10 -3 5 -28 12 -56 16 -27 4 -52 11 -55 15 -3 5 -18 9
-34 9 -16 0 -31 4 -34 9 -3 5 -31 12 -62 16 -32 4 -64 11 -73 15 -20 10 -197
40 -238 40 -18 0 -34 4 -37 8 -5 9 -128 23 -234 27 -29 2 -56 5 -59 9 -4 3
-131 6 -283 6 -152 0 -279 -3 -283 -6z m610 -539 c288 -31 579 -92 823 -175
460 -154 891 -415 1286 -777 101 -92 120 -123 109 -180 -6 -33 -49 -81 -327
-359 l-319 -321 79 -94 c96 -116 186 -248 269 -398 35 -63 63 -115 63 -117 0
-1 13 -31 29 -66 177 -384 257 -840 222 -1253 -11 -120 -53 -374 -67 -396 -2
-4 -19 -10 -38 -13 -41 -8 -173 -61 -193 -78 -20 -17 -26 -3 -14 34 19 60 69
331 76 413 3 44 9 88 11 98 5 16 -18 17 -375 17 l-380 0 -5 -32 c-43 -299
-102 -468 -235 -683 -252 -409 -696 -691 -1160 -736 -431 -42 -823 68 -1150
323 l-64 50 -263 -263 c-146 -145 -263 -269 -262 -275 4 -16 126 -116 225
-186 300 -209 684 -356 1048 -399 162 -19 475 -17 610 4 192 31 452 104 592
168 27 12 77 35 113 51 266 122 590 381 795 635 l50 62 21 -77 c11 -42 30
-100 42 -128 l21 -51 -78 -89 c-94 -108 -261 -256 -393 -348 -96 -66 -279
-176 -348 -208 -144 -67 -200 -90 -305 -126 -290 -99 -521 -136 -845 -135
-194 0 -246 4 -381 27 -86 14 -203 38 -260 52 -392 98 -773 305 -1086 592 -99
90 -123 132 -109 189 5 19 113 134 328 350 l321 322 -40 48 c-87 104 -188 280
-236 408 -81 221 -102 338 -101 580 0 220 14 315 76 500 76 229 229 471 402
632 84 79 102 89 116 66 6 -10 30 -51 54 -92 l44 -74 -90 -98 c-198 -213 -320
-458 -363 -731 -48 -309 23 -663 183 -912 225 -349 554 -567 952 -632 204 -33
502 0 685 76 332 138 593 381 735 686 73 156 130 395 130 546 0 36 7 64 20 86
38 61 43 62 530 62 416 0 441 1 436 18 -2 9 -7 51 -11 92 -19 243 -102 537
-225 796 -174 365 -463 692 -833 941 -73 49 -99 72 -103 92 -2 14 -16 69 -30
121 -14 52 -27 105 -31 118 l-5 23 38 -18 c149 -69 356 -203 508 -330 l89 -74
264 263 c145 144 263 266 263 270 0 8 -172 160 -235 207 -240 182 -598 383
-835 468 -435 158 -754 217 -1175 217 -252 0 -344 -7 -575 -45 -547 -90 -1076
-327 -1515 -678 -393 -315 -697 -697 -926 -1164 -76 -156 -103 -187 -164 -187
-52 0 -115 66 -115 122 0 35 179 389 264 520 290 453 650 817 1086 1100 268
173 515 291 830 395 163 54 205 65 390 102 337 68 730 89 1037 56z m-109 -551
c233 -47 415 -146 588 -318 230 -230 334 -482 334 -806 0 -221 -32 -343 -155
-595 -77 -157 -207 -362 -321 -505 -96 -120 -378 -400 -512 -508 -148 -120
-150 -120 -281 -15 -126 101 -397 372 -497 498 -240 301 -423 623 -489 860
-26 94 -32 369 -11 476 49 240 146 420 320 595 170 169 352 269 581 317 97 21
343 22 443 1z m-1333 -741 c-13 -38 -30 -101 -39 -141 -8 -41 -16 -75 -18 -76
-2 -2 -50 -36 -108 -76 -287 -199 -508 -421 -684 -689 -255 -387 -393 -892
-372 -1356 14 -286 60 -509 160 -768 25 -65 46 -131 46 -147 0 -16 -11 -42
-25 -58 l-25 -30 -58 23 c-31 13 -70 26 -85 30 -23 5 -34 18 -57 68 -158 349
-226 865 -170 1288 28 219 95 482 155 614 12 28 25 60 29 73 4 13 35 77 67
144 192 388 507 743 884 995 78 52 297 172 316 173 4 0 -3 -30 -16 -67z m4329
-785 c42 -18 70 -76 146 -293 146 -419 208 -820 196 -1255 -8 -284 -28 -458
-82 -700 -31 -141 -112 -398 -127 -407 -7 -3 -9 -3 -5 1 11 13 -22 108 -75
209 l-50 97 28 138 c56 277 85 526 85 746 0 406 -98 900 -249 1255 -33 78 -38
131 -17 170 26 46 95 65 150 39z m-2130 -321 c60 -56 66 -66 66 -102 0 -83
-70 -140 -143 -116 -18 6 -52 30 -74 54 l-42 42 52 92 c29 51 57 92 64 93 7 0
41 -28 77 -63z m-1328 -849 c33 -29 89 -77 126 -105 61 -50 69 -53 121 -53 54
0 58 2 144 71 48 40 104 87 124 106 l36 35 38 -33 c67 -59 108 -142 125 -257
39 -248 -146 -491 -404 -534 -170 -28 -373 66 -468 217 -88 141 -97 319 -23
467 24 48 99 138 116 138 3 0 33 -24 65 -52z m-3136 -207 c39 -28 50 -60 50
-146 0 -172 38 -476 85 -685 42 -184 135 -471 185 -570 56 -111 70 -166 74
-281 4 -140 7 -154 57 -256 88 -179 229 -356 403 -505 60 -53 72 -59 103 -55
19 3 43 13 54 23 23 21 7 31 181 -119 224 -194 405 -319 643 -443 470 -244
1033 -384 1548 -384 488 0 1041 133 1492 358 115 57 335 186 395 232 19 14 64
48 100 75 109 81 240 194 342 292 l96 94 82 -66 c44 -36 85 -63 91 -60 5 4 9
0 9 -7 0 -20 -246 -256 -375 -360 -156 -124 -279 -208 -445 -303 -249 -143
-407 -215 -650 -295 -395 -130 -661 -177 -1075 -186 -235 -6 -450 7 -600 36
-27 5 -88 17 -135 25 -191 36 -458 113 -680 198 -157 59 -470 230 -670 366
-581 393 -1075 1026 -1315 1686 -113 310 -179 597 -210 919 -22 219 -18 365
10 396 45 50 104 58 155 21z m6160 -735 c252 -62 449 -254 519 -506 28 -100
28 -248 1 -354 -48 -188 -194 -425 -385 -625 -111 -117 -262 -241 -293 -241
-46 0 -248 183 -383 346 -120 147 -249 364 -293 494 -12 36 -20 96 -23 176 -5
102 -2 132 16 199 70 254 264 447 516 511 67 17 257 17 325 0z m-5006 -464
c136 -63 229 -158 286 -292 33 -75 40 -250 15 -336 -52 -182 -211 -406 -400
-564 -54 -46 -91 -70 -108 -70 -33 0 -236 193 -318 303 -78 106 -152 236 -179
317 -31 91 -26 268 10 350 51 119 144 222 250 275 94 48 131 55 255 52 111 -3
125 -5 189 -35z"/>
<path d="M4865 7580 c-178 -29 -345 -118 -472 -254 -64 -68 -143 -189 -143
-220 0 -50 53 -85 99 -66 16 6 40 35 61 72 44 77 157 192 233 237 212 125 454
128 680 9 78 -41 212 -173 251 -248 40 -77 54 -90 93 -90 39 0 73 29 73 63 0
49 -81 170 -174 262 -121 119 -223 178 -382 220 -73 20 -239 27 -319 15z m238
-34 c101 -10 238 -67 342 -141 74 -53 159 -140 130 -132 -11 3 -36 8 -56 11
-20 4 -60 25 -90 47 -96 72 -221 126 -314 136 -27 2 -65 8 -84 12 -19 3 -75 1
-125 -6 -150 -22 -232 -55 -345 -138 -53 -39 -139 -75 -179 -75 -14 0 96 104
153 145 106 75 235 128 343 141 31 3 59 8 60 9 4 4 89 -1 165 -9z"/>
<path d="M4856 7179 c-22 -5 -74 -26 -115 -46 -135 -64 -278 -238 -252 -306 6
-15 22 -32 35 -38 43 -20 71 -4 121 70 49 74 110 126 191 163 40 18 68 22 154
22 98 1 110 -1 172 -31 81 -38 147 -97 193 -173 48 -79 85 -91 132 -44 32 32
27 63 -22 140 -71 111 -190 199 -324 238 -60 18 -219 20 -285 5z"/>
<path d="M4914 6804 c-85 -31 -145 -116 -146 -207 -1 -176 176 -286 332 -207
124 63 159 242 68 346 -62 71 -170 100 -254 68z m261 -236 c11 -11 -1 -50 -27
-88 -65 -96 -206 -110 -285 -28 -40 41 -69 107 -51 112 7 3 20 7 28 10 22 8
327 2 335 -6z"/>
<path d="M7491 4094 c-126 -34 -256 -133 -311 -237 l-25 -47 21 -21 c30 -30
53 -18 92 47 81 134 253 212 408 185 121 -22 217 -83 284 -184 48 -71 62 -82
90 -67 31 16 24 51 -21 120 -114 170 -342 257 -538 204z m-178 -149 c-22 -19
-55 -57 -73 -85 -18 -28 -35 -48 -38 -45 -9 8 68 114 107 145 49 41 53 27 4
-15z"/>
<path d="M7537 3860 c-78 -20 -152 -69 -198 -133 -38 -52 -39 -94 -2 -103 21
-6 30 -2 42 15 72 103 137 142 236 143 101 0 149 -29 241 -149 19 -25 24 -26
48 -15 31 14 32 30 7 81 -26 50 -91 108 -156 137 -60 28 -160 38 -218 24z"/>
<path d="M7553 3619 c-98 -48 -98 -191 1 -239 53 -25 69 -25 121 0 50 24 75
65 75 120 0 57 -30 104 -80 124 -52 21 -67 20 -117 -5z"/>
<path d="M2427 3706 c-31 -13 -78 -40 -102 -61 -50 -41 -100 -117 -91 -140 10
-27 43 -17 66 20 99 160 326 196 465 73 26 -23 58 -59 71 -80 46 -73 92 -38
48 37 -34 58 -94 112 -163 144 -82 38 -212 41 -294 7z"/>
<path d="M2452 3524 c-85 -42 -143 -133 -96 -151 11 -4 29 9 57 42 48 57 88
75 160 75 62 0 119 -31 156 -86 39 -57 89 -37 58 23 -58 110 -217 156 -335 97z"/>
<path d="M2501 3354 c-27 -22 -31 -32 -31 -74 0 -42 4 -52 31 -74 50 -43 131
-28 157 29 46 101 -72 191 -157 119z"/>
</g>
</svg>
