<?xml version="1.0" standalone="no"?>
<!DOCTYPE svg PUBLIC "-//W3C//DTD SVG 20010904//EN"
 "http://www.w3.org/TR/2001/REC-SVG-20010904/DTD/svg10.dtd">
<svg version="1.0" xmlns="http://www.w3.org/2000/svg"
 width="1000.000000pt" height="1000.000000pt" viewBox="0 0 1000.000000 1000.000000"
 preserveAspectRatio="xMidYMid meet">

<g transform="translate(0.000000,1000.000000) scale(0.100000,-0.100000)"
fill="#fff" stroke="none">
<path d="M3913 9330 c-39 -4 -76 -11 -81 -14 -6 -3 -59 -15 -119 -26 -201 -36
-302 -59 -360 -83 -32 -14 -76 -30 -98 -37 -65 -20 -185 -81 -252 -128 -87
-60 -168 -154 -211 -241 -33 -69 -36 -81 -34 -162 1 -68 6 -98 24 -136 32 -68
101 -132 194 -177 43 -22 98 -49 122 -60 73 -36 146 -90 169 -125 54 -80 14
-195 -109 -320 -94 -94 -97 -96 -209 -125 -52 -14 -134 -36 -184 -51 -49 -14
-131 -36 -181 -49 -50 -13 -99 -28 -110 -34 -10 -5 -41 -13 -69 -17 -27 -5
-68 -14 -90 -22 -22 -8 -74 -23 -115 -34 -41 -11 -113 -31 -160 -43 -370 -100
-480 -129 -550 -147 -25 -6 -65 -18 -90 -26 -59 -19 -205 -60 -300 -84 -41
-11 -104 -28 -140 -38 -185 -53 -291 -81 -308 -81 -27 0 -52 -32 -52 -67 0
-17 9 -59 19 -94 11 -35 25 -91 31 -124 7 -33 16 -67 21 -76 5 -9 17 -54 28
-100 11 -46 32 -124 46 -174 14 -49 36 -130 50 -180 13 -49 36 -133 51 -185
24 -86 53 -193 103 -385 11 -38 33 -122 51 -185 17 -63 42 -155 55 -205 13
-49 37 -139 53 -200 16 -60 37 -139 46 -175 9 -36 21 -78 27 -95 6 -16 17 -61
24 -98 17 -82 28 -98 142 -208 100 -96 166 -133 255 -142 54 -5 60 -3 118 35
69 47 139 140 209 278 52 103 88 142 161 178 50 24 65 27 155 25 90 -1 105 -4
152 -30 70 -39 179 -136 203 -181 11 -21 34 -59 51 -85 57 -87 129 -298 153
-442 8 -49 23 -119 32 -155 15 -52 18 -106 19 -275 0 -208 0 -210 -27 -260
-14 -27 -37 -59 -50 -71 -54 -47 -184 -84 -300 -84 -56 0 -159 25 -207 51 -20
11 -42 19 -49 19 -7 0 -23 5 -35 12 -91 51 -267 74 -326 44 -33 -17 -94 -83
-115 -124 -26 -51 -56 -135 -72 -203 -14 -63 -14 -70 7 -145 33 -120 67 -250
89 -339 11 -44 24 -89 29 -100 5 -11 19 -58 30 -105 24 -97 55 -213 101 -380
18 -63 42 -153 55 -200 13 -47 35 -125 49 -175 26 -88 53 -188 96 -350 11 -44
32 -114 45 -155 13 -41 33 -111 44 -155 12 -44 30 -111 41 -150 11 -38 27 -95
35 -127 20 -72 34 -75 156 -42 52 14 128 33 169 43 41 10 91 23 110 29 51 17
193 58 285 83 44 12 118 32 165 45 47 14 126 35 177 48 50 13 97 27 103 31 9
6 119 36 520 142 159 42 231 61 340 91 58 16 187 52 288 80 198 55 212 62 307
164 85 90 95 103 115 159 57 156 -6 247 -266 379 -156 79 -177 96 -216 173
-28 57 -30 66 -26 146 4 72 10 96 36 148 40 78 147 186 228 231 32 18 66 37
74 42 57 34 264 104 375 128 28 5 93 20 145 31 52 12 133 26 180 31 47 5 123
14 169 19 146 17 273 -20 346 -101 57 -63 69 -106 69 -248 0 -123 -6 -149 -66
-280 -34 -72 -77 -190 -85 -232 -3 -15 2 -49 12 -77 24 -72 124 -164 198 -181
29 -7 63 -18 77 -25 56 -28 117 -28 213 0 128 37 197 56 457 126 41 11 125 33
185 49 61 16 162 42 225 59 117 32 202 54 345 91 88 22 184 50 285 81 36 11
101 29 145 40 113 28 202 52 335 89 63 17 166 44 229 60 113 29 151 49 151 79
0 9 -7 41 -15 71 -9 30 -26 96 -39 145 -13 50 -29 101 -35 115 -6 14 -17 52
-25 85 -8 33 -26 103 -40 155 -15 52 -40 147 -57 210 -17 63 -42 156 -55 205
-14 50 -31 115 -38 145 -8 30 -25 96 -39 145 -14 50 -37 135 -52 190 -49 184
-86 319 -104 385 -10 36 -30 108 -44 160 -14 52 -39 149 -57 214 -35 128 -36
197 -5 260 8 16 15 34 15 40 0 27 51 116 86 150 46 45 71 52 138 38 28 -6 69
-14 91 -17 22 -4 76 -22 120 -42 132 -58 229 -83 319 -83 49 0 154 19 180 32
107 56 141 86 168 148 65 146 65 252 3 590 -55 297 -106 451 -209 634 -21 38
-32 50 -113 132 -98 97 -170 132 -293 140 -65 5 -84 2 -139 -20 -121 -48 -133
-62 -246 -271 -49 -92 -70 -121 -119 -172 -52 -55 -88 -67 -160 -54 -68 12
-101 29 -157 78 -113 99 -146 146 -171 240 -27 105 -62 239 -92 348 -13 50
-36 135 -50 190 -14 55 -35 125 -45 155 -11 30 -31 98 -44 150 -14 52 -37 140
-51 195 -15 55 -43 159 -62 230 -20 72 -49 180 -64 240 -16 61 -55 205 -86
320 -31 116 -62 235 -69 265 -31 133 -48 186 -63 201 -16 15 -27 14 -147 -16
-295 -75 -456 -118 -800 -214 -44 -13 -129 -36 -190 -52 -60 -15 -159 -42
-220 -59 -60 -17 -150 -42 -200 -55 -49 -14 -121 -34 -160 -45 -71 -21 -179
-50 -347 -94 -222 -58 -296 -78 -348 -93 -50 -14 -59 -14 -105 0 -27 9 -72 23
-100 32 -79 25 -139 68 -170 122 -23 41 -26 56 -22 103 3 30 17 84 32 120 15
36 35 85 45 110 10 25 29 70 41 100 20 47 23 73 24 180 0 129 0 129 -54 239
-22 46 -95 106 -159 130 -62 24 -223 34 -339 21z m-1472 -2194 c93 -25 177
-75 240 -143 73 -77 125 -206 178 -438 6 -26 12 -31 46 -35 62 -9 125 -56 147
-110 11 -26 28 -86 101 -360 25 -91 56 -209 71 -263 14 -53 26 -114 26 -135
-1 -86 -68 -166 -157 -188 -26 -6 -84 -21 -128 -33 -168 -47 -302 -83 -355
-96 -106 -27 -282 -75 -290 -80 -10 -6 -105 -26 -143 -30 -42 -5 -118 22 -149
52 -19 18 -36 53 -52 107 -49 163 -66 223 -75 266 -13 57 -55 215 -74 277 -9
26 -21 78 -28 115 -11 58 -10 72 5 112 9 24 34 60 55 79 l39 35 -18 58 c-10
33 -29 102 -44 155 -46 167 -31 300 49 434 49 81 87 119 167 166 136 80 244
95 389 55z m3401 -771 c37 -138 67 -258 68 -268 0 -22 -48 -43 -64 -27 -6 6
-34 97 -62 203 l-51 192 -11 -55 c-6 -30 -23 -132 -38 -227 -27 -177 -37 -200
-72 -171 -8 7 -60 69 -116 138 -55 69 -105 130 -111 136 -5 7 -18 22 -28 34
-10 12 -21 20 -23 17 -3 -2 18 -89 45 -192 28 -103 48 -191 46 -195 -8 -13
-55 -18 -63 -6 -10 13 -15 30 -87 300 -30 114 -55 214 -55 221 0 7 12 16 28
19 15 4 34 9 43 12 11 3 61 -52 165 -182 l149 -185 33 208 c18 114 35 218 38
231 5 24 56 54 84 49 10 -1 35 -79 82 -252z m-781 -135 c243 -335 236 -320
177 -334 -25 -6 -32 0 -78 63 l-50 69 -97 -27 c-54 -14 -103 -29 -109 -33 -6
-4 -14 -42 -17 -84 -3 -47 -11 -80 -19 -85 -12 -8 -68 -13 -68 -6 0 1 14 130
30 287 16 157 30 288 30 292 0 6 44 23 71 27 3 1 61 -76 130 -169z m-829 -46
c11 -23 9 -28 -11 -43 l-23 -18 20 -79 c42 -164 80 -303 87 -314 4 -6 15 -8
26 -5 14 5 22 0 29 -21 15 -37 1 -48 -89 -69 -62 -15 -75 -16 -82 -4 -15 24
-10 51 11 56 25 7 25 9 -9 128 -15 55 -39 142 -52 193 -22 87 -25 92 -50 92
-26 0 -39 15 -39 46 0 16 30 30 105 50 67 17 64 17 77 -12z m2985 -96 c18 -23
212 -758 201 -758 -2 0 -120 -31 -263 -70 -524 -141 -624 -165 -634 -155 -10
10 -64 204 -153 545 -51 197 -52 206 -38 215 7 4 51 18 99 30 155 41 685 184
716 194 43 13 61 13 72 -1z m-1082 -295 c21 -50 202 -739 196 -746 -8 -8 -28
-14 -503 -141 -196 -53 -366 -96 -377 -96 -15 0 -23 10 -30 38 -5 20 -48 184
-95 364 -80 303 -94 368 -81 368 9 0 764 202 820 219 46 14 62 13 70 -6z
m-1085 -295 c9 -20 101 -351 177 -635 15 -56 25 -104 22 -107 -10 -11 -864
-236 -883 -234 -16 3 -32 55 -107 338 -109 408 -108 405 -100 419 4 5 101 35
216 66 116 31 251 67 300 80 50 14 146 40 215 59 69 19 131 35 138 35 7 1 17
-9 22 -21z m-1077 -310 c8 -24 24 -77 35 -118 12 -41 53 -193 92 -338 40 -145
70 -266 67 -268 -3 -3 -112 -34 -243 -69 -132 -35 -331 -89 -444 -119 -113
-30 -208 -52 -212 -48 -3 4 -18 52 -33 107 -139 525 -165 627 -165 643 0 15
21 24 118 49 325 86 727 195 731 199 2 2 12 4 22 4 11 0 22 -14 32 -42z m2782
-423 c84 -34 145 -131 153 -245 6 -85 -14 -144 -66 -202 -49 -54 -102 -82
-210 -109 -75 -19 -94 -21 -101 -11 -13 21 -145 521 -139 527 10 10 153 47
208 54 63 8 111 4 155 -14z m-467 -107 c3 -24 -1 -28 -40 -38 -146 -38 -158
-43 -154 -59 3 -9 12 -45 21 -81 9 -36 18 -67 20 -68 2 -2 44 7 94 19 49 13
92 21 95 19 2 -3 7 -17 11 -31 6 -26 5 -27 -80 -50 -48 -12 -89 -28 -92 -34
-4 -11 30 -162 39 -170 2 -2 41 8 88 21 104 30 134 29 138 -7 3 -25 0 -26
-139 -63 -78 -20 -143 -35 -145 -33 -4 4 -25 81 -109 390 -20 77 -33 143 -29
147 14 13 226 69 254 67 19 -2 26 -8 28 -29z m-447 -226 c-39 -77 -71 -144
-71 -149 0 -8 178 -130 268 -184 39 -23 34 -42 -14 -53 -41 -8 -43 -7 -173 84
-73 51 -134 90 -136 88 -2 -2 9 -53 26 -113 16 -61 29 -113 29 -117 0 -10 -56
-27 -67 -19 -15 9 -151 526 -142 536 3 2 19 8 37 11 30 6 31 6 47 -52 9 -33
24 -86 33 -118 l17 -59 70 147 c58 124 73 147 94 152 15 3 31 7 36 8 25 7 11
-32 -54 -162z m-383 16 c7 -7 12 -22 12 -35 0 -22 -4 -23 -63 -23 -77 0 -137
-28 -181 -83 -60 -75 -44 -227 33 -307 72 -76 174 -75 293 4 27 18 27 18 34
-9 8 -34 -21 -66 -84 -93 -111 -48 -211 -37 -287 30 -67 59 -97 125 -103 224
-4 72 -1 86 22 137 33 68 102 132 165 151 57 18 143 20 159 4z m-539 -172
c157 -80 207 -346 88 -475 -40 -43 -135 -81 -202 -81 -140 0 -236 92 -266 253
-26 143 41 267 170 313 61 22 155 17 210 -10z m-632 -370 c34 -126 64 -231 67
-234 3 -3 50 7 103 21 91 25 99 26 111 10 22 -31 13 -42 -55 -62 -102 -30
-212 -55 -218 -50 -2 3 -36 122 -75 265 -65 242 -69 260 -53 272 10 7 27 11
38 10 17 -3 29 -35 82 -232z m2156 -80 c18 -7 217 -120 442 -250 226 -131 424
-240 441 -243 25 -4 47 4 100 35 115 69 223 87 337 57 181 -47 309 -186 339
-370 31 -187 -77 -382 -258 -467 -93 -43 -220 -51 -318 -18 -186 62 -306 231
-306 431 0 43 -5 89 -11 102 -6 13 -49 46 -101 76 -94 55 -110 58 -184 36 -18
-6 -23 -1 -32 37 -12 47 -37 76 -91 103 -33 16 -71 16 -126 0 -17 -5 -22 1
-35 47 -13 45 -21 56 -62 81 -50 31 -72 35 -130 23 -32 -7 -39 -5 -44 10 -18
58 -39 92 -64 107 -98 58 -58 205 58 216 7 0 27 -5 45 -13z m-3526 -153 c-3
-10 -5 -4 -5 12 0 17 2 24 5 18 2 -7 2 -21 0 -30z m3486 -1860 c-7 -2 -19 -2
-25 0 -7 3 -2 5 12 5 14 0 19 -2 13 -5z"/>
<path d="M2240 6911 c-72 -23 -131 -74 -169 -145 -34 -66 -36 -115 -8 -213 14
-49 34 -119 44 -156 21 -78 1 -74 168 -31 357 94 373 100 355 133 -4 9 -18 57
-30 106 -44 179 -81 240 -173 286 -45 23 -145 34 -187 20z"/>
<path d="M2415 6156 c-42 -18 -92 -78 -104 -123 -24 -90 29 -193 114 -220 30
-9 30 -11 46 -121 8 -62 20 -117 27 -124 13 -13 175 27 193 48 8 10 -1 40 -35
121 l-46 107 25 26 c58 60 55 165 -6 234 -54 62 -142 83 -214 52z"/>
<path d="M4916 6218 c-3 -40 -9 -96 -13 -125 l-6 -52 54 14 c30 7 66 16 82 19
15 4 27 11 27 16 0 8 -110 172 -130 193 -4 4 -10 -25 -14 -65z"/>
<path d="M6701 5834 c-46 -12 -86 -25 -89 -28 -5 -5 10 -65 102 -406 30 -110
32 -115 56 -112 14 2 27 6 29 8 2 2 -8 48 -23 102 -14 54 -26 106 -26 115 0
19 74 33 111 22 12 -4 61 -44 108 -90 83 -79 87 -82 119 -73 l33 9 -77 72
c-77 72 -127 113 -148 120 -6 2 4 19 22 37 39 41 53 86 42 135 -11 50 -33 79
-73 99 -45 21 -83 19 -186 -10z m170 -63 c37 -38 40 -97 7 -136 -21 -23 -133
-64 -144 -52 -7 6 -56 189 -52 192 9 7 88 23 121 24 30 1 45 -5 68 -28z"/>
<path d="M5726 5574 c-65 -18 -121 -36 -124 -39 -6 -6 126 -505 137 -517 3 -4
66 9 139 29 121 33 132 38 132 60 0 29 -7 29 -110 -2 -113 -34 -117 -33 -130
18 -6 23 -18 63 -25 89 -15 52 -11 61 40 72 82 19 135 38 135 49 -1 36 -15 37
-104 11 -49 -15 -92 -22 -96 -18 -13 14 -50 168 -42 176 4 4 45 17 92 29 101
27 113 34 99 60 -5 10 -13 18 -17 18 -4 -1 -60 -16 -126 -35z"/>
<path d="M4788 5323 c-23 -6 -23 -10 11 -133 17 -57 28 -106 26 -108 -8 -9
-267 -73 -273 -68 -3 4 -18 54 -33 112 -15 59 -30 108 -32 111 -9 8 -57 -9
-57 -21 0 -6 31 -123 68 -261 58 -211 71 -250 88 -253 42 -5 44 9 14 118 -16
58 -29 112 -30 121 0 12 33 25 133 51 72 20 135 33 139 30 3 -4 18 -54 33
-112 15 -58 31 -109 35 -113 11 -12 50 1 50 16 1 33 -135 517 -144 516 -6 -1
-19 -3 -28 -6z"/>
<path d="M3543 4996 c-97 -31 -146 -84 -146 -159 0 -57 56 -119 120 -132 173
-35 213 -57 213 -120 0 -46 -32 -79 -91 -95 -41 -11 -104 -9 -141 5 -15 6 -15
2 -5 -30 l11 -37 76 4 c150 9 240 95 208 201 -17 56 -59 83 -172 112 -53 13
-105 29 -116 35 -49 26 -54 96 -10 133 34 29 124 51 164 41 29 -7 30 -6 16 30
-8 22 -16 26 -47 25 -21 0 -57 -6 -80 -13z"/>
<path d="M6625 4713 c-93 -17 -136 -27 -140 -33 -5 -8 99 -397 108 -406 3 -4
38 3 77 15 83 26 145 80 156 138 10 53 -2 139 -27 189 -32 66 -109 109 -174
97z"/>
<path d="M4708 4210 c-45 -24 -74 -63 -90 -124 -11 -40 -10 -57 5 -114 22 -84
58 -136 111 -162 70 -34 157 -21 214 33 31 29 56 118 48 171 -11 71 -59 161
-102 190 -49 33 -130 35 -186 6z"/>
<path d="M7773 3022 c-47 -25 -73 -65 -79 -119 -17 -156 194 -225 276 -91 77
126 -68 280 -197 210z"/>
</g>
</svg>
