<?xml version="1.0" standalone="no"?>
<!DOCTYPE svg PUBLIC "-//W3C//DTD SVG 20010904//EN"
 "http://www.w3.org/TR/2001/REC-SVG-20010904/DTD/svg10.dtd">
<svg version="1.0" xmlns="http://www.w3.org/2000/svg"
 width="1500.000000pt" height="1500.000000pt" viewBox="0 0 1500.000000 1500.000000"
 preserveAspectRatio="xMidYMid meet">
<metadata>
Created by potrace 1.16, written by Peter Selinger 2001-2019
</metadata>
<g transform="translate(0.000000,1500.000000) scale(0.100000,-0.100000)"
fill="#fff" stroke="none">
<path d="M6299 13086 c-20 -13 -62 -38 -93 -56 -32 -17 -192 -108 -355 -202
-163 -94 -305 -176 -316 -182 -11 -6 -30 -18 -42 -27 l-22 -16 -4 -883 -3
-883 61 -27 c33 -15 80 -36 105 -47 25 -11 142 -62 260 -112 118 -50 221 -95
228 -99 10 -7 13 -348 15 -1743 l2 -1734 105 0 105 0 3 3018 c1 1659 -1 3017
-6 3017 -4 0 -23 -11 -43 -24z"/>
<path d="M7872 11073 c-4 -10 -7 -913 -7 -2008 l0 -1990 395 0 395 0 2 655 c2
360 -1 1214 -5 1897 -6 1085 -9 1244 -22 1257 -14 13 -163 56 -440 126 -69 18
-154 40 -190 50 -114 32 -120 32 -128 13z"/>
<path d="M4840 10846 c-30 -18 -143 -84 -250 -146 -107 -62 -224 -131 -259
-153 -35 -23 -71 -42 -79 -43 -29 -5 -37 -26 -44 -117 -3 -51 -7 -815 -7
-1699 l-1 -1608 360 0 360 0 0 1900 c-1 1483 -3 1900 -13 1899 -7 0 -37 -15
-67 -33z"/>
<path d="M2589 8032 c-274 -2 -338 -5 -342 -16 -3 -7 -7 -222 -8 -477 l-2
-464 584 0 584 0 3 474 c2 360 -1 476 -10 482 -6 4 -115 7 -242 6 -127 -1
-382 -3 -567 -5z"/>
<path d="M9762 8022 c-9 -6 -12 -109 -10 -478 l3 -469 1023 -3 1022 -2 -1 342
c-1 189 -4 356 -8 372 -8 38 -13 39 -281 66 -450 44 -509 50 -640 65 -74 8
-200 22 -280 30 -80 8 -253 26 -385 39 -132 14 -265 28 -295 31 -30 3 -73 8
-95 11 -22 2 -46 1 -53 -4z"/>
<path d="M1708 6820 c-15 -9 -14 -13 10 -38 101 -103 976 -1017 1057 -1103 55
-59 106 -107 113 -108 7 0 16 7 19 17 4 9 50 96 103 192 106 192 159 290 228
420 24 47 55 104 68 127 13 23 24 46 24 52 0 6 -90 110 -200 231 l-201 220
-602 0 c-372 0 -608 -4 -619 -10z"/>
<path d="M3217 6786 c21 -24 81 -90 133 -148 52 -57 212 -232 354 -388 143
-157 348 -381 455 -499 l195 -214 41 45 c41 47 407 438 549 588 81 85 181 157
733 527 125 84 141 98 132 114 -9 18 -51 19 -1320 19 l-1311 0 39 -44z"/>
<path d="M6120 6779 c-30 -28 -98 -79 -150 -113 -531 -351 -720 -478 -720
-484 1 -4 42 -41 93 -83 51 -42 160 -134 242 -204 83 -70 213 -181 290 -246
77 -64 188 -158 247 -208 59 -50 112 -91 118 -91 11 0 30 27 395 595 131 204
272 422 314 485 l75 115 13 115 c6 63 12 127 12 143 l1 27 -437 0 -438 -1 -55
-50z"/>
<path d="M7247 6798 c-3 -18 -11 -91 -18 -162 l-12 -129 -294 -456 c-162 -251
-326 -503 -363 -561 -38 -58 -65 -106 -60 -108 4 -2 341 108 747 244 l740 246
63 152 c35 83 112 268 172 411 60 143 122 290 138 328 l29 67 -568 0 -569 0
-5 -32z"/>
<path d="M8582 6813 c-6 -10 -51 -117 -102 -238 -51 -121 -121 -287 -155 -370
-143 -340 -166 -399 -162 -419 3 -12 59 -149 125 -306 66 -157 172 -409 235
-560 301 -717 407 -968 424 -1009 l19 -44 381 401 381 401 -9 43 c-4 24 -15
81 -23 128 -9 47 -34 184 -56 305 -22 121 -69 387 -105 590 -36 204 -68 379
-71 390 -3 11 -49 55 -102 97 -495 393 -726 576 -753 596 -15 10 -20 10 -27
-5z"/>
<path d="M8961 6817 c17 -13 498 -410 964 -795 160 -132 293 -237 297 -233 4
3 98 204 209 446 176 384 249 557 249 587 0 4 -390 8 -867 8 -684 -1 -865 -3
-852 -13z"/>
<path d="M10851 6739 c-60 -131 -310 -675 -369 -804 -28 -60 -49 -112 -47
-113 4 -4 1188 593 1219 614 10 7 80 71 155 141 75 71 157 148 184 172 26 24
47 52 47 62 0 18 -20 19 -573 19 l-574 0 -42 -91z"/>
<path d="M12320 6818 c-30 -5 -65 -9 -76 -9 -16 0 -80 -64 -232 -234 l-210
-234 -6 -113 c-14 -259 -37 -670 -51 -914 -16 -282 -19 -494 -7 -494 4 1 25
24 48 53 47 60 331 418 645 811 117 149 234 296 259 328 25 31 119 150 210
264 287 359 339 426 368 485 l28 56 -89 7 c-135 9 -824 5 -887 -6z"/>
<path d="M3413 6138 c-28 -51 -88 -163 -133 -248 -46 -85 -98 -183 -116 -217
-19 -35 -32 -63 -29 -63 3 0 48 20 100 45 52 25 107 50 122 56 15 5 79 41 143
78 63 37 141 82 172 100 32 18 60 37 64 42 3 6 -23 40 -58 77 -35 37 -95 102
-132 145 -38 42 -72 77 -76 77 -3 0 -29 -42 -57 -92z"/>
<path d="M11445 6136 c-88 -45 -349 -178 -580 -295 -231 -117 -423 -216 -428
-220 -4 -4 48 -50 115 -104 68 -53 278 -219 468 -368 190 -150 364 -287 388
-306 56 -43 113 -46 130 -8 7 14 19 148 27 298 59 1067 60 1087 49 1086 -5 0
-81 -37 -169 -83z"/>
<path d="M4899 5853 c-107 -115 -232 -248 -279 -298 -46 -49 -103 -110 -126
-135 l-42 -45 18 -90 c11 -49 67 -317 125 -595 58 -278 127 -606 152 -729 l47
-224 40 45 c23 24 95 103 161 174 180 194 420 455 621 675 98 107 255 278 348
378 92 100 167 184 165 186 -2 2 -56 47 -119 100 -173 146 -247 209 -590 499
-173 146 -317 266 -321 266 -4 0 -94 -93 -200 -207z"/>
<path d="M9684 5938 c9 -41 34 -178 71 -388 20 -113 54 -302 75 -420 22 -118
44 -245 51 -282 6 -38 15 -68 20 -68 5 0 175 77 377 171 202 94 377 175 390
180 33 13 27 33 -20 71 -24 18 -173 137 -333 263 -159 127 -363 289 -453 360
-90 72 -167 132 -173 133 -6 2 -8 -6 -5 -20z"/>
<path d="M3800 5749 c-36 -22 -100 -58 -142 -82 -104 -56 -108 -68 -52 -152
24 -38 44 -70 44 -72 0 -2 18 -30 39 -61 22 -31 91 -140 154 -242 63 -102 196
-315 297 -475 101 -159 230 -366 288 -458 57 -92 106 -166 109 -164 2 2 -15
91 -37 198 -23 107 -61 291 -85 409 -24 118 -60 292 -80 385 -20 94 -43 204
-51 244 -9 41 -23 84 -32 96 -39 48 -376 415 -381 415 -3 -1 -35 -19 -71 -41z"/>
<path d="M7105 5384 c-385 -129 -699 -238 -698 -242 2 -9 273 -481 356 -620
34 -57 76 -121 94 -141 18 -21 30 -41 28 -45 -3 -3 -1 -3 4 1 4 5 53 71 108
148 55 77 162 226 237 330 386 536 456 633 514 715 35 50 62 90 60 89 -2 0
-318 -106 -703 -235z"/>
<path d="M7533 4918 l-491 -683 25 -13 c47 -25 137 -50 328 -92 386 -84 742
-162 830 -181 50 -10 193 -42 319 -69 126 -28 230 -49 232 -47 3 3 -4 19 -481
1157 -59 140 -140 334 -180 430 -41 96 -77 176 -82 177 -4 2 -229 -304 -500
-679z"/>
<path d="M10424 4816 c-83 -39 -204 -96 -270 -126 -65 -30 -156 -73 -201 -95
-89 -44 -39 5 -719 -712 l-219 -231 -97 -329 c-118 -398 -256 -862 -296 -998
-16 -55 -27 -104 -24 -109 10 -17 108 102 278 334 186 254 208 285 609 830
160 217 358 487 440 600 82 113 248 340 370 505 238 324 289 395 283 399 -1 2
-71 -29 -154 -68z"/>
<path d="M7070 3994 c0 -7 17 -38 182 -324 727 -1266 918 -1595 1007 -1735
l29 -45 26 72 c35 99 68 207 181 588 53 179 109 368 125 420 99 325 190 635
190 649 0 13 -48 27 -252 71 -139 29 -278 59 -308 66 -121 26 -640 139 -875
190 -234 51 -305 62 -305 48z"/>
</g>
</svg>
