<?xml version="1.0" standalone="no"?>
<!DOCTYPE svg PUBLIC "-//W3C//DTD SVG 20010904//EN"
 "http://www.w3.org/TR/2001/REC-SVG-20010904/DTD/svg10.dtd">
<svg version="1.0" xmlns="http://www.w3.org/2000/svg"
 width="1000.000000pt" height="1000.000000pt" viewBox="0 0 1000.000000 1000.000000"
 preserveAspectRatio="xMidYMid meet">

<g transform="translate(0.000000,1000.000000) scale(0.100000,-0.100000)"
fill="#fff" stroke="none">
<path d="M7395 7630 c-330 -49 -630 -269 -783 -575 -131 -262 -147 -581 -43
-851 97 -252 306 -474 553 -589 329 -151 741 -115 1035 90 l66 47 136 -136
135 -135 -57 -60 c-31 -33 -57 -68 -57 -78 0 -10 209 -227 504 -522 500 -499
504 -504 538 -497 26 5 72 46 216 189 154 155 182 188 182 213 0 25 -65 95
-500 529 -275 275 -509 501 -520 503 -14 2 -42 -17 -89 -62 -37 -36 -71 -66
-75 -66 -4 0 -65 58 -137 130 l-129 129 46 63 c65 87 149 265 176 373 20 77
23 115 22 260 0 152 -3 181 -27 269 -107 399 -436 700 -842 772 -84 15 -264
17 -350 4z m388 -219 c386 -102 656 -472 634 -868 -7 -131 -29 -216 -82 -328
-113 -237 -308 -398 -564 -467 -94 -25 -306 -30 -391 -9 -326 82 -562 310
-652 628 -31 112 -31 304 0 423 87 328 338 567 667 635 97 20 286 13 388 -14z"/>
<path d="M3285 7245 c-210 -58 -484 -306 -616 -558 -144 -277 -143 -546 3
-682 141 -133 346 -151 565 -50 153 71 263 169 263 235 0 78 -43 79 -157 3
-149 -98 -314 -148 -409 -124 -111 28 -164 94 -172 215 -8 130 43 276 155 445
110 166 295 324 427 365 109 34 130 7 102 -135 -16 -88 -15 -110 12 -141 29
-34 102 -17 148 34 37 41 45 66 45 157 0 71 -4 97 -20 129 -25 49 -84 99 -131
112 -48 14 -155 11 -215 -5z"/>
<path d="M4826 7218 l-33 -33 -6 -135 c-7 -146 -30 -319 -47 -350 -18 -33
-174 -57 -496 -76 -62 -3 -121 -3 -133 1 -29 9 -28 56 4 241 29 166 31 221 11
269 -27 64 -106 77 -150 24 -14 -17 -26 -34 -26 -39 0 -5 -9 -96 -20 -202 -28
-266 -75 -588 -106 -739 -32 -154 -29 -183 26 -233 46 -41 80 -46 110 -14 26
29 39 73 51 183 25 223 39 310 54 321 8 6 50 14 92 17 101 9 411 28 488 30
l60 2 3 -57 c2 -32 -6 -126 -18 -209 -28 -215 -27 -241 11 -273 17 -15 43 -26
59 -26 35 0 93 47 108 87 6 16 15 124 22 241 14 260 31 419 70 652 17 98 30
205 30 238 0 55 -3 62 -31 86 -44 38 -92 35 -133 -6z"/>
<path d="M6245 7210 c-11 -4 -30 -19 -43 -33 -21 -22 -24 -40 -32 -148 -5 -68
-18 -185 -29 -259 -27 -175 -90 -493 -101 -503 -18 -20 -290 379 -378 555 -28
57 -63 146 -78 198 -14 52 -34 103 -43 113 -25 26 -82 32 -123 13 -42 -20 -58
-51 -58 -114 0 -99 -65 -460 -132 -737 -67 -275 -57 -376 39 -383 76 -6 123
60 123 172 0 93 88 657 105 674 1 1 31 -46 65 -105 84 -145 190 -305 288 -435
44 -59 89 -126 100 -150 10 -24 35 -60 54 -81 31 -32 41 -37 82 -37 52 0 100
20 116 49 5 11 10 58 10 105 0 125 68 512 147 836 34 140 36 156 24 198 -7 26
-19 55 -28 64 -17 19 -72 23 -108 8z"/>
<path d="M2120 7189 c-156 -25 -394 -49 -486 -49 -66 0 -78 -3 -99 -25 -30
-30 -31 -58 -4 -110 23 -46 22 -92 -11 -305 -11 -69 -31 -202 -45 -296 -14
-95 -35 -207 -47 -250 -12 -44 -21 -101 -20 -129 5 -118 55 -131 370 -92 119
15 269 32 332 37 109 8 187 27 217 51 22 19 16 92 -9 117 -40 36 -68 41 -149
27 -188 -34 -500 -77 -522 -71 -14 3 -27 12 -30 19 -6 17 28 252 42 289 12 32
35 38 321 73 112 14 221 30 240 35 50 13 82 50 83 94 2 83 -82 104 -265 68
-130 -26 -245 -42 -309 -42 -46 0 -49 2 -45 23 3 12 14 63 25 112 11 50 23
111 26 137 11 75 21 79 204 89 88 5 203 15 256 24 52 8 115 15 139 15 37 0 48
5 70 31 14 17 26 42 26 55 0 32 -25 80 -45 88 -29 11 -147 4 -265 -15z"/>
<path d="M1030 7170 c-141 -22 -454 -51 -639 -58 l-204 -8 -23 -28 c-13 -15
-24 -37 -24 -49 1 -99 66 -113 374 -82 83 8 153 12 157 8 4 -5 -1 -69 -11
-143 -49 -363 -64 -665 -39 -766 19 -74 91 -115 148 -84 10 5 26 28 35 50 14
37 15 48 1 125 -12 69 -13 114 -5 238 11 178 37 431 53 531 l12 71 60 13 c38
9 140 14 273 15 199 2 215 3 228 21 28 38 8 123 -33 141 -26 12 -298 15 -363
5z"/>
<path d="M3832 5774 c-12 -8 -29 -28 -37 -44 -26 -50 -107 -561 -108 -680 -1
-174 50 -318 145 -413 199 -199 599 -155 790 86 86 110 105 175 128 437 6 69
23 195 37 280 39 239 26 320 -52 320 -38 0 -79 -29 -101 -72 -23 -45 -41 -153
-59 -363 -30 -357 -55 -456 -135 -536 -55 -55 -129 -83 -250 -93 -70 -7 -79
-5 -137 23 -169 81 -206 203 -163 535 12 93 35 220 51 282 16 62 29 126 29
141 0 28 -32 91 -54 105 -19 13 -60 9 -84 -8z"/>
<path d="M4685 4560 c-11 -4 -30 -19 -43 -33 -21 -22 -24 -40 -32 -148 -15
-207 -105 -735 -130 -762 -18 -20 -291 380 -378 555 -28 57 -63 146 -78 198
-37 134 -80 166 -169 125 -39 -19 -55 -51 -55 -113 0 -99 -65 -460 -132 -737
-67 -275 -57 -376 39 -383 76 -6 123 60 123 172 0 93 88 657 105 674 1 1 31
-46 65 -105 84 -145 190 -305 288 -435 44 -59 89 -126 100 -150 10 -24 35 -60
54 -81 31 -32 41 -37 82 -37 52 0 100 20 116 49 5 11 10 58 10 105 0 125 68
512 147 836 34 140 36 156 24 198 -7 26 -19 55 -28 64 -17 19 -72 23 -108 8z"/>
<path d="M4540 3270 c-141 -22 -454 -51 -639 -58 l-204 -8 -23 -28 c-13 -15
-24 -37 -24 -49 1 -99 66 -113 374 -82 83 8 153 12 157 8 4 -5 -1 -69 -11
-143 -49 -363 -64 -665 -39 -766 19 -74 91 -115 148 -84 10 5 26 28 35 51 15
36 15 49 5 98 -7 31 -12 112 -11 181 2 129 34 486 55 613 l12 72 60 13 c38 9
140 14 273 15 199 2 215 3 228 21 28 38 8 123 -33 141 -26 12 -298 15 -363 5z"/>
</g>
</svg>
