<?xml version="1.0" standalone="no"?>
<!DOCTYPE svg PUBLIC "-//W3C//DTD SVG 20010904//EN"
 "http://www.w3.org/TR/2001/REC-SVG-20010904/DTD/svg10.dtd">
<svg version="1.0" xmlns="http://www.w3.org/2000/svg"
 width="1000.000000pt" height="1000.000000pt" viewBox="0 0 1000.000000 1000.000000"
 preserveAspectRatio="xMidYMid meet">

<g transform="translate(0.000000,1000.000000) scale(0.100000,-0.100000)"
fill="#fff" stroke="none">
<path d="M867 9323 c-10 -10 -6 -5198 4 -5398 35 -699 145 -1262 329 -1692
378 -880 1201 -1418 2365 -1547 77 -9 184 -20 237 -26 63 -6 993 -10 2707 -10
l2611 0 0 4340 0 4340 -1347 -2 -1348 -3 -3 -2120 -3 -2120 -43 122 c-24 67
-63 155 -86 195 -84 141 -270 296 -422 352 -40 15 -363 85 -533 116 -137 25
-198 39 -206 47 -5 5 12 31 41 64 28 29 58 66 66 82 8 15 19 27 24 27 5 0 14
16 21 35 7 19 17 35 21 35 4 0 19 18 33 40 106 168 164 374 121 435 -7 11 -27
63 -44 115 -210 652 -511 1193 -788 1421 -132 108 -213 154 -335 188 -181 51
-382 6 -568 -125 -240 -170 -489 -539 -695 -1028 -64 -152 -79 -191 -160 -427
-18 -52 -39 -106 -46 -119 -26 -48 -29 -93 -14 -170 28 -134 118 -296 263
-470 39 -47 71 -90 71 -97 0 -13 -16 -19 -80 -28 -25 -4 -61 -10 -80 -15 -19
-5 -71 -16 -115 -24 -44 -9 -125 -26 -180 -37 -55 -11 -113 -23 -130 -25 -179
-30 -342 -119 -480 -263 l-40 -42 -5 1918 -5 1918 -576 3 c-316 1 -579 -1
-582 -5z m7084 -729 c140 -42 236 -121 299 -247 42 -84 48 -109 28 -124 -7 -6
-51 -19 -97 -31 l-83 -20 -6 21 c-14 56 -70 143 -110 174 -54 41 -107 56 -198
55 -240 0 -377 -185 -361 -487 15 -272 140 -418 357 -418 156 0 270 85 315
238 17 57 30 62 124 40 97 -22 103 -32 72 -120 -59 -169 -185 -288 -348 -330
-73 -19 -239 -19 -321 0 -266 63 -427 332 -409 683 9 177 64 317 167 421 63
64 169 124 256 145 83 20 247 20 315 0z m-3722 -435 c234 -54 499 -358 726
-832 107 -224 220 -513 205 -522 -5 -3 -53 2 -109 10 -544 81 -1264 83 -1805
5 -71 -11 -133 -17 -137 -14 -29 18 226 589 363 815 186 304 380 492 553 535
62 15 146 17 204 3z m3663 -1060 c205 -42 376 -215 435 -439 23 -89 23 -291 0
-380 -25 -95 -89 -218 -143 -274 -109 -113 -230 -166 -399 -173 -137 -7 -200
6 -307 59 -150 75 -261 221 -302 398 -20 84 -20 258 -1 352 47 225 204 397
415 452 66 18 229 20 302 5z m-3192 -463 c316 -33 527 -62 550 -76 17 -11 -2
-103 -32 -147 -14 -21 -40 -63 -59 -93 -148 -240 -458 -523 -712 -650 -240
-120 -392 -119 -632 2 -267 135 -580 433 -733 696 -55 94 -89 202 -64 202 4 0
39 5 77 11 167 24 380 48 510 58 77 6 156 13 175 15 89 10 785 -4 920 -18z
m-1418 -1251 l3 -320 105 0 105 0 3 268 c1 147 5 267 9 267 3 0 42 -23 86 -52
166 -106 340 -172 487 -184 177 -15 406 57 604 190 38 25 72 46 77 46 5 0 10
-120 11 -267 l3 -268 105 0 105 0 5 325 c4 281 7 325 20 323 26 -3 365 -70
575 -113 215 -45 275 -67 374 -143 60 -46 132 -131 162 -189 11 -21 38 -91 60
-156 115 -332 147 -426 262 -762 68 -201 129 -376 134 -390 5 -14 32 -88 59
-165 46 -132 49 -145 48 -240 0 -111 -23 -199 -75 -292 -31 -53 -351 -395
-376 -401 -10 -3 -13 2 -10 15 3 10 11 68 17 128 6 61 22 202 35 315 14 113
36 311 51 440 14 129 28 258 31 286 7 62 -11 144 -42 199 -36 63 -114 129
-176 151 -52 18 -115 19 -2009 19 l-1955 0 -58 -23 c-65 -27 -143 -97 -170
-155 -49 -102 -50 -75 74 -1167 21 -189 22 -210 10 -210 -16 0 -340 350 -368
397 -47 81 -74 172 -80 268 -6 109 -5 112 97 405 45 129 101 294 125 365 24
72 78 229 120 350 42 121 100 290 130 375 29 85 62 180 74 210 25 66 101 163
176 224 107 87 144 99 570 185 215 43 393 76 397 72 4 -4 9 -151 10 -326z
m4627 190 c140 -33 244 -120 310 -257 57 -121 66 -169 66 -353 -1 -153 -2
-164 -33 -253 -69 -200 -183 -310 -361 -348 -88 -18 -611 -20 -629 -2 -17 17
-17 1199 0 1216 19 19 564 16 647 -3z m-1815 -1414 c36 -34 40 -73 23 -213 -9
-68 -19 -150 -22 -183 -3 -33 -24 -217 -46 -410 -21 -192 -46 -411 -54 -485
-47 -437 -65 -578 -73 -601 -15 -39 -69 -87 -110 -99 -26 -8 -540 -10 -1702
-8 l-1665 3 -32 23 c-18 12 -42 37 -54 53 -23 32 -23 32 -74 499 -8 74 -22
196 -30 270 -9 74 -25 215 -35 315 -11 99 -33 299 -50 445 -16 146 -30 285
-30 310 0 47 18 78 55 98 14 8 556 11 1947 9 l1926 -2 26 -24z m2111 -161 l0
-85 -347 -3 -348 -2 0 -165 0 -165 318 0 c234 0 321 -3 330 -12 7 -7 12 -40
12 -78 0 -38 -5 -71 -12 -78 -9 -9 -96 -12 -330 -12 l-318 0 0 -185 0 -185
353 0 c261 0 356 -3 365 -12 17 -17 16 -142 -2 -157 -9 -8 -140 -10 -467 -9
l-454 3 -3 605 c-1 333 0 611 3 618 3 10 99 12 452 10 l448 -3 0 -85z m-213
-1421 c115 -25 187 -82 237 -189 22 -47 26 -69 26 -150 0 -84 -3 -102 -28
-152 -35 -70 -97 -127 -181 -164 l-63 -27 61 -62 c70 -72 309 -436 304 -463
-3 -15 -18 -17 -116 -20 l-112 -3 -37 58 c-109 173 -225 344 -262 384 -62 70
-94 82 -235 83 l-121 1 -5 -260 -5 -260 -95 0 -95 0 -3 605 c-1 333 0 611 3
618 6 16 649 17 727 1z m-2114 -665 c30 -20 30 -68 0 -88 -20 -14 -202 -16
-1747 -16 l-1725 0 -23 22 c-28 27 -29 48 -3 76 l21 22 1727 0 c1547 0 1730
-2 1750 -16z"/>
<path d="M7688 6919 c-108 -15 -211 -86 -262 -178 -54 -100 -72 -291 -40 -431
45 -199 214 -314 424 -289 151 18 272 133 311 296 18 76 15 248 -5 318 -61
209 -218 313 -428 284z"/>
<path d="M7460 4970 l0 -443 178 6 c240 8 307 31 367 127 53 85 69 153 69 310
1 162 -11 221 -63 302 -34 54 -97 103 -150 118 -20 6 -118 13 -218 17 l-183 6
0 -443z"/>
<path d="M4193 3478 c-12 -13 -58 -120 -104 -238 -135 -353 -126 -323 -106
-354 15 -23 24 -26 72 -26 66 0 66 0 130 165 26 66 71 182 101 258 30 76 54
147 54 158 0 56 -105 83 -147 37z"/>
<path d="M3610 3300 c-96 -50 -183 -100 -192 -111 -24 -28 -23 -70 2 -102 11
-14 97 -64 197 -115 141 -71 183 -88 200 -81 29 11 43 39 43 87 0 48 -17 64
-113 113 -39 19 -72 40 -74 45 -2 5 31 27 74 49 101 51 113 64 113 120 0 48
-25 85 -57 85 -10 0 -97 -41 -193 -90z"/>
<path d="M4432 3374 c-18 -12 -22 -25 -22 -69 0 -63 8 -71 118 -124 40 -19 72
-38 72 -42 0 -5 -41 -29 -90 -55 -97 -49 -104 -59 -98 -129 2 -27 11 -44 29
-58 l27 -19 163 83 c222 112 229 118 229 178 0 27 -6 53 -13 59 -22 19 -364
192 -378 192 -8 0 -25 -7 -37 -16z"/>
<path d="M7465 2398 c-3 -7 -4 -86 -3 -173 l3 -160 205 1 c125 1 222 6 248 13
156 44 178 239 33 304 -41 18 -71 21 -263 25 -181 4 -219 2 -223 -10z"/>
</g>
</svg>
