<?xml version="1.0" standalone="no"?>
<!DOCTYPE svg PUBLIC "-//W3C//DTD SVG 20010904//EN"
 "http://www.w3.org/TR/2001/REC-SVG-20010904/DTD/svg10.dtd">
<svg version="1.0" xmlns="http://www.w3.org/2000/svg"
 width="1000.000000pt" height="1000.000000pt" viewBox="0 0 1000.000000 1000.000000"
 preserveAspectRatio="xMidYMid meet">

<g transform="translate(0.000000,1000.000000) scale(0.100000,-0.100000)"
fill="#000000" stroke="none">
<path d="M1635 8608 c-3 -7 -6 -1500 -8 -3318 l-2 -3305 -197 -3 -198 -2 0
-300 0 -300 2083 1 c1290 0 2073 4 2059 10 -13 5 -143 36 -290 68 -147 33
-337 76 -422 96 -85 19 -245 55 -355 80 -110 25 -270 61 -355 80 -85 20 -265
61 -400 91 -135 31 -283 64 -330 75 -47 10 -129 29 -182 40 -81 18 -98 25 -98
40 0 18 -15 19 -349 19 -309 0 -350 2 -355 16 -8 20 -8 5988 0 6008 5 14 46
16 355 16 334 0 349 1 349 19 0 15 17 22 98 40 53 11 135 30 182 40 47 11 195
44 330 75 135 30 315 71 400 91 85 19 245 55 355 80 110 25 270 61 355 80 85
20 275 63 422 96 147 32 277 63 290 68 14 6 -690 10 -1855 10 -1493 1 -1879
-2 -1882 -11z"/>
<path d="M8115 8610 c-33 -8 -97 -23 -460 -105 -231 -52 -342 -77 -485 -110
-30 -7 -147 -33 -260 -59 -113 -25 -275 -62 -360 -81 -85 -20 -182 -42 -215
-49 -53 -12 -380 -86 -535 -121 -30 -7 -176 -40 -325 -73 -148 -34 -340 -77
-425 -97 -85 -19 -245 -55 -355 -80 -110 -25 -270 -61 -355 -80 -85 -20 -276
-63 -425 -97 -148 -33 -292 -66 -320 -72 l-50 -11 0 -2575 0 -2575 50 -11 c28
-6 172 -39 320 -72 149 -34 340 -77 425 -97 85 -19 245 -55 355 -80 110 -25
270 -61 355 -80 85 -20 277 -63 425 -97 149 -33 295 -66 325 -73 30 -7 147
-33 260 -59 113 -25 275 -62 360 -81 85 -20 184 -42 220 -50 36 -8 155 -35
265 -60 110 -25 229 -52 265 -60 36 -8 135 -31 220 -50 85 -20 186 -43 225
-51 87 -18 400 -90 481 -109 46 -12 131 -15 367 -15 l307 0 0 300 0 300 -197
2 -198 3 -5 3315 -5 3315 -110 2 c-60 1 -123 -2 -140 -7z m-2535 -1979 c457
-104 861 -424 1046 -827 46 -101 109 -303 128 -410 23 -131 21 -351 -4 -490
-44 -240 -157 -499 -289 -664 l-20 -25 548 -550 c302 -302 554 -560 560 -572
25 -49 14 -74 -66 -155 -83 -84 -106 -93 -161 -64 -15 8 -272 260 -572 560
l-544 545 -31 -23 c-88 -67 -150 -104 -250 -152 -222 -107 -426 -154 -664
-154 -486 0 -940 235 -1226 635 -134 187 -234 438 -263 655 -7 58 -10 333 -3
410 7 82 63 303 82 325 5 5 9 16 9 25 0 9 18 52 39 97 156 323 401 567 725
724 44 22 87 39 96 39 9 0 20 4 26 9 18 18 217 70 309 81 119 15 428 3 525
-19z"/>
<path d="M5140 6331 c-205 -19 -420 -106 -596 -239 -224 -170 -375 -412 -440
-707 -26 -119 -24 -359 5 -480 103 -432 398 -749 823 -884 68 -22 259 -51 332
-51 84 0 263 30 361 60 290 90 575 339 708 620 92 195 136 459 106 640 -6 36
-12 76 -14 90 -1 14 -9 45 -16 70 -7 25 -13 51 -15 58 -1 7 -17 47 -34 90
-148 359 -461 624 -840 711 -97 22 -270 32 -380 22z m-90 -1331 l0 -600 -300
0 -300 0 0 600 0 600 300 0 300 0 0 -600z"/>
</g>
</svg>
