<?xml version="1.0" standalone="no"?>
<!DOCTYPE svg PUBLIC "-//W3C//DTD SVG 20010904//EN"
 "http://www.w3.org/TR/2001/REC-SVG-20010904/DTD/svg10.dtd">
<svg version="1.0" xmlns="http://www.w3.org/2000/svg"
 width="1500.000000pt" height="1500.000000pt" viewBox="0 0 1500.000000 1500.000000"
 preserveAspectRatio="xMidYMid meet">
<metadata>
Created by potrace 1.16, written by Peter Selinger 2001-2019
</metadata>
<g id="event_svg" transform="translate(0.000000,1500.000000) scale(0.100000,-0.100000)"
fill="#fff" stroke="none">
<path d="M7195 14000 c-38 -5 -160 -16 -270 -25 -216 -17 -358 -37 -640 -90
-187 -35 -500 -110 -601 -144 -33 -10 -131 -43 -219 -71 -300 -98 -524 -190
-815 -336 -221 -110 -229 -116 -211 -138 8 -9 126 -108 264 -219 1045 -846
2019 -1641 2067 -1688 51 -50 160 -134 187 -145 29 -12 44 -11 145 15 169 43
274 55 450 48 105 -4 184 -13 253 -28 107 -25 157 -29 193 -16 18 7 22 5 22
-12 0 -25 36 -50 81 -57 31 -5 48 5 179 98 157 113 630 454 1070 773 151 109
430 311 620 448 368 266 543 397 600 447 l35 31 -45 -23 c-44 -22 -447 -290
-722 -479 -122 -83 -678 -463 -1157 -789 -93 -63 -215 -145 -272 -181 -57 -36
-144 -91 -194 -123 -208 -132 82 81 765 562 261 184 536 378 610 431 74 53
149 105 165 117 233 160 982 689 987 697 4 6 5 15 2 19 -9 15 -277 161 -427
233 -371 178 -778 332 -1092 415 -406 106 -777 172 -1265 222 -135 14 -664 19
-765 8z"/>
<path d="M4525 12995 c62 -59 355 -306 1375 -1160 157 -131 417 -349 578 -484
161 -135 307 -254 323 -265 27 -17 35 -17 70 -6 22 8 45 23 51 34 13 24 -9 46
-168 166 -179 136 -497 382 -614 475 -63 51 -200 159 -305 241 -104 82 -370
292 -590 465 -690 544 -868 676 -720 534z"/>
<path d="M4006 12947 c-11 -8 -17 -18 -15 -24 4 -10 111 -98 408 -338 68 -55
155 -125 192 -155 37 -30 145 -118 241 -195 325 -262 444 -365 423 -365 -23 0
-485 347 -1218 914 -65 50 -125 92 -133 94 -17 4 -91 -36 -98 -53 -6 -16 -1
-22 82 -89 39 -32 72 -62 72 -67 0 -19 -22 -15 -129 27 -62 24 -121 44 -130
44 -30 0 -316 -220 -340 -262 -7 -13 -41 -45 -74 -73 -33 -27 -62 -55 -64 -61
-4 -12 25 -33 275 -205 67 -46 182 -126 255 -177 72 -51 170 -120 217 -153 47
-32 128 -89 180 -125 52 -37 138 -96 190 -132 137 -94 278 -193 415 -292 66
-47 185 -130 265 -185 224 -153 790 -549 834 -584 21 -17 34 -31 29 -31 -36 0
-210 100 -653 377 -1689 1053 -2161 1343 -2185 1343 -17 0 -46 -40 -38 -53 5
-9 448 -303 643 -428 47 -29 211 -137 365 -240 770 -511 1413 -935 1769 -1167
104 -67 195 -121 203 -118 22 9 14 34 -17 53 -40 23 -40 56 -1 73 16 6 37 20
47 31 9 10 25 19 34 19 18 0 90 65 90 81 0 43 188 259 353 407 45 41 83 78 85
82 2 5 -115 102 -259 217 -144 114 -314 251 -378 303 -64 53 -130 107 -147
120 -17 14 -109 88 -205 164 -96 77 -205 165 -243 195 -38 31 -83 67 -101 81
-18 14 -125 100 -236 192 -112 92 -317 256 -454 366 -138 109 -306 244 -374
300 -69 56 -132 102 -141 102 -9 0 -24 -6 -34 -13z"/>
<path d="M11041 12792 c-53 -37 -274 -188 -489 -337 -216 -148 -526 -362 -690
-475 -164 -113 -413 -284 -552 -381 -140 -97 -394 -271 -565 -389 -170 -117
-320 -222 -332 -233 -33 -30 -28 -53 16 -83 22 -14 51 -43 66 -64 16 -24 38
-41 55 -45 16 -3 38 -21 52 -39 12 -19 51 -68 86 -110 34 -43 85 -115 114
-162 36 -60 57 -84 71 -84 22 0 19 -2 582 325 942 547 1105 641 1385 800 162
92 329 188 370 214 41 26 229 137 418 245 188 109 342 204 342 210 0 17 -58
70 -97 90 -18 9 -39 29 -48 46 -14 28 -118 120 -135 120 -5 0 -45 29 -91 65
-45 36 -85 65 -88 65 -3 0 -80 -23 -170 -50 -90 -28 -171 -50 -181 -50 -57 0
-16 49 119 144 45 31 81 62 81 69 0 18 -67 60 -84 54 -9 -4 -134 -84 -278
-180 -145 -96 -429 -284 -633 -418 -320 -212 -505 -332 -721 -467 -52 -33 -68
-39 -62 -23 5 16 644 470 1238 881 201 138 371 258 379 266 13 12 12 16 -3 33
-34 37 -52 32 -155 -37z"/>
<path d="M2773 11928 c-205 -211 -388 -445 -607 -773 -484 -727 -785 -1427
-971 -2255 -57 -254 -93 -493 -133 -885 -20 -200 -23 -751 -4 -935 6 -69 17
-174 23 -235 23 -242 70 -547 114 -740 137 -601 305 -1070 563 -1573 251 -493
519 -890 889 -1317 245 -284 601 -622 878 -836 458 -354 871 -605 1360 -826
195 -89 609 -242 790 -293 461 -130 830 -199 1295 -243 165 -15 960 -15 1100
1 203 22 366 42 465 58 107 16 408 77 490 99 552 146 900 273 1340 490 615
303 1178 707 1660 1189 624 625 1085 1304 1420 2092 82 192 185 471 215 579 4
17 20 68 35 115 104 331 205 846 235 1197 6 71 15 153 20 184 13 72 13 856 0
928 -5 31 -14 116 -20 189 -39 479 -158 1019 -344 1552 -240 690 -639 1395
-1109 1957 -144 173 -149 178 -191 156 -41 -21 -291 -163 -491 -278 -88 -51
-734 -420 -1435 -820 -701 -401 -1292 -739 -1313 -752 l-38 -24 7 -127 c25
-461 -133 -880 -452 -1197 -374 -373 -901 -527 -1417 -415 -251 55 -476 169
-680 346 -251 218 -429 540 -488 885 -18 106 -21 151 -17 308 5 180 5 184 -17
203 -20 17 -522 358 -1380 936 -176 118 -430 290 -565 381 -281 190 -600 406
-911 615 -119 80 -221 146 -226 146 -6 0 -46 -37 -90 -82z m4177 -3763 c140
-70 361 -111 555 -102 133 6 267 33 312 62 57 38 100 5 88 -66 -6 -33 -19 -50
-88 -112 -139 -122 -245 -242 -261 -295 -6 -18 10 -52 75 -160 45 -75 106
-166 135 -202 28 -36 99 -137 156 -225 58 -88 189 -288 293 -445 352 -532 385
-584 385 -596 0 -19 -49 -73 -81 -89 -62 -33 -88 -16 -191 127 -40 57 -122
155 -181 218 -59 63 -124 140 -144 170 -19 30 -92 144 -162 252 -120 188 -361
508 -383 508 -10 0 -13 -3 -137 -152 -44 -53 -149 -172 -234 -265 -223 -245
-244 -272 -452 -568 -104 -148 -202 -287 -218 -307 -43 -56 -64 -51 -126 28
-28 37 -51 75 -51 86 0 25 30 83 103 197 33 52 70 119 84 149 13 30 55 98 92
151 65 91 143 215 206 326 27 49 231 358 355 540 34 50 75 117 92 149 17 33
41 77 55 97 16 24 22 42 16 51 -10 16 -302 299 -367 355 -46 41 -48 45 -43 83
10 76 26 80 117 35z m-4 -332 c9 -21 36 -80 60 -132 24 -51 44 -101 44 -109 0
-15 -47 -95 -200 -342 -43 -69 -150 -242 -238 -385 -370 -603 -488 -775 -534
-775 -9 0 -117 64 -240 143 -241 154 -354 223 -463 282 -86 48 -125 88 -125
132 0 18 -9 70 -19 115 -27 118 -30 152 -10 156 9 1 121 -74 250 -168 623
-454 553 -407 575 -382 16 19 163 279 624 1102 106 190 202 357 212 373 26 37
46 34 64 -10z m1355 -733 c235 -393 435 -726 444 -738 31 -43 -13 -72 708 475
67 51 128 93 135 93 18 0 15 -48 -14 -189 -21 -104 -30 -131 -52 -153 -24 -23
-714 -487 -770 -517 -41 -22 23 -109 -665 916 -237 354 -357 541 -357 558 0
15 19 70 41 123 59 138 68 154 87 150 10 -2 186 -288 443 -718z m1561 -184
c83 -38 150 -74 160 -88 16 -22 16 -33 1 -175 -12 -116 -13 -156 -4 -167 8
-10 49 -16 134 -21 67 -4 130 -11 139 -16 10 -5 77 -85 151 -177 519 -650
1039 -1303 1199 -1502 103 -129 188 -241 188 -250 0 -13 -154 -342 -485 -1035
l-110 -230 -125 -83 c-300 -198 -451 -294 -467 -296 -12 -1 -18 6 -17 19 0 22
165 287 310 500 53 77 113 176 134 220 102 216 125 267 191 423 39 92 110 246
159 343 l88 177 -15 47 c-10 28 -24 51 -37 56 -12 6 -28 22 -37 37 -9 15 -83
108 -166 207 -213 257 -558 672 -778 940 -249 302 -265 318 -301 318 -16 1
-110 -3 -209 -7 -149 -7 -182 -6 -192 5 -9 11 -9 58 0 190 6 96 8 183 4 193
-4 9 -36 30 -72 46 -64 28 -65 30 -65 67 0 61 39 295 51 309 6 8 15 14 19 14
5 0 73 -29 152 -64z m-4744 42 c11 -13 62 -289 62 -334 0 -20 -9 -29 -47 -46
-79 -34 -81 -38 -82 -141 0 -51 3 -128 8 -172 14 -118 17 -115 -147 -115 -75
0 -168 -3 -205 -7 l-68 -6 -82 -106 c-72 -93 -198 -255 -362 -461 -28 -36
-142 -182 -253 -325 -113 -146 -219 -271 -240 -286 -50 -35 -315 -413 -315
-451 0 -16 17 -52 40 -85 22 -32 100 -159 173 -283 186 -314 194 -329 275
-480 39 -74 118 -209 175 -300 57 -91 119 -192 138 -225 20 -33 51 -77 69 -98
73 -82 81 -147 15 -113 -31 16 -140 86 -410 263 l-144 94 -299 603 c-164 332
-299 614 -299 628 0 13 17 46 38 74 20 27 192 258 382 513 1060 1423 996 1339
1032 1345 18 3 76 7 128 11 58 3 99 10 108 18 11 11 10 40 -7 167 -14 109 -16
160 -9 173 9 18 279 156 304 157 6 0 16 -6 22 -12z m4131 -655 c-17 -20 -321
-264 -434 -347 -44 -33 -94 -73 -112 -89 l-32 -30 36 -71 c41 -84 69 -116 97
-116 12 0 73 20 136 44 153 57 250 89 256 83 5 -5 -237 -126 -369 -184 -65
-28 -81 -32 -94 -22 -32 28 -183 266 -177 282 5 13 392 283 534 373 150 94
187 112 159 77z m-3424 -130 c196 -119 435 -284 435 -300 0 -27 -163 -277
-183 -281 -10 -2 -42 7 -70 21 -29 14 -86 40 -127 57 -106 46 -273 130 -268
136 6 5 246 -77 322 -110 99 -44 108 -40 176 87 47 86 46 90 -19 129 -65 39
-270 199 -329 256 -53 51 -55 55 -27 48 17 -4 57 -23 90 -43z m-981 -600 c-21
-38 -126 -210 -234 -383 -108 -173 -256 -411 -329 -529 -74 -117 -136 -221
-138 -230 -2 -10 9 -89 26 -177 31 -161 149 -798 177 -953 8 -46 13 -93 11
-105 -3 -18 -6 -16 -20 15 -20 45 -108 342 -233 789 -25 91 -59 208 -75 261
-34 111 -25 104 -213 172 -66 24 -122 49 -124 55 -5 17 60 15 196 -4 80 -12
120 -14 136 -6 12 5 111 137 221 293 520 740 614 869 633 869 2 0 -13 -30 -34
-67z m5351 -200 c72 -92 150 -192 175 -224 140 -178 427 -565 446 -600 7 -15
26 -37 41 -49 30 -23 59 -23 188 -1 116 20 145 23 169 17 14 -3 26 -12 26 -20
0 -25 -39 -48 -162 -93 -67 -25 -130 -52 -139 -60 -9 -8 -22 -35 -29 -61 -26
-104 -54 -209 -85 -312 -7 -25 -20 -74 -29 -110 -10 -36 -23 -87 -31 -115 -7
-27 -21 -79 -30 -115 -9 -36 -22 -85 -29 -110 -7 -25 -20 -70 -29 -100 -8 -30
-22 -80 -31 -110 -8 -30 -23 -89 -33 -130 -9 -41 -23 -82 -30 -90 -33 -36 -19
68 117 900 28 173 54 343 57 377 l6 62 -330 498 c-299 452 -393 599 -393 616
0 21 40 -23 155 -170z m-4809 -741 c27 -18 24 -103 -10 -276 -19 -94 -41 -223
-50 -286 -9 -63 -21 -137 -26 -163 -6 -27 -10 -64 -10 -82 0 -18 -4 -55 -10
-82 -5 -26 -16 -100 -25 -163 -18 -133 -31 -223 -45 -317 -6 -38 -14 -90 -18
-118 -7 -46 -10 -50 -42 -59 -34 -9 -389 -9 -421 0 -9 3 -22 23 -28 47 -14 52
-76 315 -130 547 -22 96 -77 328 -122 515 -76 316 -90 398 -71 416 4 4 82 11
174 14 l167 8 11 -29 c6 -15 20 -71 30 -124 11 -52 26 -126 35 -165 9 -38 19
-90 24 -115 20 -105 44 -208 58 -245 8 -22 19 -56 25 -75 9 -31 12 -33 19 -15
4 11 29 173 55 360 40 291 51 345 71 378 l23 37 153 0 c83 0 157 -4 163 -8z
m953 -127 l124 -125 -7 -172 c-12 -306 -7 -285 -100 -402 -45 -56 -85 -107
-89 -113 -7 -11 15 -89 144 -513 18 -61 25 -98 19 -104 -6 -6 -90 -12 -187
-14 -138 -3 -182 -1 -195 10 -11 8 -37 81 -69 193 -99 347 -92 330 -117 333
-13 2 -34 -4 -48 -12 l-24 -16 0 -234 c0 -252 1 -249 -55 -257 -60 -8 -295 -3
-306 8 -7 7 -10 244 -9 732 0 640 2 725 16 755 16 33 18 33 98 40 44 3 144 6
221 7 77 1 201 5 275 9 74 4 146 5 160 3 16 -3 72 -51 149 -128z m2421 -5
l127 -129 -4 -143 c-6 -227 -9 -240 -54 -295 -21 -26 -39 -52 -39 -57 0 -5 17
-28 39 -51 l39 -42 -5 -179 c-2 -98 -6 -188 -8 -200 -3 -12 -55 -84 -116 -160
-89 -113 -117 -141 -147 -151 -24 -7 -121 -12 -267 -12 l-231 -1 -132 133
-132 134 0 54 c0 30 5 116 10 193 l10 138 40 56 c43 61 42 69 -10 116 l-32 28
7 192 c4 105 12 200 18 211 17 33 170 218 206 250 l34 30 186 5 c102 3 219 7
260 8 l74 2 127 -130z m-1339 -29 c-1 -79 -6 -164 -10 -189 -6 -44 -7 -45 -56
-57 -27 -7 -137 -16 -243 -20 -164 -6 -194 -10 -200 -24 -13 -28 1 -708 15
-722 10 -10 63 -10 248 0 130 6 240 9 246 6 11 -8 12 -325 0 -343 -18 -30
-122 -41 -371 -42 l-246 0 -121 123 c-66 67 -125 132 -132 144 -8 15 -11 156
-11 475 l0 453 94 130 c52 72 109 144 128 162 l33 32 215 9 c118 5 260 9 315
8 l100 -1 -4 -144z m2952 11 l127 -129 0 -462 c0 -287 -4 -469 -10 -481 -5
-10 -55 -81 -110 -157 -82 -111 -108 -141 -138 -152 -27 -11 -106 -15 -302
-18 l-265 -5 -132 135 -133 134 -2 389 c-2 214 -3 423 -3 464 l0 75 87 120
c48 66 106 139 130 162 l43 42 125 4 c69 1 199 4 290 5 l166 2 127 -128z
m-1018 -1053 c4 -6 2 -45 -4 -87 -6 -42 -14 -116 -17 -163 l-5 -85 -61 -14
c-59 -13 -264 -10 -288 5 -16 10 -13 269 4 310 l15 34 83 4 c196 8 267 7 273
-4z"/>
<path d="M5868 4253 c-53 -4 -57 -6 -67 -35 -12 -33 -15 -205 -5 -232 10 -26
202 -23 255 4 l40 21 -3 122 -3 122 -80 1 c-44 0 -106 -1 -137 -3z"/>
<path d="M8242 4248 c-13 -16 -15 -34 -13 -130 l1 -78 104 0 c70 0 115 5 140
15 l36 15 0 95 0 95 -129 0 c-91 0 -132 -4 -139 -12z"/>
<path d="M8308 3663 c-48 -3 -80 -9 -88 -17 -7 -9 -10 -47 -8 -103 l3 -88 107
-3 c77 -2 117 1 143 12 l35 15 0 95 0 96 -57 -2 c-32 -1 -92 -4 -135 -5z"/>
<path d="M9859 4203 c-67 -3 -77 -6 -85 -26 -6 -13 -7 -84 -3 -167 4 -80 7
-229 8 -331 1 -150 4 -189 16 -199 17 -14 273 0 319 19 l29 12 -8 342 c-4 188
-9 345 -12 350 -4 7 -103 7 -264 0z"/>
<path d="M12015 11946 c-55 -29 -278 -147 -495 -261 -217 -114 -431 -227 -475
-250 -44 -23 -172 -91 -285 -150 -113 -59 -243 -128 -289 -152 -46 -24 -271
-143 -500 -263 -887 -467 -1055 -557 -1064 -572 -14 -21 13 -72 40 -76 14 -2
103 41 230 111 256 140 732 403 993 547 107 59 472 260 810 445 763 419 1151
634 1168 647 6 6 12 14 12 19 0 21 -52 5 -145 -45z"/>
<path d="M7290 10635 c-228 -45 -457 -196 -597 -393 -56 -78 -124 -231 -149
-337 -29 -123 -27 -381 4 -489 122 -423 494 -707 926 -706 89 0 123 6 295 50
147 38 278 115 402 239 377 377 386 971 20 1354 -116 121 -225 192 -386 250
-122 43 -378 60 -515 32z m320 -108 c209 -41 347 -112 480 -246 230 -233 303
-553 199 -866 -78 -236 -271 -438 -501 -524 -46 -17 -99 -39 -118 -48 -59 -27
-111 -32 -215 -22 -182 18 -392 104 -531 216 -143 115 -233 247 -280 412 -26
90 -26 101 -21 255 8 215 38 308 160 484 125 181 352 316 597 356 44 7 142 0
230 -17z"/>
<path d="M7335 10456 c-250 -58 -446 -208 -551 -421 -62 -127 -85 -224 -85
-360 0 -362 236 -665 586 -756 109 -28 280 -28 387 0 274 71 498 293 574 566
25 93 30 267 9 362 -21 97 -87 238 -150 322 -93 122 -248 226 -405 271 -97 28
-279 36 -365 16z m277 -366 c221 -68 347 -309 278 -531 -48 -156 -178 -269
-344 -300 -126 -23 -293 35 -380 132 -156 173 -150 424 14 590 118 119 273
158 432 109z"/>
<path d="M7410 9941 c-69 -21 -132 -75 -165 -141 -10 -19 -20 -64 -22 -100
-14 -195 151 -323 343 -265 150 45 222 221 150 368 -15 32 -43 69 -61 83 -70
53 -174 76 -245 55z m177 -40 c139 -71 182 -237 93 -359 -85 -117 -246 -136
-353 -42 -66 58 -91 116 -85 194 6 71 23 109 70 155 81 80 184 99 275 52z"/>
<path d="M7399 9807 c-44 -29 -74 -100 -65 -151 9 -50 59 -103 107 -116 94
-26 189 48 189 147 0 112 -137 183 -231 120z"/>
<path d="M7138 8373 c7 -3 16 -2 19 1 4 3 -2 6 -13 5 -11 0 -14 -3 -6 -6z"/>
</g>
</svg>
