<svg width="160" height="170" xmlns="http://www.w3.org/2000/svg">

 <metadata id="metadata5">image/svg+xml</metadata>
 <g>
  <title>background</title>
  <rect fill="none" id="canvas_background" height="172" width="162" y="-1" x="-1"/>
 </g>
 <g>
  <title>Layer 1</title>
  <g stroke="null" id="layer1">
   <path stroke="#000000" fill="none" fill-rule="nonzero" stroke-width="8" stroke-linecap="round" stroke-miterlimit="4" stroke-dashoffset="0" id="rect916" d="m48.26181,19.84451l46.88293,0m15.93878,0l13.29876,0c7.15916,0 12.92267,5.89128 12.92267,13.20914l0,75.87757m-33.5316,44.98615l-84.71077,0c-7.15915,0 -12.92267,-5.89128 -12.92267,-13.20914l0,-107.65457c0,-7.31787 5.76351,-13.20914 12.92267,-13.20914l13.32247,0"/>
   <path stroke="#000000" fill="none" stroke-width="8" stroke-miterlimit="4" d="m6.13991,52.20693l131.16503,0" id="path918"/>
   <rect stroke="#000000" fill="none" fill-rule="nonzero" stroke-width="8.00001" stroke-linecap="round" stroke-miterlimit="4" stroke-dashoffset="0" id="rect920" width="15.83025" height="29.39045" x="32.46984" y="5.14925" ry="9.07146"/>
   <rect stroke="#000000" fill="none" fill-rule="nonzero" stroke-width="8.00001" stroke-linecap="round" stroke-miterlimit="4" stroke-dashoffset="0" ry="9.07146" y="5.14925" x="95.14474" height="29.39045" width="15.83025" id="rect922"/>
   <path stroke="#000000" fill="none" fill-rule="nonzero" stroke-width="7.2597" stroke-linecap="round" stroke-miterlimit="4" stroke-dashoffset="0" id="path924" d="m126.29393,107.89001a27.55807,28.16901 0 0 1 26.93116,28.70138a27.55807,28.16901 0 0 1 -27.98683,27.62597a27.55807,28.16901 0 0 1 -27.12215,-28.51285a27.55807,28.16901 0 0 1 27.80174,-27.82055"/>
   <path stroke="null" fill="#000000" stroke-width="0.10031" d="m32.56859,134.85371c-0.73041,-0.23438 -1.3747,-0.8066 -1.7537,-1.55747c-0.23523,-0.46599 -0.32144,-1.62737 -0.15889,-2.14023c0.09881,-0.31172 0.84519,-1.65571 5.10444,-9.19151c0.81735,-1.4461 3.12406,-5.52805 5.12603,-9.07099c2.76188,-4.8878 3.68229,-6.44831 3.81554,-6.46905c0.09658,-0.01503 0.47686,0.06858 0.84507,0.18589c1.16156,0.36997 1.78604,0.45505 3.32751,0.45324c1.57531,-0.00175 2.6332,-0.14901 3.81543,-0.53085c0.60767,-0.19626 0.65071,-0.19938 0.78302,-0.0567c0.12344,0.13311 3.11334,5.3689 4.06511,7.11857c0.19663,0.36153 0.97478,1.7419 1.72916,3.0675c3.95412,6.94809 7.79348,13.77219 7.98809,14.19807c0.31337,0.68571 0.31346,1.68017 0.00026,2.36634c-0.27991,0.61318 -0.84418,1.19095 -1.44711,1.48166l-0.47157,0.22737l-16.2052,0.01651c-13.16206,0.01345 -16.27238,-0.00612 -16.5632,-0.09839l0,0.00003zm26.87068,-5.81659c0.07348,-0.04779 -0.53069,-1.19225 -2.04656,-3.87697c-1.18289,-2.09503 -2.6624,-4.71624 -3.28775,-5.82492c-3.82067,-6.77366 -5.00791,-8.84912 -5.07511,-8.87202c-0.04159,-0.01424 -0.87114,1.38465 -1.84346,3.1085c-0.97232,1.72384 -2.97202,5.26398 -4.44378,7.86695c-3.99897,7.07265 -4.22056,7.47599 -4.16119,7.57419c0.06507,0.10768 20.69284,0.13171 20.85785,0.02429zm-12.36057,-24.34815c-0.83903,-0.15482 -2.25217,-0.63157 -2.97749,-1.00452c-2.4482,-1.25883 -4.49103,-3.62742 -5.41905,-6.28317c-0.62317,-1.78341 -0.77875,-4.11041 -0.39983,-5.98016c0.91891,-4.5345 4.45441,-8.01162 8.95295,-8.80521c2.07497,-0.36604 4.79908,0.04727 6.66831,1.0118c3.5433,1.82831 5.83698,5.41458 6.04944,9.45862c0.29493,5.61343 -3.62659,10.64867 -9.0456,11.61461c-0.91425,0.16298 -2.91459,0.15673 -3.82874,-0.01206l0,0.00009zm3.98227,-2.74616c0.83285,-0.22111 1.90822,-0.71198 2.62468,-1.19807c2.50158,-1.69728 3.97552,-4.92141 3.63662,-7.95493c-0.41402,-3.70586 -2.93942,-6.59832 -6.52669,-7.47533c-0.94818,-0.23181 -2.71403,-0.21201 -3.70755,0.04159c-3.06653,0.78262 -5.36888,3.11749 -6.19666,6.28419c-0.24868,0.95139 -0.23044,3.15976 0.03438,4.16302c0.8485,3.2139 3.41637,5.64943 6.60685,6.26631c0.93889,0.18152 2.5907,0.12219 3.52834,-0.12674l0.00003,-0.00003zm-2.93611,-2.19799c-0.66917,-0.10717 -1.60747,-0.45044 -2.1926,-0.80215c-0.73284,-0.44054 -1.80435,-1.577 -2.17498,-2.30682c-0.55262,-1.08828 -0.71252,-1.7743 -0.70464,-3.02367c0.00564,-0.93383 0.04015,-1.19901 0.23196,-1.79667c0.64466,-2.00835 2.18373,-3.50537 4.18735,-4.07291c0.77088,-0.21836 2.1684,-0.23801 2.98886,-0.04202c1.90681,0.4555 3.5958,2.05528 4.25177,4.0273c0.33214,0.99847 0.38495,2.34883 0.13188,3.37178c-0.30295,1.22463 -0.70681,1.94776 -1.59374,2.85373c-1.16383,1.18885 -2.32846,1.73082 -3.92722,1.82756c-0.3884,0.02341 -0.92776,0.00699 -1.19865,-0.03608l0,-0.00003zm52.41737,0.87398c-1.93141,-0.42717 -3.59285,-1.3173 -4.97148,-2.6635c-2.10926,-2.05963 -3.18375,-4.5793 -3.21626,-7.54206l-0.0135,-1.227l-3.04155,-1.54589c-1.67285,-0.85022 -3.05229,-1.60026 -3.06544,-1.66673c-0.01333,-0.0664 0.09378,-0.19191 0.2376,-0.27875c0.46701,-0.28199 1.74599,-1.59642 2.25104,-2.31345c1.03232,-1.46558 1.58702,-2.93062 1.90862,-5.04094c0.02761,-0.18075 0.08821,-0.32866 0.13488,-0.32866c0.04667,0 1.32395,0.84795 2.83849,1.88433c1.51455,1.03635 2.80846,1.88431 2.87538,1.88431c0.06701,0 0.28301,-0.11313 0.48013,-0.25138c0.77231,-0.54166 2.07896,-1.12384 3.18789,-1.42035c0.98028,-0.26212 3.22626,-0.33209 4.26219,-0.13282c4.79253,0.92196 8.21956,4.94632 8.44372,9.91541c0.05675,1.25742 -0.00598,1.52982 -0.34967,1.52982c-0.10938,0 -1.10153,-0.53714 -2.20482,-1.19362c-3.99949,-2.37981 -5.42713,-3.19993 -5.64956,-3.24539c-0.12465,-0.02551 -0.3656,0.01302 -0.53542,0.08553c-0.33403,0.14265 -0.30406,0.09496 -2.49609,3.97349c-1.056,1.86843 -1.14083,2.1237 -0.87843,2.64239c0.08803,0.17401 0.79615,0.63715 2.63657,1.72447c1.38391,0.81761 3.09493,1.82839 3.80231,2.24619c1.17649,0.69487 1.28839,0.78239 1.31263,1.02674c0.0247,0.24936 -0.01786,0.29375 -0.64234,0.66731c-0.87088,0.5211 -1.74818,0.89021 -2.76464,1.16315c-1.1756,0.31569 -3.36645,0.3675 -4.54232,0.10744l0.00005,-0.00003zm-38.24907,-7.4385c0,-1.0598 -0.39592,-2.98176 -0.86039,-4.17698c-0.78141,-2.01072 -1.93297,-3.71599 -3.56959,-5.28605c-0.5324,-0.51078 -0.80325,-0.82949 -0.75062,-0.88328c0.04536,-0.0463 2.99467,-1.09588 6.55414,-2.33238c7.84018,-2.72354 7.39939,-2.57669 7.48466,-2.49386c0.0383,0.03722 0.10857,0.35428 0.15606,0.70456c0.28394,2.09437 1.4566,4.49111 2.89317,5.91323c0.24165,0.2392 0.43781,0.49556 0.43596,0.56967c-0.00239,0.07776 -1.20905,0.95768 -2.8509,2.07835c-1.56613,1.06897 -4.2895,2.93248 -6.05191,4.14111c-1.76238,1.20863 -3.25752,2.1975 -3.3225,2.1975c-0.08429,0 -0.11808,-0.12347 -0.11808,-0.43188zm17.10544,-8.21456c-2.6791,-0.58399 -4.85759,-2.68597 -5.63637,-5.43844c-0.1623,-0.5735 -0.19318,-0.89344 -0.19295,-1.9975c0.00033,-1.54 0.09811,-1.98554 0.73057,-3.33042c0.66164,-1.40676 1.63234,-2.46944 2.96476,-3.24558c1.26859,-0.73895 2.58865,-1.05806 4.05682,-0.98065c3.96941,0.20929 7.03718,3.50353 7.03718,7.55664c0,3.61008 -2.47833,6.71849 -5.934,7.44258c-0.818,0.17141 -2.22337,0.16833 -3.02599,-0.00699l0,0.00035zm2.57223,-2.26498c2.7431,-0.58666 4.57172,-3.35187 4.0352,-6.10188c-0.34127,-1.74942 -1.39528,-3.13743 -2.92055,-3.84611c-0.76686,-0.35631 -1.36638,-0.47933 -2.27214,-0.46631c-2.21309,0.0318 -4.14689,1.53694 -4.82258,3.75342c-0.24199,0.79375 -0.2563,2.1204 -0.03103,2.8922c0.42375,1.45295 1.38174,2.64646 2.62981,3.27634c1.17434,0.59265 2.20846,0.74322 3.38147,0.49235l-0.00019,0zm-2.0578,-1.6564c-2.22326,-0.71871 -3.22941,-3.43881 -2.0026,-5.41407c1.03741,-1.67042 3.20554,-2.22535 4.84875,-1.24102c0.19898,0.1192 0.57239,0.44925 0.8298,0.73345c1.71951,1.89846 0.87399,5.10285 -1.54824,5.86759c-0.63944,0.20187 -1.5953,0.22615 -2.12771,0.05408l0,-0.00003z" id="path962"/>
   <path stroke="#000000" fill="none" stroke-width="5" stroke-linecap="round" stroke-linejoin="round" stroke-miterlimit="4" id="path968" d="m115.38604,129.77751l-6.21904,6.3569l6.0575,6.19179"/>
   <path stroke="#000000" fill="none" stroke-width="5" stroke-linecap="round" stroke-linejoin="round" stroke-miterlimit="4" id="path970" d="m130.17701,128.07615l-9.00979,15.9514"/>
   <path stroke="#000000" fill="none" stroke-width="5" stroke-linecap="round" stroke-linejoin="round" stroke-miterlimit="4" d="m135.95816,129.77751l6.21904,6.3569l-6.0575,6.19179" id="path972"/>
  </g>
 </g>
</svg>