<?xml version="1.0" standalone="no"?>
<!DOCTYPE svg PUBLIC "-//W3C//DTD SVG 20010904//EN"
 "http://www.w3.org/TR/2001/REC-SVG-20010904/DTD/svg10.dtd">
<svg version="1.0" xmlns="http://www.w3.org/2000/svg"
 width="1275.000000pt" height="426.000000pt" viewBox="0 0 1275.000000 426.000000"
 preserveAspectRatio="xMidYMid meet">
<metadata>
Created by potrace 1.10, written by Peter Selinger 2001-2011
</metadata>
<g transform="translate(0.000000,426.000000) scale(0.100000,-0.100000)"
fill="#ffffff" stroke="none">
<path d="M2280 3280 c-116 -59 -230 -189 -230 -260 0 -29 18 -61 94 -164 50
-66 88 -105 191 -190 21 -17 27 -28 19 -35 -24 -25 -204 126 -275 231 -21 31
-44 60 -50 63 -14 9 -41 -16 -111 -105 -110 -138 -210 -241 -252 -260 -56 -24
-82 -57 -90 -110 -5 -36 -23 -67 -80 -143 -81 -108 -112 -165 -122 -227 -4
-22 -19 -59 -33 -83 -42 -66 -61 -123 -61 -183 0 -74 22 -113 120 -209 94 -92
108 -117 84 -152 -30 -47 -72 -55 -253 -52 -92 2 -172 0 -179 -5 -20 -12 -14
-54 11 -71 28 -18 252 -31 353 -20 55 6 69 12 109 47 111 98 100 162 -57 327
-85 90 -99 124 -77 186 22 61 40 70 103 55 74 -18 137 3 241 81 88 65 116 72
141 33 15 -22 17 -61 18 -319 1 -274 0 -294 -18 -314 -10 -11 -35 -23 -55 -26
-85 -13 -189 -39 -223 -56 -58 -30 -51 -51 39 -109 l77 -50 256 0 257 0 71 47
c85 57 96 78 57 109 -29 23 -164 54 -232 54 -19 0 -43 9 -60 24 l-28 24 3 404
c2 368 4 405 20 428 10 14 77 73 148 132 71 59 152 129 181 155 56 51 74 61
114 62 96 3 279 236 279 356 0 81 -73 196 -173 271 -143 107 -205 117 -327 54z
m-35 -217 c61 -81 164 -181 229 -223 103 -67 109 -71 98 -82 -15 -15 -139 55
-218 121 -109 91 -201 231 -153 231 5 0 24 -21 44 -47z"/>
<path d="M4280 3295 c-215 -36 -314 -77 -478 -199 -197 -147 -335 -355 -407
-619 -22 -80 -25 -112 -25 -247 1 -85 5 -184 9 -220 19 -138 112 -334 226
-471 66 -80 159 -155 272 -218 180 -101 313 -131 585 -131 265 0 432 36 626
134 80 40 80 40 81 291 1 326 11 536 27 566 24 48 81 89 124 89 58 0 90 38 51
60 -31 16 -726 14 -739 -3 -21 -25 12 -54 69 -61 29 -4 64 -13 79 -21 39 -20
78 -70 89 -113 13 -56 15 -686 1 -712 -17 -32 -82 -68 -167 -92 -64 -18 -105
-22 -228 -22 -139 -1 -155 1 -223 26 -148 55 -241 125 -334 251 -91 124 -158
269 -183 398 -18 97 -21 478 -4 561 37 182 135 358 265 477 102 93 188 131
352 156 81 12 108 12 202 0 125 -17 193 -43 281 -111 88 -68 163 -164 222
-287 31 -64 59 -110 70 -113 33 -11 34 -4 24 161 -12 215 -30 421 -38 443 -12
31 -37 27 -57 -9 -52 -94 -69 -97 -232 -39 -203 73 -392 99 -540 75z"/>
<path d="M7943 3290 c-126 -18 -268 -92 -347 -182 -87 -99 -144 -265 -132
-380 24 -232 148 -362 596 -623 260 -152 311 -186 369 -252 135 -152 126 -336
-23 -455 -82 -66 -154 -88 -281 -88 -165 0 -283 49 -406 167 -80 77 -118 148
-153 287 -25 98 -37 118 -66 113 -13 -2 -15 -49 -18 -338 -3 -409 -5 -401 89
-286 26 31 37 37 70 37 22 0 68 -9 102 -21 279 -94 541 -104 717 -26 58 25
157 103 201 159 180 226 167 523 -30 718 -86 85 -201 161 -407 271 -40 20 -89
48 -110 62 -22 13 -61 36 -89 51 -82 45 -205 138 -248 186 -79 89 -95 170 -55
275 16 43 36 70 85 114 77 71 141 95 253 94 263 -1 484 -207 531 -493 9 -60
32 -88 56 -69 10 9 13 77 13 329 0 175 -3 325 -6 334 -11 29 -42 18 -65 -23
-12 -22 -36 -47 -54 -57 -31 -16 -34 -16 -101 9 -215 81 -353 106 -491 87z"/>
<path d="M9376 3274 c-14 -14 -16 -71 -17 -467 0 -249 -2 -639 -3 -867 -2
-228 -1 -494 3 -590 l6 -175 28 -9 c21 -8 31 -6 43 6 14 14 17 121 21 1042 4
931 3 1029 -11 1052 -19 28 -47 31 -70 8z"/>
<path d="M10628 3273 c-85 -5 -103 -22 -53 -52 l35 -20 0 -120 c0 -122 8 -148
36 -119 10 10 15 38 15 89 1 122 7 149 40 168 20 10 29 23 27 36 -3 22 -6 23
-100 18z"/>
<path d="M5518 3249 c-41 -23 -8 -59 55 -59 88 0 171 -55 182 -120 4 -21 7
-400 8 -842 1 -777 0 -804 -19 -843 -25 -52 -88 -85 -159 -85 -66 0 -104 -24
-82 -54 13 -18 43 -18 748 -20 404 0 744 3 757 7 12 5 27 18 33 30 25 45 159
461 159 491 0 22 -19 30 -36 15 -9 -7 -31 -42 -49 -78 -73 -145 -158 -235
-275 -290 l-65 -31 -313 0 -312 0 -37 34 -38 34 3 813 3 813 25 34 c38 49 75
68 162 81 42 7 87 17 100 22 25 10 30 44 6 53 -28 11 -838 6 -856 -5z"/>
<path d="M10067 3253 c-6 -10 26 -117 66 -223 29 -74 36 -85 57 -85 20 0 29
11 56 75 38 90 74 198 74 223 0 10 -8 17 -19 17 -21 0 -51 -54 -72 -130 -17
-61 -31 -76 -53 -55 -9 9 -16 24 -16 33 0 21 -38 122 -52 140 -12 13 -34 16
-41 5z"/>
<path d="M10437 3253 c-4 -3 -7 -45 -7 -92 0 -107 -10 -144 -50 -181 -34 -32
-32 -50 3 -50 31 0 64 25 83 62 21 40 25 222 6 249 -14 20 -24 23 -35 12z"/>
<path d="M10810 3240 c-12 -22 -22 -243 -13 -267 9 -22 33 -14 44 13 14 38 7
266 -8 271 -6 2 -17 -5 -23 -17z"/>
<path d="M10173 2667 c-111 -76 -117 -214 -14 -293 20 -14 42 -19 93 -19 57 0
71 4 90 23 33 33 30 108 -7 139 -28 24 -60 30 -70 12 -4 -5 5 -27 19 -48 28
-40 27 -65 -5 -81 -22 -12 -55 -1 -96 34 -45 38 -55 74 -33 122 26 58 52 77
116 82 49 4 55 7 52 26 -3 18 -10 21 -58 23 -43 2 -62 -3 -87 -20z"/>
<path d="M10766 2668 c-23 -33 -23 -279 0 -302 17 -18 119 -22 143 -7 24 15
-4 39 -44 38 -35 -1 -64 22 -65 51 0 20 38 52 64 52 26 0 51 24 41 40 -3 5
-21 10 -39 10 -34 0 -66 25 -66 52 0 17 39 36 85 40 22 2 30 8 30 23 0 18 -8
20 -67 23 -59 3 -68 1 -82 -20z"/>
<path d="M11025 2657 c-57 -57 -46 -91 49 -156 49 -34 60 -54 46 -82 -11 -19
-15 -20 -69 -23 -37 -1 -48 -12 -35 -34 18 -29 74 -26 122 5 80 52 71 103 -31
177 -40 29 -57 45 -57 56 0 18 23 34 56 39 30 5 39 11 39 26 0 16 -8 21 -43
23 -38 3 -47 -1 -77 -31z"/>
<path d="M11236 2681 c-11 -17 5 -37 37 -47 l32 -9 1 -124 c1 -88 5 -126 14
-131 31 -19 38 1 45 126 7 119 8 124 31 130 34 9 49 30 34 49 -9 11 -34 15
-101 15 -48 0 -90 -4 -93 -9z"/>
<path d="M10424 2645 c-4 -15 -4 -67 -2 -115 6 -99 28 -149 78 -175 46 -24 74
-18 124 26 l47 41 -3 117 c-3 108 -4 116 -23 116 -18 0 -21 -9 -27 -110 -7
-101 -9 -112 -33 -132 -32 -28 -38 -28 -70 0 -25 21 -27 29 -33 137 -7 109 -8
115 -29 118 -17 3 -24 -3 -29 -23z"/>
<path d="M10366 2089 c-26 -20 -26 -22 -26 -153 0 -151 3 -159 78 -170 60 -9
94 1 90 28 -2 17 -11 22 -48 24 -52 4 -70 16 -70 47 0 29 22 47 68 54 28 5 37
11 37 26 0 16 -9 21 -43 26 -39 5 -61 20 -62 42 0 18 43 47 70 47 31 0 39 17
18 38 -19 19 -82 14 -112 -9z"/>
<path d="M10681 2096 c-55 -20 -98 -77 -106 -141 -8 -67 10 -111 68 -160 35
-31 48 -35 94 -35 39 0 55 4 59 15 9 22 -16 46 -45 45 -48 -4 -60 0 -85 25
-51 51 -47 131 9 183 27 25 44 32 74 32 46 0 58 12 35 34 -18 19 -55 19 -103
2z"/>
<path d="M11510 2097 c-24 -12 -25 -16 -32 -152 -5 -112 -4 -143 7 -154 21
-21 45 3 45 44 0 46 9 65 30 65 23 0 55 -40 70 -86 8 -23 18 -34 31 -34 31 0
33 25 8 85 -22 53 -22 56 -6 90 21 44 22 74 1 103 -33 47 -103 65 -154 39z
m100 -62 c22 -23 22 -25 6 -50 -14 -21 -24 -26 -49 -23 -26 2 -33 8 -35 30 -4
35 14 68 37 68 9 0 28 -11 41 -25z"/>
<path d="M10893 2093 c-22 -8 -14 -22 22 -37 19 -8 35 -21 36 -28 1 -7 0 -63
-1 -125 -2 -106 -1 -111 20 -118 37 -12 45 9 47 128 1 62 2 116 2 120 1 4 17
15 36 23 38 15 44 28 19 38 -19 7 -163 7 -181 -1z"/>
<path d="M11768 2089 c-16 -9 -18 -28 -18 -154 0 -139 1 -145 23 -159 12 -8
40 -13 62 -12 22 2 50 3 63 4 18 2 23 7 20 25 -2 18 -10 23 -48 25 -52 4 -70
16 -70 47 0 29 22 47 68 54 28 5 37 11 37 26 0 16 -9 21 -43 26 -38 5 -61 20
-62 40 0 15 39 39 76 47 24 5 39 14 39 22 0 18 -120 26 -147 9z"/>
<path d="M11150 2064 c-14 -37 -5 -196 14 -232 25 -48 63 -72 112 -72 36 0 49
6 77 34 19 18 37 48 41 66 8 41 8 167 0 198 -14 49 -61 5 -51 -48 10 -50 -11
-163 -34 -182 -29 -24 -45 -23 -74 7 -23 22 -25 31 -25 128 0 102 -7 127 -37
127 -8 0 -18 -12 -23 -26z"/>
<path d="M10107 2073 c-4 -3 -7 -66 -7 -139 0 -157 4 -164 102 -164 50 0 58 3
58 19 0 21 -19 31 -55 31 -45 0 -55 23 -55 130 0 54 -3 105 -6 114 -6 16 -26
21 -37 9z"/>
<path d="M10165 1518 c-38 -20 -75 -62 -75 -82 1 -27 33 -64 93 -106 74 -52
62 -100 -24 -100 -52 0 -68 -12 -48 -36 37 -45 103 -33 152 25 48 58 31 101
-71 170 -47 33 -41 63 15 75 47 10 63 34 37 53 -22 16 -52 16 -79 1z"/>
<path d="M10392 1520 c-38 -16 -48 -62 -42 -193 4 -102 8 -121 24 -133 23 -16
132 -19 141 -4 11 17 -15 40 -44 40 -36 0 -71 26 -71 54 0 29 20 46 63 55 54
11 41 37 -28 58 -16 4 -31 16 -33 24 -4 24 25 49 57 49 16 0 35 7 42 16 28 33
-50 57 -109 34z"/>
<path d="M10625 1505 c-24 -23 -25 -29 -25 -158 0 -99 3 -137 13 -146 21 -17
37 7 37 56 0 29 5 45 16 51 28 16 48 3 79 -51 37 -63 70 -77 62 -25 -3 18 -10
52 -17 75 -10 35 -10 47 4 74 23 46 20 72 -11 104 -52 52 -119 60 -158 20z
m106 -45 c27 -15 24 -56 -6 -76 -23 -15 -27 -15 -50 0 -59 38 -7 109 56 76z"/>
<path d="M11043 1520 c-36 -15 -43 -43 -43 -174 0 -151 8 -167 87 -164 27 1
56 5 66 10 27 14 3 38 -39 38 -38 0 -64 22 -64 54 0 29 14 41 60 53 40 10 50
45 15 51 -58 8 -65 13 -65 37 0 26 25 45 58 45 11 0 26 7 33 16 27 33 -50 57
-108 34z"/>
<path d="M11320 1523 c-28 -10 -80 -67 -80 -88 0 -31 25 -60 84 -100 30 -20
57 -42 60 -50 9 -26 -33 -55 -80 -55 -47 0 -62 -13 -43 -36 23 -28 57 -35 92
-20 33 13 97 78 97 97 0 25 -35 67 -86 103 -70 48 -71 75 -5 91 50 12 63 31
35 52 -18 13 -47 16 -74 6z"/>
<path d="M10880 1481 c-15 -29 -13 -243 3 -265 25 -34 36 3 38 135 1 69 -1
131 -5 137 -11 17 -24 15 -36 -7z"/>
</g>
</svg>
