<svg width="208" height="150" xmlns="http://www.w3.org/2000/svg" preserveAspectRatio="xMidYMid meet">
 <metadata>Created by potrace 1.10, written by Peter Selinger 2001-2011</metadata>

 <g>
  <title>background</title>
  <rect fill="none" id="canvas_background" height="152" width="210" y="-1" x="-1"/>
 </g>
 <g>
  <title>Layer 1</title>
  <g id="svg_1" fill="#000000" transform="translate(0,300) scale(0.10000000149011612,-0.10000000149011612) ">
   <path id="svg_2" d="m481,2843c-137,-100 -190,-144 -191,-158c0,-11 6,-40 14,-65c14,-49 42,-64 66,-35c7,8 15,15 19,15c3,0 5,-58 3,-130c-4,-171 -3,-171 -197,-115c-116,33 -185,41 -185,22c0,-17 13,-22 83,-32c26,-3 72,-15 102,-25c71,-24 135,-34 174,-25c51,11 61,44 61,198c0,152 -8,172 -53,137c-14,-11 -27,-20 -30,-20c-7,0 -30,70 -25,74c19,16 336,244 346,250c8,5 36,-10 74,-38c68,-51 84,-49 80,9c-3,35 -2,35 38,35l40,0l0,-80l0,-80l66,-47c64,-46 65,-49 59,-83c-4,-19 -8,-37 -10,-39c-2,-2 -18,7 -34,19c-17,11 -35,18 -41,15c-17,-10 -13,-291 5,-324c46,-89 290,-116 515,-57c52,14 168,52 257,85c90,34 200,72 245,85c55,16 84,29 86,40c2,9 0,16 -3,16c-26,0 -158,-42 -320,-102c-268,-99 -351,-119 -500,-119c-66,1 -134,5 -151,10c-48,14 -93,40 -104,60c-5,11 -10,74 -10,141l0,120l25,-16c13,-9 30,-14 36,-12c15,5 50,99 44,118c-3,9 -34,38 -70,64l-64,47l-3,82l-3,82l-65,0l-65,0l-3,-32l-3,-32l-52,40c-29,21 -55,39 -58,39c-4,0 -93,-62 -198,-137z"/>
   <path id="svg_3" d="m1934,2265c-18,-20 -37,-48 -40,-63c-8,-36 -52,-112 -64,-112c-13,0 -13,1 10,55c24,57 25,84 3,92c-12,5 -28,-7 -56,-38c-22,-24 -35,-34 -28,-22c11,22 3,37 -15,25c-6,-4 -18,-29 -28,-55c-19,-51 -60,-106 -71,-96c-3,4 6,32 20,64c29,67 30,75 10,75c-9,0 -24,-17 -33,-38c-58,-127 -115,-157 -81,-42c9,30 18,39 40,44c33,6 40,26 9,26c-18,0 -19,1 -2,45c9,24 13,47 9,51c-11,12 -33,-14 -47,-57c-10,-28 -22,-44 -39,-51c-24,-9 -25,-11 -9,-22c16,-12 15,-16 -11,-58c-49,-77 -76,-80 -39,-4c17,36 20,51 12,64c-18,28 -43,25 -74,-8c-23,-25 -30,-28 -28,-14c5,35 -17,27 -37,-13c-29,-57 -62,-99 -71,-90c-5,4 2,27 14,50c26,50 27,57 6,57c-8,0 -22,7 -30,15c-34,34 -83,11 -127,-60c-28,-46 -67,-84 -67,-66c0,6 11,34 25,62c29,56 25,74 -13,64c-15,-4 -28,-1 -33,6c-12,21 -42,2 -36,-24c4,-15 -4,-36 -29,-69c-19,-27 -39,-48 -44,-48c-14,0 -13,5 11,51c19,38 20,72 2,67c-4,-1 -18,3 -30,10c-41,23 -69,2 -144,-106c-40,-58 -53,-44 -23,23c28,65 29,75 9,75c-8,0 -30,-30 -49,-68c-39,-77 -62,-103 -71,-80c-5,12 13,61 43,121c2,4 -6,7 -17,7c-23,0 -31,-13 -55,-83c-29,-86 23,-120 71,-48c20,29 23,31 23,12c0,-33 28,-37 57,-8l26,25l17,-20c21,-27 55,-17 75,23c9,16 18,29 21,29c3,0 2,-5 -1,-10c-11,-17 5,-50 25,-50c21,0 62,46 90,100c16,31 37,50 56,50c2,0 -8,-21 -21,-46c-29,-54 -31,-77 -11,-93c16,-14 52,0 72,27c10,14 13,13 23,-6c19,-35 66,-28 89,13c11,19 11,19 12,-3c0,-27 26,-39 51,-24c11,7 20,8 24,2c10,-17 34,1 40,30c7,34 79,119 91,107c4,-4 -3,-29 -16,-57c-19,-41 -21,-52 -10,-65c19,-22 46,-18 68,10c20,25 21,25 27,5c8,-26 48,-27 74,-1c16,16 20,17 25,5c7,-19 40,-18 56,1c10,12 15,13 21,4c11,-18 35,4 42,39c8,38 64,122 81,122c13,0 12,-7 -4,-46c-24,-54 -26,-94 -6,-94c28,0 47,13 63,43c13,26 17,28 25,14c13,-24 55,-21 83,7c29,29 68,103 62,119c-2,7 -14,-7 -25,-30c-30,-57 -61,-86 -79,-72c-22,19 -15,37 21,54c37,18 60,52 54,81c-6,32 -37,28 -74,-11zm45,-31c-17,-21 -49,-37 -49,-25c0,5 12,24 27,42c23,27 29,29 31,15c2,-9 -2,-24 -9,-32zm-725,-143c-37,-58 -84,-92 -84,-61c0,50 62,119 87,98c11,-9 11,-15 -3,-37zm-328,12c-21,-54 -75,-107 -93,-90c-9,9 7,46 34,77c28,33 70,42 59,13z"/>
   <path id="svg_4" d="m1675,2256c-19,-14 -13,-36 9,-36c8,0 19,6 25,14c18,21 -10,40 -34,22z"/>
   <path id="svg_5" d="m485,2196c-39,-17 -108,-83 -128,-123c-28,-53 -39,-121 -27,-159c14,-43 42,-58 87,-49l36,6l-28,-24c-20,-16 -26,-29 -22,-41c6,-16 12,-14 45,16c21,19 59,43 85,54c48,20 63,44 26,44c-11,0 -30,-5 -42,-11c-14,-8 -10,1 16,32c70,81 85,200 32,247c-30,25 -39,26 -80,8zm60,-33c38,-37 -10,-194 -74,-244c-32,-26 -68,-34 -85,-20c-19,16 -30,100 -16,131c10,24 10,23 6,-7c-6,-37 2,-66 15,-57c5,3 9,20 9,37c0,66 73,177 116,177c7,0 20,-8 29,-17z"/>
   <path id="svg_6" d="m1962,1917c-12,-13 -22,-30 -22,-38c0,-12 -2,-12 -9,0c-12,19 -28,6 -36,-28c-8,-39 -30,-46 -44,-14c-10,21 -16,24 -39,18c-37,-9 -61,-32 -85,-83c-31,-68 -69,-74 -42,-7c19,44 13,74 -10,55c-8,-6 -17,-22 -21,-33c-19,-61 -74,-102 -74,-54c0,46 12,67 36,67c13,0 24,5 24,10c0,6 -9,10 -19,10c-17,0 -18,3 -8,35c6,19 7,38 4,41c-11,12 -35,-16 -42,-48c-4,-18 -15,-32 -26,-35c-20,-6 -27,-23 -9,-23c18,0 10,-25 -19,-60c-36,-43 -49,-34 -27,20c20,50 20,60 1,60c-8,0 -24,-20 -36,-44c-22,-49 -45,-73 -57,-62c-4,4 8,49 26,100c17,51 32,96 32,99c0,4 -9,7 -20,7c-16,0 -23,-12 -36,-58c-15,-55 -18,-58 -44,-54c-39,6 -67,-12 -89,-56c-21,-42 -97,-116 -137,-134c-21,-10 -27,-9 -35,3c-23,37 11,99 70,125c75,33 42,45 -36,13c-18,-7 -35,-10 -39,-7c-12,13 32,73 66,91c34,17 35,17 38,-3c4,-24 20,-26 29,-4c15,40 -55,49 -111,15c-53,-33 -76,-108 -36,-118c19,-5 19,-6 -5,-35c-32,-38 -35,-102 -5,-118c31,-16 112,23 160,78c22,25 40,40 40,34c0,-6 9,-16 20,-22c17,-9 25,-6 50,18c25,26 29,27 33,10c6,-22 40,-24 57,-3c9,11 16,13 24,5c17,-17 54,-11 70,12c14,19 16,19 22,5c8,-22 72,-23 81,-2c5,14 7,14 24,0c21,-20 54,-12 69,16c10,17 13,18 26,4c25,-24 70,-19 93,11c12,15 21,32 21,39c0,7 7,19 16,26c15,12 16,10 10,-18c-4,-18 -4,-37 -1,-43c11,-18 35,9 35,39c0,33 47,134 58,127c5,-3 3,-29 -4,-58c-12,-45 -12,-54 1,-67c13,-13 17,-13 34,3c20,18 46,96 39,118c-3,7 -11,-9 -19,-36c-19,-67 -39,-73 -26,-8c10,48 6,82 -11,82c-5,0 -18,-10 -30,-23zm-130,-89c-17,-17 -15,-36 3,-40c12,-2 10,-9 -11,-31c-30,-32 -48,-31 -52,4c-3,29 32,79 56,79c12,0 13,-3 4,-12zm-452,-54c0,-21 -56,-94 -72,-94c-16,0 -8,48 13,74c18,22 59,37 59,20z"/>
   <path id="svg_7" d="m1683,1883c-7,-3 -13,-11 -13,-20c0,-17 41,-14 47,3c4,13 -16,23 -34,17z"/>
   <path id="svg_8" d="m1485,1860c-8,-13 3,-30 20,-30c20,0 30,21 14,31c-18,11 -26,11 -34,-1z"/>
  </g>
 </g>
</svg>