<svg width="290" height="100" xmlns="http://www.w3.org/2000/svg">

 <metadata id="metadata2">image/svg+xml</metadata>
 <g>
  <title>background</title>
  <rect fill="none" id="canvas_background" height="102" width="292" y="-1" x="-1"/>
 </g>
 <g>
  <title>Layer 1</title>
  <g transform="matrix(1.3946598,0,0,1.3946598,4.0102248,-75.544215) " id="g16">
   <g transform="matrix(0.87301,0,0,0.87301,455.86,-290.97) " id="g14">
    <path stroke-width="0.15513" d="m-434.07188,468.35607c-0.46724,-0.49879 -0.65789,-1.0988 -0.65789,-2.0705c0,-1.6976 0.59471,-2.3894 2.0541,-2.3894l0.89921,0l-0.11421,-0.42661c-0.0628,-0.23463 -0.1129,-1.7878 -0.11131,-3.4516c0.004,-3.3802 0.21323,-4.9212 0.99824,-7.3257c1.3245,-4.057 3.3474,-6.7084 9.4266,-12.356c2.598,-2.4135 3.757,-4.076 3.5146,-5.0418c-0.0467,-0.18585 -0.5055,-0.60379 -1.0443,-0.95116c-3.9076,-2.5194 -8.1795,-6.9112 -10.369,-10.66c-1.4887,-2.549 -2.6749,-5.7572 -3.1704,-8.5748c-0.30541,-1.7367 -0.36654,-5.707 -0.10689,-6.942l0.15493,-0.73686l-0.48841,0c-1.0317,0 -1.6433,-0.89491 -1.6433,-2.4045c0,-0.95181 0.26095,-1.7178 0.72627,-2.1318c0.28489,-0.25347 1.4026,-0.27045 18.04,-0.27403c16.738,-0.004 17.754,0.0116 18.044,0.27021c0.46942,0.41775 0.7305,1.181 0.7305,2.1356c0,1.0452 -0.28466,1.7816 -0.84711,2.1913l-0.42001,0.30596l0.19065,1.3039c0.24607,1.6829 0.0981,5.0241 -0.30814,6.9596c-0.85642,4.08 -2.6775,7.8796 -5.4319,11.334c-1.882,2.3601 -5.3108,5.4712 -7.9595,7.2221c-0.8468,0.55978 -0.89198,0.62213 -0.89198,1.2305c0,1.0734 0.90078,2.3976 3.0166,4.4344c5.7368,5.5226 7.1296,7.1187 8.5008,9.7414c0.88808,1.6987 1.4136,3.1696 1.855,5.1922c0.30309,1.3889 0.34707,2.0486 0.35146,5.2718l0.005,3.6843l0.39209,-0.00001c0.93039,-0.00004 1.547,0.95234 1.547,2.3894c0,0.97173 -0.19065,1.5717 -0.65789,2.0705l-0.32697,0.34903l-35.571,0l-0.32684,-0.34943zm9.681,-8.9282c4.0992,-4.0914 5.9629,-5.7222 7.5378,-6.5953l0.89015,-0.4935l0.001,-9.5404l0.001,-9.5404l-0.96897,-0.50274c-3.0001,-1.5566 -7.3277,-5.8742 -10.323,-10.3l-0.48676,-0.71911c5.7759,0.3445 13.303,-2.7687 18.699,-2.4294c2.5725,0.0951 4.3374,1.5436 5.4471,2.4531c-0.93266,1.4295 -1.6817,2.7156 -3.1428,4.4089c-1.9417,2.2502 -4.2473,4.3114 -6.9089,6.1764l-1.2284,0.86083l0,19.332l0.36763,0.0923c1.5626,0.39218 8.0997,5.8284 11.436,9.5097c1.0283,1.1348 1.2098,1.2701 1.7158,1.2798l0.56584,0.0109l0.1105,-2.0632c0.22063,-4.1194 -0.49087,-7.8592 -2.0492,-10.771c-1.2975,-2.4245 -2.5337,-3.9333 -5.5713,-6.8002c-1.3498,-1.274 -2.954,-2.8297 -3.5649,-3.4572c-2.2579,-2.3194 -3.1582,-4.6934 -2.3413,-6.1742c0.10141,-0.18383 1.0919,-0.98662 2.2011,-1.784c2.5085,-1.8033 6.2024,-5.4266 7.7249,-7.5773c2.0416,-2.884 3.702,-6.8195 4.2385,-10.047c0.26671,-1.6042 0.35699,-4.8457 0.16196,-5.8153l-0.11702,-0.58174l-31.126,0l-0.0962,0.58174c-0.14789,0.89476 -0.11147,4.0227 0.061,5.2356c0.76278,5.3651 3.6238,10.63 8.1049,14.913c1.2106,1.1573 3.1184,2.6804 5.6738,4.5295c1.3955,1.0098 1.2246,2.9525 -0.45607,5.1849c-0.43412,0.57664 -1.5686,1.7624 -2.5212,2.6349c-2.948,2.7006 -5.4448,5.2587 -6.411,6.5684c-1.7784,2.4106 -2.9136,5.0999 -3.3882,8.0268c-0.23015,1.419 -0.32387,6.3385 -0.13423,7.0462c0.0833,0.31093 0.19146,0.34904 0.99028,0.34904l0.89675,0l4.0105,-4.0029l-0.00006,0.00088z" id="path4"/>
    <text font-family="sans-serif" fill="#000000" stroke-width="0.81564" x="-520.82419" y="447.02713" font-size="32.626px" xml:space="preserve" id="text8">
     <tspan font-family="Fonarto" fill="#000000" stroke-width="0.81564" x="-520.82419" y="447.02713" id="tspan6">HOUR</tspan>
    </text>
    <text font-family="sans-serif" fill="#000000" stroke-width="0.81119" x="-396.95993" y="447.47601" font-size="32.447px" xml:space="preserve" id="text12">
     <tspan font-family="Fonarto" fill="#000000" stroke-width="0.81119" x="-396.95993" y="447.47601" id="tspan10">GLASS</tspan>
    </text>
   </g>
  </g>
 </g>
</svg>