<svg width="1005" height="206" viewBox="0 0 1005 206" fill="none" xmlns="http://www.w3.org/2000/svg">
<rect y="39" width="295" height="91" fill="white"/>
<path d="M47.052 107V60.614H56.286V77.192H60.66V60.614H69.894V107H60.66V85.94H56.286V107H47.052ZM87.7693 107.432C84.0253 107.432 81.1813 106.298 79.2373 104.03C77.2933 101.726 76.3213 98.504 76.3213 94.364V72.278C76.3213 68.282 77.2933 65.276 79.2373 63.26C81.1813 61.208 84.0253 60.182 87.7693 60.182C91.5133 60.182 94.3573 61.208 96.3013 63.26C98.2453 65.276 99.2173 68.282 99.2173 72.278V94.364C99.2173 98.54 98.2453 101.762 96.3013 104.03C94.3573 106.298 91.5133 107.432 87.7693 107.432ZM87.7693 98.9C88.5973 98.9 89.1553 98.54 89.4433 97.82C89.7313 97.1 89.8753 96.092 89.8753 94.796V72.116C89.8753 71.108 89.7313 70.298 89.4433 69.686C89.1913 69.038 88.6513 68.714 87.8233 68.714C86.2753 68.714 85.5013 69.884 85.5013 72.224V94.85C85.5013 96.182 85.6633 97.19 85.9873 97.874C86.3113 98.558 86.9053 98.9 87.7693 98.9ZM116.407 107.432C112.591 107.432 109.747 106.352 107.875 104.192C106.039 102.032 105.121 98.828 105.121 94.58V60.614H114.139V94.202C114.139 95.678 114.283 96.83 114.571 97.658C114.859 98.486 115.471 98.9 116.407 98.9C117.343 98.9 117.955 98.504 118.243 97.712C118.531 96.884 118.675 95.714 118.675 94.202V60.614H127.693V94.58C127.693 98.828 126.757 102.032 124.885 104.192C123.049 106.352 120.223 107.432 116.407 107.432ZM133.937 60.614H148.193C150.461 60.614 152.207 61.136 153.431 62.18C154.691 63.188 155.537 64.628 155.969 66.5C156.401 68.336 156.617 70.694 156.617 73.574C156.617 76.202 156.275 78.254 155.591 79.73C154.907 81.206 153.719 82.232 152.027 82.808C153.431 83.096 154.439 83.798 155.051 84.914C155.699 86.03 156.023 87.542 156.023 89.45L155.915 107H146.843V88.856C146.843 87.56 146.591 86.732 146.087 86.372C145.583 86.012 144.665 85.832 143.333 85.832V107H133.937V60.614ZM145.601 77.786C146.897 77.786 147.545 76.382 147.545 73.574C147.545 72.35 147.491 71.432 147.383 70.82C147.275 70.208 147.077 69.794 146.789 69.578C146.501 69.326 146.087 69.2 145.547 69.2H143.387V77.786H145.601ZM171.93 107.432C168.582 107.432 166.08 106.262 164.424 103.922C162.804 101.546 161.994 97.964 161.994 93.176V73.196C161.994 68.912 162.948 65.672 164.856 63.476C166.764 61.28 169.608 60.182 173.388 60.182C176.448 60.182 178.824 60.794 180.516 62.018C182.208 63.242 183.378 65.024 184.026 67.364C184.674 69.704 184.998 72.71 184.998 76.382H175.926V72.224C175.926 71.108 175.764 70.244 175.44 69.632C175.152 69.02 174.612 68.714 173.82 68.714C172.056 68.714 171.174 69.866 171.174 72.17V94.634C171.174 96.038 171.354 97.1 171.714 97.82C172.074 98.54 172.704 98.9 173.604 98.9C174.504 98.9 175.134 98.54 175.494 97.82C175.854 97.1 176.034 96.038 176.034 94.634V87.992H173.55V80H184.89V107H181.164L179.598 103.112C177.942 105.992 175.386 107.432 171.93 107.432ZM191.281 107V60.614H200.569V99.116H210.127V107H191.281ZM214.201 107L218.683 60.614H234.397L238.825 107H230.023L229.375 99.494H223.759L223.219 107H214.201ZM224.461 92.096H228.673L226.621 68.498H226.189L224.461 92.096ZM255.368 107.432C251.156 107.432 248.114 106.388 246.242 104.3C244.37 102.212 243.434 98.846 243.434 94.202V89.666H252.56V95.444C252.56 97.748 253.298 98.9 254.774 98.9C255.602 98.9 256.178 98.666 256.502 98.198C256.826 97.694 256.988 96.866 256.988 95.714C256.988 94.202 256.808 92.96 256.448 91.988C256.088 90.98 255.62 90.152 255.044 89.504C254.504 88.82 253.514 87.776 252.074 86.372L248.078 82.376C244.982 79.352 243.434 76.004 243.434 72.332C243.434 68.372 244.334 65.366 246.134 63.314C247.97 61.226 250.634 60.182 254.126 60.182C258.302 60.182 261.308 61.298 263.144 63.53C264.98 65.726 265.898 69.182 265.898 73.898H256.448L256.394 70.712C256.394 70.1 256.214 69.614 255.854 69.254C255.53 68.894 255.062 68.714 254.45 68.714C253.73 68.714 253.19 68.912 252.83 69.308C252.47 69.704 252.29 70.244 252.29 70.928C252.29 72.44 253.154 74.006 254.882 75.626L260.282 80.81C261.542 82.034 262.586 83.204 263.414 84.32C264.242 85.4 264.908 86.696 265.412 88.208C265.916 89.684 266.168 91.448 266.168 93.5C266.168 98.072 265.322 101.546 263.63 103.922C261.974 106.262 259.22 107.432 255.368 107.432ZM282.959 107.432C278.747 107.432 275.705 106.388 273.833 104.3C271.961 102.212 271.025 98.846 271.025 94.202V89.666H280.151V95.444C280.151 97.748 280.889 98.9 282.365 98.9C283.193 98.9 283.769 98.666 284.093 98.198C284.417 97.694 284.579 96.866 284.579 95.714C284.579 94.202 284.399 92.96 284.039 91.988C283.679 90.98 283.211 90.152 282.635 89.504C282.095 88.82 281.105 87.776 279.665 86.372L275.669 82.376C272.573 79.352 271.025 76.004 271.025 72.332C271.025 68.372 271.925 65.366 273.725 63.314C275.561 61.226 278.225 60.182 281.717 60.182C285.893 60.182 288.899 61.298 290.735 63.53C292.571 65.726 293.489 69.182 293.489 73.898H284.039L283.985 70.712C283.985 70.1 283.805 69.614 283.445 69.254C283.121 68.894 282.653 68.714 282.041 68.714C281.321 68.714 280.781 68.912 280.421 69.308C280.061 69.704 279.881 70.244 279.881 70.928C279.881 72.44 280.745 74.006 282.473 75.626L287.873 80.81C289.133 82.034 290.177 83.204 291.005 84.32C291.833 85.4 292.499 86.696 293.003 88.208C293.507 89.684 293.759 91.448 293.759 93.5C293.759 98.072 292.913 101.546 291.221 103.922C289.565 106.262 286.811 107.432 282.959 107.432Z" fill="black"/>
<rect x="360" width="280" height="5" fill="white"/>
<rect y="204" width="1005" height="2" fill="#FC9779"/>
<rect x="1003" y="169" width="2" height="35" fill="#FC9779"/>
<rect x="295" y="58" width="300" height="50" fill="#FC9779"/>
<path d="M328.852 107.432C325.468 107.432 322.75 106.37 320.698 104.246C318.682 102.122 317.674 99.206 317.674 95.498V74.114C317.674 69.506 318.592 66.032 320.428 63.692C322.264 61.352 325.144 60.182 329.068 60.182C332.488 60.182 335.242 61.118 337.33 62.99C339.418 64.862 340.462 67.562 340.462 71.09V79.082H331.228V72.224C331.228 70.892 331.066 69.974 330.742 69.47C330.418 68.966 329.86 68.714 329.068 68.714C328.24 68.714 327.664 69.002 327.34 69.578C327.052 70.154 326.908 71 326.908 72.116V95.39C326.908 96.614 327.088 97.514 327.448 98.09C327.808 98.63 328.348 98.9 329.068 98.9C330.508 98.9 331.228 97.73 331.228 95.39V87.02H340.57V95.768C340.57 103.544 336.664 107.432 328.852 107.432ZM355.778 107.432C352.034 107.432 349.19 106.298 347.246 104.03C345.302 101.726 344.33 98.504 344.33 94.364V72.278C344.33 68.282 345.302 65.276 347.246 63.26C349.19 61.208 352.034 60.182 355.778 60.182C359.522 60.182 362.366 61.208 364.31 63.26C366.254 65.276 367.226 68.282 367.226 72.278V94.364C367.226 98.54 366.254 101.762 364.31 104.03C362.366 106.298 359.522 107.432 355.778 107.432ZM355.778 98.9C356.606 98.9 357.164 98.54 357.452 97.82C357.74 97.1 357.884 96.092 357.884 94.796V72.116C357.884 71.108 357.74 70.298 357.452 69.686C357.2 69.038 356.66 68.714 355.832 68.714C354.284 68.714 353.51 69.884 353.51 72.224V94.85C353.51 96.182 353.672 97.19 353.996 97.874C354.32 98.558 354.914 98.9 355.778 98.9ZM372.05 107V60.614H381.608L385.874 82.808V60.614H394.838V107H385.766L381.122 83.78V107H372.05ZM410.824 107.432C407.44 107.432 404.722 106.37 402.67 104.246C400.654 102.122 399.646 99.206 399.646 95.498V74.114C399.646 69.506 400.564 66.032 402.4 63.692C404.236 61.352 407.116 60.182 411.04 60.182C414.46 60.182 417.214 61.118 419.302 62.99C421.39 64.862 422.434 67.562 422.434 71.09V79.082H413.2V72.224C413.2 70.892 413.038 69.974 412.714 69.47C412.39 68.966 411.832 68.714 411.04 68.714C410.212 68.714 409.636 69.002 409.312 69.578C409.024 70.154 408.88 71 408.88 72.116V95.39C408.88 96.614 409.06 97.514 409.42 98.09C409.78 98.63 410.32 98.9 411.04 98.9C412.48 98.9 413.2 97.73 413.2 95.39V87.02H422.542V95.768C422.542 103.544 418.636 107.432 410.824 107.432ZM426.681 107V60.614H435.969V99.116H445.527V107H426.681ZM447.981 107L452.463 60.614H468.177L472.605 107H463.803L463.155 99.494H457.539L456.999 107H447.981ZM458.241 92.096H462.453L460.401 68.498H459.969L458.241 92.096ZM479.618 107L473.894 60.56H482.75L486.152 92.15L489.176 60.56H498.032L492.308 107H479.618ZM501.745 107V60.614H520.321V69.578H511.195V78.596H519.943V87.344H511.195V97.982H520.915V107H501.745Z" fill="black"/>
<rect x="498" y="108" width="120" height="7" fill="white"/>
<mask id="mask0" mask-type="alpha" maskUnits="userSpaceOnUse" x="595" y="58" width="23" height="50">
<rect x="595" y="58" width="23" height="50" fill="#C4C4C4"/>
</mask>
<g mask="url(#mask0)">
<line x1="591.437" y1="97.7572" x2="597.265" y2="108.247" stroke="#FC9779"/>
<line x1="593.437" y1="97.7572" x2="599.265" y2="108.247" stroke="#FC9779"/>
<line x1="594.437" y1="95.7572" x2="601.722" y2="108.87" stroke="#FC9779"/>
<line x1="594.437" y1="91.7572" x2="604.15" y2="109.24" stroke="#FC9779"/>
<line x1="594.437" y1="87.7572" x2="606.578" y2="109.611" stroke="#FC9779"/>
<line x1="594.437" y1="83.7572" x2="609.006" y2="109.982" stroke="#FC9779"/>
<line x1="605.437" y1="56.7572" x2="620.006" y2="82.9819" stroke="#FC9779"/>
<line x1="606.437" y1="54.7572" x2="621.006" y2="80.9819" stroke="#FC9779"/>
<line x1="607.437" y1="52.7572" x2="622.006" y2="78.9819" stroke="#FC9779"/>
<line x1="608.437" y1="50.7572" x2="623.006" y2="76.9819" stroke="#FC9779"/>
<line x1="610.437" y1="50.7572" x2="625.006" y2="76.9819" stroke="#FC9779"/>
<line x1="611.437" y1="48.7572" x2="626.006" y2="74.9819" stroke="#FC9779"/>
<line x1="594.437" y1="79.7572" x2="611.435" y2="110.353" stroke="#FC9779"/>
<line x1="594.437" y1="75.7572" x2="613.863" y2="110.723" stroke="#FC9779"/>
<line x1="594.437" y1="71.7572" x2="616.291" y2="111.094" stroke="#FC9779"/>
<line x1="594.437" y1="67.7572" x2="617.262" y2="108.843" stroke="#FC9779"/>
<line x1="594.437" y1="63.7572" x2="618.719" y2="107.465" stroke="#FC9779"/>
<line x1="594.437" y1="59.7572" x2="618.719" y2="103.465" stroke="#FC9779"/>
<line x1="595.437" y1="57.7572" x2="619.719" y2="101.465" stroke="#FC9779"/>
<line x1="596.437" y1="55.7572" x2="620.719" y2="99.465" stroke="#FC9779"/>
<line x1="597.437" y1="53.7572" x2="621.719" y2="97.465" stroke="#FC9779"/>
<line x1="598.437" y1="51.7572" x2="622.719" y2="95.465" stroke="#FC9779"/>
<line x1="599.437" y1="49.7572" x2="623.719" y2="93.465" stroke="#FC9779"/>
</g>
</svg>
