<svg width="961" height="206" viewBox="0 0 961 206" fill="none" xmlns="http://www.w3.org/2000/svg">
<rect x="1" y="39" width="250" height="91" fill="white"/>
<path d="M46.052 60.614H58.31C62.018 60.614 64.664 61.82 66.248 64.232C67.832 66.608 68.624 70.1 68.624 74.708C68.624 79.316 67.922 82.79 66.518 85.13C65.114 87.47 62.594 88.64 58.958 88.64H55.178V107H46.052V60.614ZM55.718 80.27C56.834 80.27 57.644 80.072 58.148 79.676C58.688 79.244 59.03 78.65 59.174 77.894C59.354 77.102 59.444 75.986 59.444 74.546C59.444 72.602 59.228 71.198 58.796 70.334C58.364 69.47 57.5 69.038 56.204 69.038H55.178V80.27H55.718ZM74.2227 60.614H88.4787C90.7467 60.614 92.4927 61.136 93.7167 62.18C94.9767 63.188 95.8227 64.628 96.2547 66.5C96.6867 68.336 96.9027 70.694 96.9027 73.574C96.9027 76.202 96.5607 78.254 95.8767 79.73C95.1927 81.206 94.0047 82.232 92.3127 82.808C93.7167 83.096 94.7247 83.798 95.3367 84.914C95.9847 86.03 96.3087 87.542 96.3087 89.45L96.2007 107H87.1287V88.856C87.1287 87.56 86.8767 86.732 86.3727 86.372C85.8687 86.012 84.9507 85.832 83.6187 85.832V107H74.2227V60.614ZM85.8867 77.786C87.1827 77.786 87.8307 76.382 87.8307 73.574C87.8307 72.35 87.7767 71.432 87.6687 70.82C87.5607 70.208 87.3627 69.794 87.0747 69.578C86.7867 69.326 86.3727 69.2 85.8327 69.2H83.6727V77.786H85.8867ZM102.657 107V60.614H121.233V69.578H112.107V78.596H120.855V87.344H112.107V97.982H121.827V107H102.657ZM131.877 107L126.153 60.56H135.009L138.411 92.15L141.435 60.56H150.291L144.567 107H131.877ZM155.191 107V60.614H164.155V107H155.191ZM181.628 107.432C177.884 107.432 175.04 106.298 173.096 104.03C171.152 101.726 170.18 98.504 170.18 94.364V72.278C170.18 68.282 171.152 65.276 173.096 63.26C175.04 61.208 177.884 60.182 181.628 60.182C185.372 60.182 188.216 61.208 190.16 63.26C192.104 65.276 193.076 68.282 193.076 72.278V94.364C193.076 98.54 192.104 101.762 190.16 104.03C188.216 106.298 185.372 107.432 181.628 107.432ZM181.628 98.9C182.456 98.9 183.014 98.54 183.302 97.82C183.59 97.1 183.734 96.092 183.734 94.796V72.116C183.734 71.108 183.59 70.298 183.302 69.686C183.05 69.038 182.51 68.714 181.682 68.714C180.134 68.714 179.36 69.884 179.36 72.224V94.85C179.36 96.182 179.522 97.19 179.846 97.874C180.17 98.558 180.764 98.9 181.628 98.9ZM210.266 107.432C206.45 107.432 203.606 106.352 201.734 104.192C199.898 102.032 198.98 98.828 198.98 94.58V60.614H207.998V94.202C207.998 95.678 208.142 96.83 208.43 97.658C208.718 98.486 209.33 98.9 210.266 98.9C211.202 98.9 211.814 98.504 212.102 97.712C212.39 96.884 212.534 95.714 212.534 94.202V60.614H221.552V94.58C221.552 98.828 220.616 102.032 218.744 104.192C216.908 106.352 214.082 107.432 210.266 107.432ZM238.812 107.432C234.6 107.432 231.558 106.388 229.686 104.3C227.814 102.212 226.878 98.846 226.878 94.202V89.666H236.004V95.444C236.004 97.748 236.742 98.9 238.218 98.9C239.046 98.9 239.622 98.666 239.946 98.198C240.27 97.694 240.432 96.866 240.432 95.714C240.432 94.202 240.252 92.96 239.892 91.988C239.532 90.98 239.064 90.152 238.488 89.504C237.948 88.82 236.958 87.776 235.518 86.372L231.522 82.376C228.426 79.352 226.878 76.004 226.878 72.332C226.878 68.372 227.778 65.366 229.578 63.314C231.414 61.226 234.078 60.182 237.57 60.182C241.746 60.182 244.752 61.298 246.588 63.53C248.424 65.726 249.342 69.182 249.342 73.898H239.892L239.838 70.712C239.838 70.1 239.658 69.614 239.298 69.254C238.974 68.894 238.506 68.714 237.894 68.714C237.174 68.714 236.634 68.912 236.274 69.308C235.914 69.704 235.734 70.244 235.734 70.928C235.734 72.44 236.598 74.006 238.326 75.626L243.726 80.81C244.986 82.034 246.03 83.204 246.858 84.32C247.686 85.4 248.352 86.696 248.856 88.208C249.36 89.684 249.612 91.448 249.612 93.5C249.612 98.072 248.766 101.546 247.074 103.922C245.418 106.262 242.664 107.432 238.812 107.432Z" fill="black"/>
<rect x="316" width="280" height="5" fill="white"/>
<rect x="1" y="204" width="960" height="2" fill="#FC9779"/>
<rect x="959" y="169" width="2" height="35" fill="#FC9779"/>
<rect x="251" y="58" width="300" height="50" fill="#FC9779"/>
<path d="M283.61 107.432C280.262 107.432 277.76 106.262 276.104 103.922C274.484 101.546 273.674 97.964 273.674 93.176V73.196C273.674 68.912 274.628 65.672 276.536 63.476C278.444 61.28 281.288 60.182 285.068 60.182C288.128 60.182 290.504 60.794 292.196 62.018C293.888 63.242 295.058 65.024 295.706 67.364C296.354 69.704 296.678 72.71 296.678 76.382H287.606V72.224C287.606 71.108 287.444 70.244 287.12 69.632C286.832 69.02 286.292 68.714 285.5 68.714C283.736 68.714 282.854 69.866 282.854 72.17V94.634C282.854 96.038 283.034 97.1 283.394 97.82C283.754 98.54 284.384 98.9 285.284 98.9C286.184 98.9 286.814 98.54 287.174 97.82C287.534 97.1 287.714 96.038 287.714 94.634V87.992H285.23V80H296.57V107H292.844L291.278 103.112C289.622 105.992 287.066 107.432 283.61 107.432ZM301.341 107V60.614H310.629V99.116H320.187V107H301.341ZM334.9 107.432C330.688 107.432 327.646 106.388 325.774 104.3C323.902 102.212 322.966 98.846 322.966 94.202V89.666H332.092V95.444C332.092 97.748 332.83 98.9 334.306 98.9C335.134 98.9 335.71 98.666 336.034 98.198C336.358 97.694 336.52 96.866 336.52 95.714C336.52 94.202 336.34 92.96 335.98 91.988C335.62 90.98 335.152 90.152 334.576 89.504C334.036 88.82 333.046 87.776 331.606 86.372L327.61 82.376C324.514 79.352 322.966 76.004 322.966 72.332C322.966 68.372 323.866 65.366 325.666 63.314C327.502 61.226 330.166 60.182 333.658 60.182C337.834 60.182 340.84 61.298 342.676 63.53C344.512 65.726 345.43 69.182 345.43 73.898H335.98L335.926 70.712C335.926 70.1 335.746 69.614 335.386 69.254C335.062 68.894 334.594 68.714 333.982 68.714C333.262 68.714 332.722 68.912 332.362 69.308C332.002 69.704 331.822 70.244 331.822 70.928C331.822 72.44 332.686 74.006 334.414 75.626L339.814 80.81C341.074 82.034 342.118 83.204 342.946 84.32C343.774 85.4 344.44 86.696 344.944 88.208C345.448 89.684 345.7 91.448 345.7 93.5C345.7 98.072 344.854 101.546 343.162 103.922C341.506 106.262 338.752 107.432 334.9 107.432Z" fill="black"/>
<rect x="454" y="108" width="120" height="7" fill="white"/>
<mask id="mask0" mask-type="alpha" maskUnits="userSpaceOnUse" x="551" y="58" width="23" height="50">
<rect x="551" y="58" width="23" height="50" fill="#C4C4C4"/>
</mask>
<g mask="url(#mask0)">
<line x1="547.437" y1="97.7572" x2="553.265" y2="108.247" stroke="#FC9779"/>
<line x1="549.437" y1="97.7572" x2="555.265" y2="108.247" stroke="#FC9779"/>
<line x1="550.437" y1="95.7572" x2="557.722" y2="108.87" stroke="#FC9779"/>
<line x1="550.437" y1="91.7572" x2="560.15" y2="109.24" stroke="#FC9779"/>
<line x1="550.437" y1="87.7572" x2="562.578" y2="109.611" stroke="#FC9779"/>
<line x1="550.437" y1="83.7572" x2="565.006" y2="109.982" stroke="#FC9779"/>
<line x1="561.437" y1="56.7572" x2="576.006" y2="82.9819" stroke="#FC9779"/>
<line x1="562.437" y1="54.7572" x2="577.006" y2="80.9819" stroke="#FC9779"/>
<line x1="563.437" y1="52.7572" x2="578.006" y2="78.9819" stroke="#FC9779"/>
<line x1="564.437" y1="50.7572" x2="579.006" y2="76.9819" stroke="#FC9779"/>
<line x1="566.437" y1="50.7572" x2="581.006" y2="76.9819" stroke="#FC9779"/>
<line x1="567.437" y1="48.7572" x2="582.006" y2="74.9819" stroke="#FC9779"/>
<line x1="550.437" y1="79.7572" x2="567.435" y2="110.353" stroke="#FC9779"/>
<line x1="550.437" y1="75.7572" x2="569.863" y2="110.723" stroke="#FC9779"/>
<line x1="550.437" y1="71.7572" x2="572.291" y2="111.094" stroke="#FC9779"/>
<line x1="550.437" y1="67.7572" x2="573.262" y2="108.843" stroke="#FC9779"/>
<line x1="550.437" y1="63.7572" x2="574.719" y2="107.465" stroke="#FC9779"/>
<line x1="550.437" y1="59.7572" x2="574.719" y2="103.465" stroke="#FC9779"/>
<line x1="551.437" y1="57.7572" x2="575.719" y2="101.465" stroke="#FC9779"/>
<line x1="552.437" y1="55.7572" x2="576.719" y2="99.465" stroke="#FC9779"/>
<line x1="553.437" y1="53.7572" x2="577.719" y2="97.465" stroke="#FC9779"/>
<line x1="554.437" y1="51.7572" x2="578.719" y2="95.465" stroke="#FC9779"/>
<line x1="555.437" y1="49.7572" x2="579.719" y2="93.465" stroke="#FC9779"/>
</g>
</svg>
