<svg width="1005" height="206" viewBox="0 0 1005 206" fill="none" xmlns="http://www.w3.org/2000/svg">
<rect y="39" width="295" height="91" fill="white"/>
<path d="M45.174 107.054C43.806 107.306 43.032 107.432 42.852 107.432C39.108 107.432 36.264 106.37 34.32 104.246C32.376 102.086 31.404 98.936 31.404 94.796V72.386C31.404 68.39 32.376 65.366 34.32 63.314C36.3 61.226 39.144 60.182 42.852 60.182C46.56 60.182 49.386 61.226 51.33 63.314C53.31 65.366 54.3 68.39 54.3 72.386V94.796C54.3 98.612 53.436 101.636 51.708 103.868L55.704 106.406L52.572 111.914L45.174 107.054ZM42.852 98.9C43.752 98.9 44.328 98.468 44.58 97.604C44.832 96.74 44.958 95.624 44.958 94.256V72.548C44.958 71.36 44.796 70.424 44.472 69.74C44.184 69.056 43.626 68.714 42.798 68.714C41.322 68.714 40.584 69.974 40.584 72.494V94.418C40.584 95.714 40.728 96.794 41.016 97.658C41.304 98.486 41.916 98.9 42.852 98.9ZM72.1816 107.432C68.3656 107.432 65.5216 106.352 63.6496 104.192C61.8136 102.032 60.8956 98.828 60.8956 94.58V60.614H69.9136V94.202C69.9136 95.678 70.0576 96.83 70.3456 97.658C70.6336 98.486 71.2456 98.9 72.1816 98.9C73.1176 98.9 73.7296 98.504 74.0176 97.712C74.3056 96.884 74.4496 95.714 74.4496 94.202V60.614H83.4676V94.58C83.4676 98.828 82.5316 102.032 80.6596 104.192C78.8236 106.352 75.9976 107.432 72.1816 107.432ZM88.4698 107L92.9518 60.614H108.666L113.094 107H104.292L103.644 99.494H98.0278L97.4878 107H88.4698ZM98.7298 92.096H102.942L100.89 68.498H100.458L98.7298 92.096ZM118.621 60.614H132.877C135.145 60.614 136.891 61.136 138.115 62.18C139.375 63.188 140.221 64.628 140.653 66.5C141.085 68.336 141.301 70.694 141.301 73.574C141.301 76.202 140.959 78.254 140.275 79.73C139.591 81.206 138.403 82.232 136.711 82.808C138.115 83.096 139.123 83.798 139.735 84.914C140.383 86.03 140.707 87.542 140.707 89.45L140.599 107H131.527V88.856C131.527 87.56 131.275 86.732 130.771 86.372C130.267 86.012 129.349 85.832 128.017 85.832V107H118.621V60.614ZM130.285 77.786C131.581 77.786 132.229 76.382 132.229 73.574C132.229 72.35 132.175 71.432 132.067 70.82C131.959 70.208 131.761 69.794 131.473 69.578C131.185 69.326 130.771 69.2 130.231 69.2H128.071V77.786H130.285ZM145.813 107L150.295 60.614H166.009L170.437 107H161.635L160.987 99.494H155.371L154.831 107H145.813ZM156.073 92.096H160.285L158.233 68.498H157.801L156.073 92.096ZM175.964 107V60.614H185.522L189.788 82.808V60.614H198.752V107H189.68L185.036 83.78V107H175.964ZM209.555 107V69.524H204.047V60.614H224.351V69.524H218.843V107H209.555ZM229.237 107V60.614H238.201V107H229.237ZM244.603 107V60.614H254.161L258.427 82.808V60.614H267.391V107H258.319L253.675 83.78V107H244.603ZM274.198 107V60.614H292.774V69.578H283.648V78.596H292.396V87.344H283.648V97.982H293.368V107H274.198Z" fill="black"/>
<rect x="360" width="280" height="5" fill="white"/>
<rect y="204" width="1005" height="2" fill="#FC9779"/>
<rect x="1003" y="169" width="2" height="35" fill="#FC9779"/>
<rect x="295" y="58" width="300" height="50" fill="#FC9779"/>
<path d="M318.052 107V60.614H336.628V69.578H327.502V78.596H336.25V87.344H327.502V97.982H337.222V107H318.052ZM341.386 60.614H354.184C357.496 60.614 359.98 61.532 361.636 63.368C363.292 65.204 364.138 67.922 364.174 71.522L364.282 93.23C364.318 97.802 363.526 101.24 361.906 103.544C360.286 105.848 357.604 107 353.86 107H341.386V60.614ZM352.348 98.792C354.04 98.792 354.886 97.964 354.886 96.308V72.386C354.886 71.342 354.796 70.568 354.616 70.064C354.472 69.524 354.184 69.164 353.752 68.984C353.32 68.804 352.654 68.714 351.754 68.714H350.728V98.792H352.348ZM368.665 107V60.614H377.629V107H368.665ZM386.407 107V69.524H380.899V60.614H401.203V69.524H395.695V107H386.407ZM404.469 107V60.614H413.433V107H404.469ZM429.286 107.432C425.542 107.432 422.698 106.298 420.754 104.03C418.81 101.726 417.838 98.504 417.838 94.364V72.278C417.838 68.282 418.81 65.276 420.754 63.26C422.698 61.208 425.542 60.182 429.286 60.182C433.03 60.182 435.874 61.208 437.818 63.26C439.762 65.276 440.734 68.282 440.734 72.278V94.364C440.734 98.54 439.762 101.762 437.818 104.03C435.874 106.298 433.03 107.432 429.286 107.432ZM429.286 98.9C430.114 98.9 430.672 98.54 430.96 97.82C431.248 97.1 431.392 96.092 431.392 94.796V72.116C431.392 71.108 431.248 70.298 430.96 69.686C430.708 69.038 430.168 68.714 429.34 68.714C427.792 68.714 427.018 69.884 427.018 72.224V94.85C427.018 96.182 427.18 97.19 427.504 97.874C427.828 98.558 428.422 98.9 429.286 98.9ZM445.557 107V60.614H455.115L459.381 82.808V60.614H468.345V107H459.273L454.629 83.78V107H445.557Z" fill="black"/>
<rect x="498" y="108" width="120" height="7" fill="white"/>
<mask id="mask0" mask-type="alpha" maskUnits="userSpaceOnUse" x="595" y="58" width="23" height="50">
<rect x="595" y="58" width="23" height="50" fill="#C4C4C4"/>
</mask>
<g mask="url(#mask0)">
<line x1="591.437" y1="97.7572" x2="597.265" y2="108.247" stroke="#FC9779"/>
<line x1="593.437" y1="97.7572" x2="599.265" y2="108.247" stroke="#FC9779"/>
<line x1="594.437" y1="95.7572" x2="601.722" y2="108.87" stroke="#FC9779"/>
<line x1="594.437" y1="91.7572" x2="604.15" y2="109.24" stroke="#FC9779"/>
<line x1="594.437" y1="87.7572" x2="606.578" y2="109.611" stroke="#FC9779"/>
<line x1="594.437" y1="83.7572" x2="609.006" y2="109.982" stroke="#FC9779"/>
<line x1="605.437" y1="56.7572" x2="620.006" y2="82.9819" stroke="#FC9779"/>
<line x1="606.437" y1="54.7572" x2="621.006" y2="80.9819" stroke="#FC9779"/>
<line x1="607.437" y1="52.7572" x2="622.006" y2="78.9819" stroke="#FC9779"/>
<line x1="608.437" y1="50.7572" x2="623.006" y2="76.9819" stroke="#FC9779"/>
<line x1="610.437" y1="50.7572" x2="625.006" y2="76.9819" stroke="#FC9779"/>
<line x1="611.437" y1="48.7572" x2="626.006" y2="74.9819" stroke="#FC9779"/>
<line x1="594.437" y1="79.7572" x2="611.435" y2="110.353" stroke="#FC9779"/>
<line x1="594.437" y1="75.7572" x2="613.863" y2="110.723" stroke="#FC9779"/>
<line x1="594.437" y1="71.7572" x2="616.291" y2="111.094" stroke="#FC9779"/>
<line x1="594.437" y1="67.7572" x2="617.262" y2="108.843" stroke="#FC9779"/>
<line x1="594.437" y1="63.7572" x2="618.719" y2="107.465" stroke="#FC9779"/>
<line x1="594.437" y1="59.7572" x2="618.719" y2="103.465" stroke="#FC9779"/>
<line x1="595.437" y1="57.7572" x2="619.719" y2="101.465" stroke="#FC9779"/>
<line x1="596.437" y1="55.7572" x2="620.719" y2="99.465" stroke="#FC9779"/>
<line x1="597.437" y1="53.7572" x2="621.719" y2="97.465" stroke="#FC9779"/>
<line x1="598.437" y1="51.7572" x2="622.719" y2="95.465" stroke="#FC9779"/>
<line x1="599.437" y1="49.7572" x2="623.719" y2="93.465" stroke="#FC9779"/>
</g>
</svg>
