<svg width="192" height="22" viewBox="0 0 192 22" fill="none" xmlns="http://www.w3.org/2000/svg">
<path d="M4.5 19V5.5H0V2.5H12V5.5H7.5V19H4.5ZM13.5 19V10H12V7H13.5V2.5H30V5.5H16.5V7H30V10H16.5V16H30V19H13.5ZM31.5 19V2.5H48V5.5H34.5V16H48V19H31.5ZM49.5 19V10H48V7H49.5V2.5H52.5V7H63V2.5H66V19H63V10H52.5V19H49.5ZM84 21.25L70.5 7.75V19H67.5V0.25L81 13.75V2.5H84V21.25ZM99 16V5.5H88.5V16H99ZM85.5 19V2.5H102V19H85.5ZM103.5 19V2.5H106.5V11.5L115.5 2.5H120L103.5 19ZM135 7V5.5H124.5V7H135ZM121.5 19V2.5H138V19H135V10H124.5V19H121.5ZM156 21.25L142.5 7.75V19H139.5V0.25L153 13.75V2.5H156V21.25ZM155.25 19L168.75 5.5H157.5V2.5H176.25L162.75 16H174V19H155.25ZM189 7V5.5H178.5V7H189ZM175.5 19V2.5H192V19H189V10H178.5V19H175.5Z" fill="white"/>
</svg>
