<svg width="581" height="83" viewBox="0 0 581 83" fill="none" xmlns="http://www.w3.org/2000/svg">
<g clip-path="url(#clip0)">
<path d="M13.5 56V15.5H0V6.5H36V15.5H22.5V56H13.5ZM40.5 56V29H36V20H40.5V6.5H90V15.5H49.5V20H90V29H49.5V47H90V56H40.5ZM94.5 56V6.5H144V15.5H103.5V47H144V56H94.5ZM148.5 56V29H144V20H148.5V6.5H157.5V20H189V6.5H198V56H189V29H157.5V56H148.5ZM252 62.75L211.5 22.25V56H202.5V-0.25L243 40.25V6.5H252V62.75ZM297 47V15.5H265.5V47H297ZM256.5 56V6.5H306V56H256.5ZM360 56L310.5 6.5H324L351 33.5V6.5H360V56ZM405 20V15.5H373.5V20H405ZM364.5 56V6.5H414V56H405V29H373.5V56H364.5ZM468 62.75L427.5 22.25V56H418.5V-0.25L459 40.25V6.5H468V62.75ZM465.75 56L506.25 15.5H472.5V6.5H528.75L488.25 47H522V56H465.75ZM567 20V15.5H535.5V20H567ZM526.5 56V6.5H576V56H567V29H535.5V56H526.5Z" fill="white"/>
</g>
</svg>
