<svg width="581" height="70" xmlns="http://www.w3.org/2000/svg">

 <g>
  <title>background</title>
  <rect fill="none" id="canvas_background" height="72" width="583" y="-1" x="-1"/>
 </g>
 <g>
  <title>Layer 1</title>
  <g id="svg_1" clip-path="url(#clip0)">
   <path id="svg_2" fill="black" d="m16.5,59l0,-40.5l-13.5,0l0,-9l36,0l0,9l-13.5,0l0,40.5l-9,0zm27,0l0,-27l-4.5,0l0,-9l4.5,0l0,-13.5l49.5,0l0,9l-40.5,0l0,4.5l40.5,0l0,9l-40.5,0l0,18l40.5,0l0,9l-49.5,0zm54,0l0,-49.5l49.5,0l0,9l-40.5,0l0,31.5l40.5,0l0,9l-49.5,0zm54,0l0,-27l-4.5,0l0,-9l4.5,0l0,-13.5l9,0l0,13.5l31.5,0l0,-13.5l9,0l0,49.5l-9,0l0,-27l-31.5,0l0,27l-9,0zm103.5,6.75l-40.5,-40.5l0,33.75l-9,0l0,-56.25l40.5,40.5l0,-33.75l9,0l0,56.25zm45,-15.75l0,-31.5l-31.5,0l0,31.5l31.5,0zm-40.5,9l0,-49.5l49.5,0l0,49.5l-49.5,0zm103.5,0l-49.5,-49.5l13.5,0l27,27l0,-27l9,0l0,49.5zm45,-36l0,-4.5l-31.5,0l0,4.5l31.5,0zm-40.5,36l0,-49.5l49.5,0l0,49.5l-9,0l0,-27l-31.5,0l0,27l-9,0zm103.5,6.75l-40.5,-40.5l0,33.75l-9,0l0,-56.25l40.5,40.5l0,-33.75l9,0l0,56.25zm-2.25,-6.75l40.5,-40.5l-33.75,0l0,-9l56.25,0l-40.5,40.5l33.75,0l0,9l-56.25,0zm101.25,-36l0,-4.5l-31.5,0l0,4.5l31.5,0zm-40.5,36l0,-49.5l49.5,0l0,49.5l-9,0l0,-27l-31.5,0l0,27l-9,0z"/>
  </g>
 </g>
</svg>