<svg width="961" height="206" viewBox="0 0 961 206" fill="none" xmlns="http://www.w3.org/2000/svg">
<rect x="1" y="39" width="250" height="91" fill="white"/>
<path d="M35.798 107.432C31.982 107.432 29.138 106.352 27.266 104.192C25.43 102.032 24.512 98.828 24.512 94.58V60.614H33.53V94.202C33.53 95.678 33.674 96.83 33.962 97.658C34.25 98.486 34.862 98.9 35.798 98.9C36.734 98.9 37.346 98.504 37.634 97.712C37.922 96.884 38.066 95.714 38.066 94.202V60.614H47.084V94.58C47.084 98.828 46.148 102.032 44.276 104.192C42.44 106.352 39.614 107.432 35.798 107.432ZM53.3282 60.614H65.5862C69.2942 60.614 71.9402 61.82 73.5242 64.232C75.1082 66.608 75.9002 70.1 75.9002 74.708C75.9002 79.316 75.1982 82.79 73.7942 85.13C72.3902 87.47 69.8702 88.64 66.2342 88.64H62.4542V107H53.3282V60.614ZM62.9942 80.27C64.1102 80.27 64.9202 80.072 65.4242 79.676C65.9642 79.244 66.3062 78.65 66.4502 77.894C66.6302 77.102 66.7202 75.986 66.7202 74.546C66.7202 72.602 66.5042 71.198 66.0722 70.334C65.6402 69.47 64.7762 69.038 63.4802 69.038H62.4542V80.27H62.9942ZM92.2989 107.432C88.9149 107.432 86.1969 106.37 84.1449 104.246C82.1289 102.122 81.1209 99.206 81.1209 95.498V74.114C81.1209 69.506 82.0389 66.032 83.8749 63.692C85.7109 61.352 88.5909 60.182 92.5149 60.182C95.9349 60.182 98.6889 61.118 100.777 62.99C102.865 64.862 103.909 67.562 103.909 71.09V79.082H94.6749V72.224C94.6749 70.892 94.5129 69.974 94.1889 69.47C93.8649 68.966 93.3069 68.714 92.5149 68.714C91.6869 68.714 91.1109 69.002 90.7869 69.578C90.4989 70.154 90.3549 71 90.3549 72.116V95.39C90.3549 96.614 90.5349 97.514 90.8949 98.09C91.2549 98.63 91.7949 98.9 92.5149 98.9C93.9549 98.9 94.6749 97.73 94.6749 95.39V87.02H104.017V95.768C104.017 103.544 100.111 107.432 92.2989 107.432ZM120.845 107.432C117.101 107.432 114.257 106.298 112.313 104.03C110.369 101.726 109.397 98.504 109.397 94.364V72.278C109.397 68.282 110.369 65.276 112.313 63.26C114.257 61.208 117.101 60.182 120.845 60.182C124.589 60.182 127.433 61.208 129.377 63.26C131.321 65.276 132.293 68.282 132.293 72.278V94.364C132.293 98.54 131.321 101.762 129.377 104.03C127.433 106.298 124.589 107.432 120.845 107.432ZM120.845 98.9C121.673 98.9 122.231 98.54 122.519 97.82C122.807 97.1 122.951 96.092 122.951 94.796V72.116C122.951 71.108 122.807 70.298 122.519 69.686C122.267 69.038 121.727 68.714 120.899 68.714C119.351 68.714 118.577 69.884 118.577 72.224V94.85C118.577 96.182 118.739 97.19 119.063 97.874C119.387 98.558 119.981 98.9 120.845 98.9ZM138.737 107V60.614H152.885L156.773 88.91L160.661 60.614H174.917V107H166.439V73.574L161.093 107H152.777L147.107 73.574V107H138.737ZM181.294 107V60.614H190.258V107H181.294ZM196.66 107V60.614H206.218L210.484 82.808V60.614H219.448V107H210.376L205.732 83.78V107H196.66ZM235.813 107.432C232.465 107.432 229.963 106.262 228.307 103.922C226.687 101.546 225.877 97.964 225.877 93.176V73.196C225.877 68.912 226.831 65.672 228.739 63.476C230.647 61.28 233.491 60.182 237.271 60.182C240.331 60.182 242.707 60.794 244.399 62.018C246.091 63.242 247.261 65.024 247.909 67.364C248.557 69.704 248.881 72.71 248.881 76.382H239.809V72.224C239.809 71.108 239.647 70.244 239.323 69.632C239.035 69.02 238.495 68.714 237.703 68.714C235.939 68.714 235.057 69.866 235.057 72.17V94.634C235.057 96.038 235.237 97.1 235.597 97.82C235.957 98.54 236.587 98.9 237.487 98.9C238.387 98.9 239.017 98.54 239.377 97.82C239.737 97.1 239.917 96.038 239.917 94.634V87.992H237.433V80H248.773V107H245.047L243.481 103.112C241.825 105.992 239.269 107.432 235.813 107.432Z" fill="black"/>
<rect x="316" width="280" height="5" fill="white"/>
<rect x="1" y="204" width="960" height="2" fill="#e96d5e"/>
<rect x="959" y="169" width="2" height="35" fill="#e96d5e"/>
<rect x="251" y="58" width="300" height="50" fill="#e96d5e"/>
<path d="M274.052 107V60.614H283.34V99.116H292.898V107H274.052ZM296.595 107V60.614H315.171V69.578H306.045V78.596H314.793V87.344H306.045V97.982H315.765V107H296.595ZM330.729 107.432C327.345 107.432 324.627 106.37 322.575 104.246C320.559 102.122 319.551 99.206 319.551 95.498V74.114C319.551 69.506 320.469 66.032 322.305 63.692C324.141 61.352 327.021 60.182 330.945 60.182C334.365 60.182 337.119 61.118 339.207 62.99C341.295 64.862 342.339 67.562 342.339 71.09V79.082H333.105V72.224C333.105 70.892 332.943 69.974 332.619 69.47C332.295 68.966 331.737 68.714 330.945 68.714C330.117 68.714 329.541 69.002 329.217 69.578C328.929 70.154 328.785 71 328.785 72.116V95.39C328.785 96.614 328.965 97.514 329.325 98.09C329.685 98.63 330.225 98.9 330.945 98.9C332.385 98.9 333.105 97.73 333.105 95.39V87.02H342.447V95.768C342.447 103.544 338.541 107.432 330.729 107.432ZM350.581 107V69.524H345.073V60.614H365.377V69.524H359.869V107H350.581ZM379.821 107.432C376.005 107.432 373.161 106.352 371.289 104.192C369.453 102.032 368.535 98.828 368.535 94.58V60.614H377.553V94.202C377.553 95.678 377.697 96.83 377.985 97.658C378.273 98.486 378.885 98.9 379.821 98.9C380.757 98.9 381.369 98.504 381.657 97.712C381.945 96.884 382.089 95.714 382.089 94.202V60.614H391.107V94.58C391.107 98.828 390.171 102.032 388.299 104.192C386.463 106.352 383.637 107.432 379.821 107.432ZM395.731 60.614H409.987C412.255 60.614 414.001 61.136 415.225 62.18C416.485 63.188 417.331 64.628 417.763 66.5C418.195 68.336 418.411 70.694 418.411 73.574C418.411 76.202 418.069 78.254 417.385 79.73C416.701 81.206 415.513 82.232 413.821 82.808C415.225 83.096 416.233 83.798 416.845 84.914C417.493 86.03 417.817 87.542 417.817 89.45L417.709 107H408.637V88.856C408.637 87.56 408.385 86.732 407.881 86.372C407.377 86.012 406.459 85.832 405.127 85.832V107H395.731V60.614ZM407.395 77.786C408.691 77.786 409.339 76.382 409.339 73.574C409.339 72.35 409.285 71.432 409.177 70.82C409.069 70.208 408.871 69.794 408.583 69.578C408.295 69.326 407.881 69.2 407.341 69.2H405.181V77.786H407.395ZM422.546 107V60.614H441.122V69.578H431.996V78.596H440.744V87.344H431.996V97.982H441.716V107H422.546ZM456.896 107.432C452.684 107.432 449.642 106.388 447.77 104.3C445.898 102.212 444.962 98.846 444.962 94.202V89.666H454.088V95.444C454.088 97.748 454.826 98.9 456.302 98.9C457.13 98.9 457.706 98.666 458.03 98.198C458.354 97.694 458.516 96.866 458.516 95.714C458.516 94.202 458.336 92.96 457.976 91.988C457.616 90.98 457.148 90.152 456.572 89.504C456.032 88.82 455.042 87.776 453.602 86.372L449.606 82.376C446.51 79.352 444.962 76.004 444.962 72.332C444.962 68.372 445.862 65.366 447.662 63.314C449.498 61.226 452.162 60.182 455.654 60.182C459.83 60.182 462.836 61.298 464.672 63.53C466.508 65.726 467.426 69.182 467.426 73.898H457.976L457.922 70.712C457.922 70.1 457.742 69.614 457.382 69.254C457.058 68.894 456.59 68.714 455.978 68.714C455.258 68.714 454.718 68.912 454.358 69.308C453.998 69.704 453.818 70.244 453.818 70.928C453.818 72.44 454.682 74.006 456.41 75.626L461.81 80.81C463.07 82.034 464.114 83.204 464.942 84.32C465.77 85.4 466.436 86.696 466.94 88.208C467.444 89.684 467.696 91.448 467.696 93.5C467.696 98.072 466.85 101.546 465.158 103.922C463.502 106.262 460.748 107.432 456.896 107.432Z" fill="black"/>
<rect x="454" y="108" width="120" height="7" fill="white"/>
<mask id="mask0" mask-type="alpha" maskUnits="userSpaceOnUse" x="551" y="58" width="23" height="50">
<rect x="551" y="58" width="23" height="50" fill="#C4C4C4"/>
</mask>
<g mask="url(#mask0)">
<line x1="547.437" y1="97.7572" x2="553.265" y2="108.247" stroke="#e96d5e"/>
<line x1="549.437" y1="97.7572" x2="555.265" y2="108.247" stroke="#e96d5e"/>
<line x1="550.437" y1="95.7572" x2="557.722" y2="108.87" stroke="#e96d5e"/>
<line x1="550.437" y1="91.7572" x2="560.15" y2="109.24" stroke="#e96d5e"/>
<line x1="550.437" y1="87.7572" x2="562.578" y2="109.611" stroke="#e96d5e"/>
<line x1="550.437" y1="83.7572" x2="565.006" y2="109.982" stroke="#e96d5e"/>
<line x1="561.437" y1="56.7572" x2="576.006" y2="82.9819" stroke="#e96d5e"/>
<line x1="562.437" y1="54.7572" x2="577.006" y2="80.9819" stroke="#e96d5e"/>
<line x1="563.437" y1="52.7572" x2="578.006" y2="78.9819" stroke="#e96d5e"/>
<line x1="564.437" y1="50.7572" x2="579.006" y2="76.9819" stroke="#e96d5e"/>
<line x1="566.437" y1="50.7572" x2="581.006" y2="76.9819" stroke="#e96d5e"/>
<line x1="567.437" y1="48.7572" x2="582.006" y2="74.9819" stroke="#e96d5e"/>
<line x1="550.437" y1="79.7572" x2="567.435" y2="110.353" stroke="#e96d5e"/>
<line x1="550.437" y1="75.7572" x2="569.863" y2="110.723" stroke="#e96d5e"/>
<line x1="550.437" y1="71.7572" x2="572.291" y2="111.094" stroke="#e96d5e"/>
<line x1="550.437" y1="67.7572" x2="573.262" y2="108.843" stroke="#e96d5e"/>
<line x1="550.437" y1="63.7572" x2="574.719" y2="107.465" stroke="#e96d5e"/>
<line x1="550.437" y1="59.7572" x2="574.719" y2="103.465" stroke="#e96d5e"/>
<line x1="551.437" y1="57.7572" x2="575.719" y2="101.465" stroke="#e96d5e"/>
<line x1="552.437" y1="55.7572" x2="576.719" y2="99.465" stroke="#e96d5e"/>
<line x1="553.437" y1="53.7572" x2="577.719" y2="97.465" stroke="#e96d5e"/>
<line x1="554.437" y1="51.7572" x2="578.719" y2="95.465" stroke="#e96d5e"/>
<line x1="555.437" y1="49.7572" x2="579.719" y2="93.465" stroke="#e96d5e"/>
</g>
</svg>
