<?xml version="1.0" standalone="no"?>
<!DOCTYPE svg PUBLIC "-//W3C//DTD SVG 20010904//EN"
 "http://www.w3.org/TR/2001/REC-SVG-20010904/DTD/svg10.dtd">
<svg version="1.0" xmlns="http://www.w3.org/2000/svg"
 width="300.000000pt" height="300.000000pt" viewBox="0 0 300.000000 300.000000"
 preserveAspectRatio="xMidYMid meet">
<metadata>
Created by potrace 1.10, written by Peter Selinger 2001-2011
</metadata>
<g transform="translate(0.000000,300.000000) scale(0.100000,-0.100000)"
fill="#000000" stroke="none">
<path d="M801 1983 c-137 -100 -190 -144 -191 -158 0 -11 6 -40 14 -65 14 -49
42 -64 66 -35 7 8 15 15 19 15 3 0 5 -58 3 -130 -4 -171 -3 -171 -197 -115
-116 33 -185 41 -185 22 0 -17 13 -22 83 -32 26 -3 72 -15 102 -25 71 -24 135
-34 174 -25 51 11 61 44 61 198 0 152 -8 172 -53 137 -14 -11 -27 -20 -30 -20
-7 0 -30 70 -25 74 19 16 336 244 346 250 8 5 36 -10 74 -38 68 -51 84 -49 80
9 -3 35 -2 35 38 35 l40 0 0 -80 0 -80 66 -47 c64 -46 65 -49 59 -83 -4 -19
-8 -37 -10 -39 -2 -2 -18 7 -34 19 -17 11 -35 18 -41 15 -17 -10 -13 -291 5
-324 46 -89 290 -116 515 -57 52 14 168 52 257 85 90 34 200 72 245 85 55 16
84 29 86 40 2 9 0 16 -3 16 -26 0 -158 -42 -320 -102 -268 -99 -351 -119 -500
-119 -66 1 -134 5 -151 10 -48 14 -93 40 -104 60 -5 11 -10 74 -10 141 l0 120
25 -16 c13 -9 30 -14 36 -12 15 5 50 99 44 118 -3 9 -34 38 -70 64 l-64 47 -3
82 -3 82 -65 0 -65 0 -3 -32 -3 -32 -52 40 c-29 21 -55 39 -58 39 -4 0 -93
-62 -198 -137z"/>
<path d="M2254 1405 c-18 -20 -37 -48 -40 -63 -8 -36 -52 -112 -64 -112 -13 0
-13 1 10 55 24 57 25 84 3 92 -12 5 -28 -7 -56 -38 -22 -24 -35 -34 -28 -22
11 22 3 37 -15 25 -6 -4 -18 -29 -28 -55 -19 -51 -60 -106 -71 -96 -3 4 6 32
20 64 29 67 30 75 10 75 -9 0 -24 -17 -33 -38 -58 -127 -115 -157 -81 -42 9
30 18 39 40 44 33 6 40 26 9 26 -18 0 -19 1 -2 45 9 24 13 47 9 51 -11 12 -33
-14 -47 -57 -10 -28 -22 -44 -39 -51 -24 -9 -25 -11 -9 -22 16 -12 15 -16 -11
-58 -49 -77 -76 -80 -39 -4 17 36 20 51 12 64 -18 28 -43 25 -74 -8 -23 -25
-30 -28 -28 -14 5 35 -17 27 -37 -13 -29 -57 -62 -99 -71 -90 -5 4 2 27 14 50
26 50 27 57 6 57 -8 0 -22 7 -30 15 -34 34 -83 11 -127 -60 -28 -46 -67 -84
-67 -66 0 6 11 34 25 62 29 56 25 74 -13 64 -15 -4 -28 -1 -33 6 -12 21 -42 2
-36 -24 4 -15 -4 -36 -29 -69 -19 -27 -39 -48 -44 -48 -14 0 -13 5 11 51 19
38 20 72 2 67 -4 -1 -18 3 -30 10 -41 23 -69 2 -144 -106 -40 -58 -53 -44 -23
23 28 65 29 75 9 75 -8 0 -30 -30 -49 -68 -39 -77 -62 -103 -71 -80 -5 12 13
61 43 121 2 4 -6 7 -17 7 -23 0 -31 -13 -55 -83 -29 -86 23 -120 71 -48 20 29
23 31 23 12 0 -33 28 -37 57 -8 l26 25 17 -20 c21 -27 55 -17 75 23 9 16 18
29 21 29 3 0 2 -5 -1 -10 -11 -17 5 -50 25 -50 21 0 62 46 90 100 16 31 37 50
56 50 2 0 -8 -21 -21 -46 -29 -54 -31 -77 -11 -93 16 -14 52 0 72 27 10 14 13
13 23 -6 19 -35 66 -28 89 13 11 19 11 19 12 -3 0 -27 26 -39 51 -24 11 7 20
8 24 2 10 -17 34 1 40 30 7 34 79 119 91 107 4 -4 -3 -29 -16 -57 -19 -41 -21
-52 -10 -65 19 -22 46 -18 68 10 20 25 21 25 27 5 8 -26 48 -27 74 -1 16 16
20 17 25 5 7 -19 40 -18 56 1 10 12 15 13 21 4 11 -18 35 4 42 39 8 38 64 122
81 122 13 0 12 -7 -4 -46 -24 -54 -26 -94 -6 -94 28 0 47 13 63 43 13 26 17
28 25 14 13 -24 55 -21 83 7 29 29 68 103 62 119 -2 7 -14 -7 -25 -30 -30 -57
-61 -86 -79 -72 -22 19 -15 37 21 54 37 18 60 52 54 81 -6 32 -37 28 -74 -11z
m45 -31 c-17 -21 -49 -37 -49 -25 0 5 12 24 27 42 23 27 29 29 31 15 2 -9 -2
-24 -9 -32z m-725 -143 c-37 -58 -84 -92 -84 -61 0 50 62 119 87 98 11 -9 11
-15 -3 -37z m-328 12 c-21 -54 -75 -107 -93 -90 -9 9 7 46 34 77 28 33 70 42
59 13z"/>
<path d="M1995 1396 c-19 -14 -13 -36 9 -36 8 0 19 6 25 14 18 21 -10 40 -34
22z"/>
<path d="M805 1336 c-39 -17 -108 -83 -128 -123 -28 -53 -39 -121 -27 -159 14
-43 42 -58 87 -49 l36 6 -28 -24 c-20 -16 -26 -29 -22 -41 6 -16 12 -14 45 16
21 19 59 43 85 54 48 20 63 44 26 44 -11 0 -30 -5 -42 -11 -14 -8 -10 1 16 32
70 81 85 200 32 247 -30 25 -39 26 -80 8z m60 -33 c38 -37 -10 -194 -74 -244
-32 -26 -68 -34 -85 -20 -19 16 -30 100 -16 131 10 24 10 23 6 -7 -6 -37 2
-66 15 -57 5 3 9 20 9 37 0 66 73 177 116 177 7 0 20 -8 29 -17z"/>
<path d="M2282 1057 c-12 -13 -22 -30 -22 -38 0 -12 -2 -12 -9 0 -12 19 -28 6
-36 -28 -8 -39 -30 -46 -44 -14 -10 21 -16 24 -39 18 -37 -9 -61 -32 -85 -83
-31 -68 -69 -74 -42 -7 19 44 13 74 -10 55 -8 -6 -17 -22 -21 -33 -19 -61 -74
-102 -74 -54 0 46 12 67 36 67 13 0 24 5 24 10 0 6 -9 10 -19 10 -17 0 -18 3
-8 35 6 19 7 38 4 41 -11 12 -35 -16 -42 -48 -4 -18 -15 -32 -26 -35 -20 -6
-27 -23 -9 -23 18 0 10 -25 -19 -60 -36 -43 -49 -34 -27 20 20 50 20 60 1 60
-8 0 -24 -20 -36 -44 -22 -49 -45 -73 -57 -62 -4 4 8 49 26 100 17 51 32 96
32 99 0 4 -9 7 -20 7 -16 0 -23 -12 -36 -58 -15 -55 -18 -58 -44 -54 -39 6
-67 -12 -89 -56 -21 -42 -97 -116 -137 -134 -21 -10 -27 -9 -35 3 -23 37 11
99 70 125 75 33 42 45 -36 13 -18 -7 -35 -10 -39 -7 -12 13 32 73 66 91 34 17
35 17 38 -3 4 -24 20 -26 29 -4 15 40 -55 49 -111 15 -53 -33 -76 -108 -36
-118 19 -5 19 -6 -5 -35 -32 -38 -35 -102 -5 -118 31 -16 112 23 160 78 22 25
40 40 40 34 0 -6 9 -16 20 -22 17 -9 25 -6 50 18 25 26 29 27 33 10 6 -22 40
-24 57 -3 9 11 16 13 24 5 17 -17 54 -11 70 12 14 19 16 19 22 5 8 -22 72 -23
81 -2 5 14 7 14 24 0 21 -20 54 -12 69 16 10 17 13 18 26 4 25 -24 70 -19 93
11 12 15 21 32 21 39 0 7 7 19 16 26 15 12 16 10 10 -18 -4 -18 -4 -37 -1 -43
11 -18 35 9 35 39 0 33 47 134 58 127 5 -3 3 -29 -4 -58 -12 -45 -12 -54 1
-67 13 -13 17 -13 34 3 20 18 46 96 39 118 -3 7 -11 -9 -19 -36 -19 -67 -39
-73 -26 -8 10 48 6 82 -11 82 -5 0 -18 -10 -30 -23z m-130 -89 c-17 -17 -15
-36 3 -40 12 -2 10 -9 -11 -31 -30 -32 -48 -31 -52 4 -3 29 32 79 56 79 12 0
13 -3 4 -12z m-452 -54 c0 -21 -56 -94 -72 -94 -16 0 -8 48 13 74 18 22 59 37
59 20z"/>
<path d="M2003 1023 c-7 -3 -13 -11 -13 -20 0 -17 41 -14 47 3 4 13 -16 23
-34 17z"/>
<path d="M1805 1000 c-8 -13 3 -30 20 -30 20 0 30 21 14 31 -18 11 -26 11 -34
-1z"/>
</g>
</svg>
